<svg width="25" height="25" viewBox="0 0 25 25" fill="none" xmlns="http://www.w3.org/2000/svg">
<path fill-rule="evenodd" clip-rule="evenodd" d="M5.16663 4.13086C4.3382 4.13086 3.66663 4.80243 3.66663 5.63086V20.6309C3.66663 21.4593 4.3382 22.1309 5.16663 22.1309H20.1666C20.995 22.1309 21.6666 21.4593 21.6666 20.6309V5.63086C21.6666 4.80243 20.995 4.13086 20.1666 4.13086H5.16663ZM9.18739 8.13358C9.19302 9.08983 8.47724 9.67905 7.62786 9.67483C6.8277 9.67061 6.1302 9.03358 6.13442 8.13499C6.13864 7.28983 6.80661 6.61061 7.67427 6.6303C8.55458 6.64999 9.19302 7.29546 9.18739 8.13358ZM12.9463 10.8926H10.4263H10.4249V19.4525H13.0883V19.2528C13.0883 18.8729 13.088 18.4929 13.0877 18.1128C13.0869 17.099 13.086 16.0841 13.0912 15.0706C13.0926 14.8245 13.1038 14.5686 13.1671 14.3337C13.4047 13.4562 14.1937 12.8895 15.074 13.0288C15.6393 13.1173 16.0133 13.445 16.1708 13.978C16.2679 14.3112 16.3115 14.6698 16.3157 15.0172C16.3271 16.0648 16.3255 17.1124 16.3239 18.1601C16.3233 18.5299 16.3227 18.8999 16.3227 19.2697V19.4511H18.9946V19.2458C18.9946 18.7938 18.9944 18.3419 18.9941 17.89C18.9936 16.7605 18.993 15.631 18.996 14.5011C18.9974 13.9906 18.9426 13.4872 18.8174 12.9936C18.6304 12.2595 18.2437 11.652 17.6151 11.2133C17.1693 10.901 16.6799 10.7 16.1329 10.6775C16.0706 10.6749 16.0078 10.6715 15.9447 10.6681C15.665 10.6529 15.3807 10.6376 15.1133 10.6915C14.3483 10.8448 13.6762 11.195 13.1685 11.8123C13.1095 11.8831 13.0518 11.955 12.9657 12.0623L12.9463 12.0866V10.8926ZM6.34827 19.4553H8.99905V10.8982H6.34827V19.4553Z" fill="black"/>
</svg>
