<svg width="25" height="25" viewBox="0 0 25 25" fill="none" xmlns="http://www.w3.org/2000/svg">
<path fill-rule="evenodd" clip-rule="evenodd" d="M16.6666 4.13086H8.66663C5.90521 4.13086 3.66663 6.36944 3.66663 9.13086V17.1309C3.66663 19.8923 5.90521 22.1309 8.66663 22.1309H16.6666C19.428 22.1309 21.6666 19.8923 21.6666 17.1309V9.13086C21.6666 6.36944 19.428 4.13086 16.6666 4.13086ZM19.9166 17.1309C19.9111 18.9235 18.4592 20.3754 16.6666 20.3809H8.66663C6.87398 20.3754 5.42212 18.9235 5.41663 17.1309V9.13086C5.42212 7.33821 6.87398 5.88635 8.66663 5.88086H16.6666C18.4592 5.88635 19.9111 7.33821 19.9166 9.13086V17.1309ZM17.4166 9.38086C17.9689 9.38086 18.4166 8.93314 18.4166 8.38086C18.4166 7.82858 17.9689 7.38086 17.4166 7.38086C16.8643 7.38086 16.4166 7.82858 16.4166 8.38086C16.4166 8.93314 16.8643 9.38086 17.4166 9.38086ZM12.6666 8.63086C10.1813 8.63086 8.16663 10.6456 8.16663 13.1309C8.16663 15.6162 10.1813 17.6309 12.6666 17.6309C15.1519 17.6309 17.1666 15.6162 17.1666 13.1309C17.1693 11.9366 16.696 10.7904 15.8515 9.94594C15.007 9.10145 13.8609 8.6282 12.6666 8.63086ZM9.91663 13.1309C9.91663 14.6497 11.1478 15.8809 12.6666 15.8809C14.1854 15.8809 15.4166 14.6497 15.4166 13.1309C15.4166 11.6121 14.1854 10.3809 12.6666 10.3809C11.1478 10.3809 9.91663 11.6121 9.91663 13.1309Z" fill="black"/>
</svg>
