<svg width="32" height="32" viewBox="0 0 32 32" fill="none" xmlns="http://www.w3.org/2000/svg">
<path d="M8.17674 12.5298L8.17676 12.5298L8.5303 12.1762C8.53031 12.1762 8.53031 12.1762 8.53032 12.1762C8.62794 12.0786 8.78621 12.0786 8.88385 12.1763C8.88385 12.1763 8.88385 12.1763 8.88385 12.1763L15.6464 18.9389L16 19.2924L16.3535 18.9389L23.1161 12.1763C23.2138 12.0786 23.372 12.0786 23.4696 12.1763L23.8232 12.5299C23.9208 12.6275 23.9208 12.7857 23.8232 12.8833L16.1767 20.5298C16.0791 20.6275 15.9209 20.6275 15.8232 20.5298L8.17674 12.8834C8.17674 12.8834 8.17674 12.8834 8.17674 12.8833C8.07911 12.7857 8.07911 12.6275 8.17674 12.5298Z" fill="black" stroke="black"/>
</svg>
