<svg width="49" height="48" viewBox="0 0 49 48" fill="none" xmlns="http://www.w3.org/2000/svg">
<path fill-rule="evenodd" clip-rule="evenodd" d="M42.127 14.24L41.847 13.74C41.4858 13.1354 40.9764 12.6329 40.367 12.28L26.947 4.54C26.3394 4.1875 25.6496 4.00124 24.947 4H24.367C23.6644 4.00124 22.9746 4.1875 22.367 4.54L8.94699 12.3C8.34093 12.6505 7.83751 13.1539 7.48699 13.76L7.20699 14.26C6.85449 14.8677 6.66823 15.5575 6.66699 16.26V31.76C6.66823 32.4626 6.85449 33.1524 7.20699 33.76L7.48699 34.26C7.84657 34.859 8.34797 35.3604 8.94699 35.72L22.387 43.46C22.9916 43.8198 23.6834 44.0066 24.387 44H24.947C25.6496 43.9988 26.3394 43.8126 26.947 43.46L40.367 35.7C40.979 35.3574 41.4844 34.852 41.827 34.24L42.127 33.74C42.4752 33.1306 42.6612 32.442 42.667 31.74V16.24C42.6658 15.5375 42.4796 14.8477 42.127 14.24ZM24.367 8H24.947L36.667 14.76L24.667 21.68L12.667 14.76L24.367 8ZM26.667 39L38.367 32.24L38.667 31.74V18.22L26.667 25.16V39Z" fill="black"/>
</svg>
