<svg width="140" height="56" viewBox="0 0 140 56" fill="none" xmlns="http://www.w3.org/2000/svg">
<path fill-rule="evenodd" clip-rule="evenodd" d="M38.5712 16.75L27.0617 39.25H16.251L21.0677 29.925H20.8516C16.8779 35.0835 10.9489 38.4794 2.50098 39.25V30.0541C2.50098 30.0541 7.90529 29.7349 11.0823 26.3947H2.50098V16.7502H12.1455V24.6826L12.362 24.6818L16.3031 16.7502H23.597V24.6323L23.8134 24.632L27.9024 16.75H38.5712ZM101.334 36.7665H104.44V18.9375H101.334V36.7665ZM84.2102 36.5844C84.8852 36.8651 85.5717 37.0054 86.2695 37.0054C87.4224 37.0054 88.454 36.7248 89.3643 36.1634C90.2744 35.6022 90.9799 34.8286 91.4805 33.8424C91.9812 32.8488 92.2314 31.7223 92.2314 30.4632C92.2314 29.2041 91.9735 28.0777 91.4578 27.084C90.9419 26.0904 90.2252 25.3205 89.3073 24.7744C88.3895 24.2206 87.3465 23.9476 86.1784 23.9552C85.4352 23.9552 84.7222 24.0993 84.0394 24.3875C83.3568 24.6758 82.7879 25.0854 82.3328 25.6163C82.2977 25.6567 82.2635 25.6976 82.2304 25.7388V18.9489H79.1129V36.7666H82.2077L82.2014 35.1021C82.2814 35.2002 82.367 35.2961 82.4579 35.3898C82.9509 35.8981 83.535 36.2962 84.2102 36.5844ZM87.3959 33.7059C86.8877 34.0169 86.3074 34.1724 85.655 34.1724C85.0103 34.1724 84.4187 34.0131 83.8802 33.6946C83.3415 33.3683 82.913 32.9247 82.5944 32.3633C82.2834 31.8021 82.1279 31.1648 82.1279 30.4518C82.1204 29.7388 82.272 29.1017 82.583 28.5404C82.9017 27.9715 83.3302 27.5316 83.8688 27.2206C84.4073 26.902 85.0028 26.7465 85.655 26.7541C86.3074 26.7465 86.8877 26.8982 87.3959 27.2092C87.9117 27.5126 88.306 27.9488 88.5792 28.5176C88.8598 29.0789 89.0002 29.7237 89.0002 30.4518C89.0002 31.1801 88.8598 31.8248 88.5792 32.3861C88.306 32.9474 87.9117 33.3873 87.3959 33.7059ZM43.071 20.0184H46.6209L49.7964 31.6154L53.1745 20.0184H56.1328L59.7964 31.3827L62.8457 20.0184H66.0997L61.2983 36.7665H58.2377L54.5122 25.6645L51.0924 36.7665H47.9977L43.071 20.0184ZM71.3423 37.0623C70.1058 37.0699 68.9908 36.7968 67.9971 36.2431C67.011 35.6818 66.2336 34.9043 65.6646 33.9106C65.1034 32.917 64.8228 31.783 64.8228 30.5086C64.8228 29.2723 65.111 28.1535 65.6875 27.1523C66.2639 26.151 67.0451 25.3697 68.0312 24.8084C69.0174 24.2471 70.1171 23.9665 71.3308 23.9665C72.6961 23.9665 73.8908 24.2699 74.9148 24.8767C75.9464 25.4835 76.7163 26.3444 77.2245 27.4595C77.7402 28.5669 77.9261 29.8374 77.782 31.271H68.0361C68.0634 31.8421 68.2059 32.3618 68.4636 32.8298C68.7519 33.3455 69.1539 33.7475 69.6696 34.0358C70.1855 34.324 70.7619 34.4681 71.3991 34.4681C71.8845 34.4605 72.3359 34.3771 72.753 34.2179C73.1703 34.051 73.5229 33.8273 73.8111 33.5465C74.107 33.2659 74.3156 32.9474 74.437 32.5909H77.691C77.4938 33.4631 77.0994 34.2406 76.5078 34.9233C75.916 35.5984 75.1728 36.1255 74.2776 36.5048C73.3826 36.884 72.4041 37.0699 71.3423 37.0623ZM68.475 28.1421C68.2933 28.4591 68.1673 28.8004 68.0971 29.1661H74.5575C74.5106 28.7041 74.368 28.2832 74.1298 27.9032C73.8566 27.4557 73.485 27.1105 73.0148 26.8678C72.5445 26.6175 72.0135 26.4924 71.4219 26.4924C70.7923 26.4924 70.2196 26.6365 69.7038 26.9247C69.188 27.2129 68.7784 27.6188 68.475 28.1421ZM94.5187 24.2282C94.5187 23.2118 94.75 22.3092 95.2127 21.5203C95.6754 20.7239 96.324 20.1057 97.1584 19.6657C98.0002 19.2182 98.9826 18.9868 100.105 18.9717V21.7365C99.5817 21.7441 99.1342 21.854 98.7626 22.0664C98.3985 22.2712 98.1179 22.5708 97.9206 22.9653C97.7391 23.3284 97.6411 23.7494 97.6267 24.2282H100.037V26.8565H97.6249V36.7665H94.5187V26.8565H92.5162V24.2282H94.5187ZM112.336 37.0395C111.069 37.0395 109.935 36.7626 108.934 36.209C107.94 35.6476 107.159 34.874 106.59 33.8878C106.029 32.8942 105.748 31.7678 105.748 30.5086C105.748 29.242 106.029 28.1117 106.59 27.1181C107.159 26.1168 107.94 25.3393 108.934 24.7856C109.935 24.2319 111.069 23.955 112.336 23.955C113.61 23.955 114.748 24.2319 115.749 24.7856C116.758 25.3393 117.543 26.113 118.104 27.1067C118.666 28.1003 118.95 29.2343 118.958 30.5086C118.95 31.7678 118.666 32.8942 118.104 33.8878C117.551 34.874 116.769 35.6476 115.76 36.209C114.752 36.7626 113.61 37.0395 112.336 37.0395ZM112.336 34.1837C113.003 34.1837 113.595 34.032 114.111 33.7286C114.627 33.4176 115.025 32.9852 115.305 32.4315C115.586 31.8702 115.726 31.2292 115.726 30.5086C115.726 29.7805 115.586 29.1357 115.305 28.5744C115.025 28.0131 114.627 27.5808 114.111 27.2774C113.595 26.9664 113.003 26.8109 112.336 26.8109C111.676 26.8109 111.088 26.9664 110.572 27.2774C110.064 27.5808 109.67 28.0131 109.389 28.5744C109.108 29.1357 108.972 29.7805 108.979 30.5086C108.979 31.2292 109.12 31.8702 109.4 32.4315C109.689 32.9852 110.083 33.4176 110.584 33.7286C111.092 34.032 111.676 34.1837 112.336 34.1837ZM122.314 24.2282H118.855L122.599 36.7665H125.625L128.087 28.7583L130.745 36.7665H133.726L137.481 24.2282H134.352L132.222 32.0325L129.868 24.2282H126.842L124.5 32.2044L122.314 24.2282Z" fill="black"/>
<path d="M38.5712 16.75L27.0617 39.25H16.251L21.0677 29.925H20.8516C16.8779 35.0835 10.9489 38.4794 2.50098 39.25V30.0541C2.50098 30.0541 7.90529 29.7349 11.0823 26.3947H2.50098V16.7502H12.1455V24.6826L12.362 24.6818L16.3031 16.7502H23.597V24.6323L23.8134 24.632L27.9024 16.75H38.5712ZM101.334 36.7665H104.44V18.9375H101.334V36.7665ZM84.2102 36.5844C84.8852 36.8651 85.5717 37.0054 86.2695 37.0054C87.4224 37.0054 88.454 36.7248 89.3643 36.1634C90.2744 35.6022 90.9799 34.8286 91.4805 33.8424C91.9812 32.8488 92.2314 31.7223 92.2314 30.4632C92.2314 29.2041 91.9735 28.0777 91.4578 27.084C90.9419 26.0904 90.2252 25.3205 89.3073 24.7744C88.3895 24.2206 87.3465 23.9476 86.1784 23.9552C85.4352 23.9552 84.7222 24.0993 84.0394 24.3875C83.3568 24.6758 82.7879 25.0854 82.3328 25.6163C82.2977 25.6567 82.2635 25.6976 82.2304 25.7388V18.9489H79.1129V36.7666H82.2077L82.2014 35.1021C82.2814 35.2002 82.367 35.2961 82.4579 35.3898C82.9509 35.8981 83.535 36.2962 84.2102 36.5844ZM87.3959 33.7059C86.8877 34.0169 86.3074 34.1724 85.655 34.1724C85.0103 34.1724 84.4187 34.0131 83.8802 33.6946C83.3415 33.3683 82.913 32.9247 82.5944 32.3633C82.2834 31.8021 82.1279 31.1648 82.1279 30.4518C82.1204 29.7388 82.272 29.1017 82.583 28.5404C82.9017 27.9715 83.3302 27.5316 83.8688 27.2206C84.4073 26.902 85.0028 26.7465 85.655 26.7541C86.3074 26.7465 86.8877 26.8982 87.3959 27.2092C87.9117 27.5126 88.306 27.9488 88.5792 28.5176C88.8598 29.0789 89.0002 29.7237 89.0002 30.4518C89.0002 31.1801 88.8598 31.8248 88.5792 32.3861C88.306 32.9474 87.9117 33.3873 87.3959 33.7059ZM43.071 20.0184H46.6209L49.7964 31.6154L53.1745 20.0184H56.1328L59.7964 31.3827L62.8457 20.0184H66.0997L61.2983 36.7665H58.2377L54.5122 25.6645L51.0924 36.7665H47.9977L43.071 20.0184ZM71.3423 37.0623C70.1058 37.0699 68.9908 36.7968 67.9971 36.2431C67.011 35.6818 66.2336 34.9043 65.6646 33.9106C65.1034 32.917 64.8228 31.783 64.8228 30.5086C64.8228 29.2723 65.111 28.1535 65.6875 27.1523C66.2639 26.151 67.0451 25.3697 68.0312 24.8084C69.0174 24.2471 70.1171 23.9665 71.3308 23.9665C72.6961 23.9665 73.8908 24.2699 74.9148 24.8767C75.9464 25.4835 76.7163 26.3444 77.2245 27.4595C77.7402 28.5669 77.9261 29.8374 77.782 31.271H68.0361C68.0634 31.8421 68.2059 32.3618 68.4636 32.8298C68.7519 33.3455 69.1539 33.7475 69.6696 34.0358C70.1855 34.324 70.7619 34.4681 71.3991 34.4681C71.8845 34.4605 72.3359 34.3771 72.753 34.2179C73.1703 34.051 73.5229 33.8273 73.8111 33.5465C74.107 33.2659 74.3156 32.9474 74.437 32.5909H77.691C77.4938 33.4631 77.0994 34.2406 76.5078 34.9233C75.916 35.5984 75.1728 36.1255 74.2776 36.5048C73.3826 36.884 72.4041 37.0699 71.3423 37.0623ZM68.475 28.1421C68.2933 28.4591 68.1673 28.8004 68.0971 29.1661H74.5575C74.5106 28.7041 74.368 28.2832 74.1298 27.9032C73.8566 27.4557 73.485 27.1105 73.0148 26.8678C72.5445 26.6175 72.0135 26.4924 71.4219 26.4924C70.7923 26.4924 70.2196 26.6365 69.7038 26.9247C69.188 27.2129 68.7784 27.6188 68.475 28.1421ZM94.5187 24.2282C94.5187 23.2118 94.75 22.3092 95.2127 21.5203C95.6754 20.7239 96.324 20.1057 97.1584 19.6657C98.0002 19.2182 98.9826 18.9868 100.105 18.9717V21.7365C99.5817 21.7441 99.1342 21.854 98.7626 22.0664C98.3985 22.2712 98.1179 22.5708 97.9206 22.9653C97.7391 23.3284 97.6411 23.7494 97.6267 24.2282H100.037V26.8565H97.6249V36.7665H94.5187V26.8565H92.5162V24.2282H94.5187ZM112.336 37.0395C111.069 37.0395 109.935 36.7626 108.934 36.209C107.94 35.6476 107.159 34.874 106.59 33.8878C106.029 32.8942 105.748 31.7678 105.748 30.5086C105.748 29.242 106.029 28.1117 106.59 27.1181C107.159 26.1168 107.94 25.3393 108.934 24.7856C109.935 24.2319 111.069 23.955 112.336 23.955C113.61 23.955 114.748 24.2319 115.749 24.7856C116.758 25.3393 117.543 26.113 118.104 27.1067C118.666 28.1003 118.95 29.2343 118.958 30.5086C118.95 31.7678 118.666 32.8942 118.104 33.8878C117.551 34.874 116.769 35.6476 115.76 36.209C114.752 36.7626 113.61 37.0395 112.336 37.0395ZM112.336 34.1837C113.003 34.1837 113.595 34.032 114.111 33.7286C114.627 33.4176 115.025 32.9852 115.305 32.4315C115.586 31.8702 115.726 31.2292 115.726 30.5086C115.726 29.7805 115.586 29.1357 115.305 28.5744C115.025 28.0131 114.627 27.5808 114.111 27.2774C113.595 26.9664 113.003 26.8109 112.336 26.8109C111.676 26.8109 111.088 26.9664 110.572 27.2774C110.064 27.5808 109.67 28.0131 109.389 28.5744C109.108 29.1357 108.972 29.7805 108.979 30.5086C108.979 31.2292 109.12 31.8702 109.4 32.4315C109.689 32.9852 110.083 33.4176 110.584 33.7286C111.092 34.032 111.676 34.1837 112.336 34.1837ZM122.314 24.2282H118.855L122.599 36.7665H125.625L128.087 28.7583L130.745 36.7665H133.726L137.481 24.2282H134.352L132.222 32.0325L129.868 24.2282H126.842L124.5 32.2044L122.314 24.2282Z" fill="black"/>
<path fill-rule="evenodd" clip-rule="evenodd" d="M38.5712 16.75L27.0617 39.25H16.251L21.0677 29.925H20.8516C16.8779 35.0835 10.9489 38.4794 2.50098 39.25V30.0541C2.50098 30.0541 7.90529 29.7349 11.0823 26.3947H2.50098V16.7502H12.1455V24.6826L12.362 24.6818L16.3031 16.7502H23.597V24.6323L23.8134 24.632L27.9024 16.75H38.5712ZM101.334 36.7665H104.44V18.9375H101.334V36.7665ZM84.2102 36.5844C84.8852 36.8651 85.5717 37.0054 86.2695 37.0054C87.4224 37.0054 88.454 36.7248 89.3643 36.1634C90.2744 35.6022 90.9799 34.8286 91.4805 33.8424C91.9812 32.8488 92.2314 31.7223 92.2314 30.4632C92.2314 29.2041 91.9735 28.0777 91.4578 27.084C90.9419 26.0904 90.2252 25.3205 89.3073 24.7744C88.3895 24.2206 87.3465 23.9476 86.1784 23.9552C85.4352 23.9552 84.7222 24.0993 84.0394 24.3875C83.3568 24.6758 82.7879 25.0854 82.3328 25.6163C82.2977 25.6567 82.2635 25.6976 82.2304 25.7388V18.9489H79.1129V36.7666H82.2077L82.2014 35.1021C82.2814 35.2002 82.367 35.2961 82.4579 35.3898C82.9509 35.8981 83.535 36.2962 84.2102 36.5844ZM87.3959 33.7059C86.8877 34.0169 86.3074 34.1724 85.655 34.1724C85.0103 34.1724 84.4187 34.0131 83.8802 33.6946C83.3415 33.3683 82.913 32.9247 82.5944 32.3633C82.2834 31.8021 82.1279 31.1648 82.1279 30.4518C82.1204 29.7388 82.272 29.1017 82.583 28.5404C82.9017 27.9715 83.3302 27.5316 83.8688 27.2206C84.4073 26.902 85.0028 26.7465 85.655 26.7541C86.3074 26.7465 86.8877 26.8982 87.3959 27.2092C87.9117 27.5126 88.306 27.9488 88.5792 28.5176C88.8598 29.0789 89.0002 29.7237 89.0002 30.4518C89.0002 31.1801 88.8598 31.8248 88.5792 32.3861C88.306 32.9474 87.9117 33.3873 87.3959 33.7059ZM43.071 20.0184H46.6209L49.7964 31.6154L53.1745 20.0184H56.1328L59.7964 31.3827L62.8457 20.0184H66.0997L61.2983 36.7665H58.2377L54.5122 25.6645L51.0924 36.7665H47.9977L43.071 20.0184ZM71.3423 37.0623C70.1058 37.0699 68.9908 36.7968 67.9971 36.2431C67.011 35.6818 66.2336 34.9043 65.6646 33.9106C65.1034 32.917 64.8228 31.783 64.8228 30.5086C64.8228 29.2723 65.111 28.1535 65.6875 27.1523C66.2639 26.151 67.0451 25.3697 68.0312 24.8084C69.0174 24.2471 70.1171 23.9665 71.3308 23.9665C72.6961 23.9665 73.8908 24.2699 74.9148 24.8767C75.9464 25.4835 76.7163 26.3444 77.2245 27.4595C77.7402 28.5669 77.9261 29.8374 77.782 31.271H68.0361C68.0634 31.8421 68.2059 32.3618 68.4636 32.8298C68.7519 33.3455 69.1539 33.7475 69.6696 34.0358C70.1855 34.324 70.7619 34.4681 71.3991 34.4681C71.8845 34.4605 72.3359 34.3771 72.753 34.2179C73.1703 34.051 73.5229 33.8273 73.8111 33.5465C74.107 33.2659 74.3156 32.9474 74.437 32.5909H77.691C77.4938 33.4631 77.0994 34.2406 76.5078 34.9233C75.916 35.5984 75.1728 36.1255 74.2776 36.5048C73.3826 36.884 72.4041 37.0699 71.3423 37.0623ZM68.475 28.1421C68.2933 28.4591 68.1673 28.8004 68.0971 29.1661H74.5575C74.5106 28.7041 74.368 28.2832 74.1298 27.9032C73.8566 27.4557 73.485 27.1105 73.0148 26.8678C72.5445 26.6175 72.0135 26.4924 71.4219 26.4924C70.7923 26.4924 70.2196 26.6365 69.7038 26.9247C69.188 27.2129 68.7784 27.6188 68.475 28.1421ZM94.5187 24.2282C94.5187 23.2118 94.75 22.3092 95.2127 21.5203C95.6754 20.7239 96.324 20.1057 97.1584 19.6657C98.0002 19.2182 98.9826 18.9868 100.105 18.9717V21.7365C99.5817 21.7441 99.1342 21.854 98.7626 22.0664C98.3985 22.2712 98.1179 22.5708 97.9206 22.9653C97.7391 23.3284 97.6411 23.7494 97.6267 24.2282H100.037V26.8565H97.6249V36.7665H94.5187V26.8565H92.5162V24.2282H94.5187ZM112.336 37.0395C111.069 37.0395 109.935 36.7626 108.934 36.209C107.94 35.6476 107.159 34.874 106.59 33.8878C106.029 32.8942 105.748 31.7678 105.748 30.5086C105.748 29.242 106.029 28.1117 106.59 27.1181C107.159 26.1168 107.94 25.3393 108.934 24.7856C109.935 24.2319 111.069 23.955 112.336 23.955C113.61 23.955 114.748 24.2319 115.749 24.7856C116.758 25.3393 117.543 26.113 118.104 27.1067C118.666 28.1003 118.95 29.2343 118.958 30.5086C118.95 31.7678 118.666 32.8942 118.104 33.8878C117.551 34.874 116.769 35.6476 115.76 36.209C114.752 36.7626 113.61 37.0395 112.336 37.0395ZM112.336 34.1837C113.003 34.1837 113.595 34.032 114.111 33.7286C114.627 33.4176 115.025 32.9852 115.305 32.4315C115.586 31.8702 115.726 31.2292 115.726 30.5086C115.726 29.7805 115.586 29.1357 115.305 28.5744C115.025 28.0131 114.627 27.5808 114.111 27.2774C113.595 26.9664 113.003 26.8109 112.336 26.8109C111.676 26.8109 111.088 26.9664 110.572 27.2774C110.064 27.5808 109.67 28.0131 109.389 28.5744C109.108 29.1357 108.972 29.7805 108.979 30.5086C108.979 31.2292 109.12 31.8702 109.4 32.4315C109.689 32.9852 110.083 33.4176 110.584 33.7286C111.092 34.032 111.676 34.1837 112.336 34.1837ZM122.314 24.2282H118.855L122.599 36.7665H125.625L128.087 28.7583L130.745 36.7665H133.726L137.481 24.2282H134.352L132.222 32.0325L129.868 24.2282H126.842L124.5 32.2044L122.314 24.2282Z" fill="black"/>
<path d="M38.5712 16.75L27.0617 39.25H16.251L21.0677 29.925H20.8516C16.8779 35.0835 10.9489 38.4794 2.50098 39.25V30.0541C2.50098 30.0541 7.90529 29.7349 11.0823 26.3947H2.50098V16.7502H12.1455V24.6826L12.362 24.6818L16.3031 16.7502H23.597V24.6323L23.8134 24.632L27.9024 16.75H38.5712ZM101.334 36.7665H104.44V18.9375H101.334V36.7665ZM84.2102 36.5844C84.8852 36.8651 85.5717 37.0054 86.2695 37.0054C87.4224 37.0054 88.454 36.7248 89.3643 36.1634C90.2744 35.6022 90.9799 34.8286 91.4805 33.8424C91.9812 32.8488 92.2314 31.7223 92.2314 30.4632C92.2314 29.2041 91.9735 28.0777 91.4578 27.084C90.9419 26.0904 90.2252 25.3205 89.3073 24.7744C88.3895 24.2206 87.3465 23.9476 86.1784 23.9552C85.4352 23.9552 84.7222 24.0993 84.0394 24.3875C83.3568 24.6758 82.7879 25.0854 82.3328 25.6163C82.2977 25.6567 82.2635 25.6976 82.2304 25.7388V18.9489H79.1129V36.7666H82.2077L82.2014 35.1021C82.2814 35.2002 82.367 35.2961 82.4579 35.3898C82.9509 35.8981 83.535 36.2962 84.2102 36.5844ZM87.3959 33.7059C86.8877 34.0169 86.3074 34.1724 85.655 34.1724C85.0103 34.1724 84.4187 34.0131 83.8802 33.6946C83.3415 33.3683 82.913 32.9247 82.5944 32.3633C82.2834 31.8021 82.1279 31.1648 82.1279 30.4518C82.1204 29.7388 82.272 29.1017 82.583 28.5404C82.9017 27.9715 83.3302 27.5316 83.8688 27.2206C84.4073 26.902 85.0028 26.7465 85.655 26.7541C86.3074 26.7465 86.8877 26.8982 87.3959 27.2092C87.9117 27.5126 88.306 27.9488 88.5792 28.5176C88.8598 29.0789 89.0002 29.7237 89.0002 30.4518C89.0002 31.1801 88.8598 31.8248 88.5792 32.3861C88.306 32.9474 87.9117 33.3873 87.3959 33.7059ZM43.071 20.0184H46.6209L49.7964 31.6154L53.1745 20.0184H56.1328L59.7964 31.3827L62.8457 20.0184H66.0997L61.2983 36.7665H58.2377L54.5122 25.6645L51.0924 36.7665H47.9977L43.071 20.0184ZM71.3423 37.0623C70.1058 37.0699 68.9908 36.7968 67.9971 36.2431C67.011 35.6818 66.2336 34.9043 65.6646 33.9106C65.1034 32.917 64.8228 31.783 64.8228 30.5086C64.8228 29.2723 65.111 28.1535 65.6875 27.1523C66.2639 26.151 67.0451 25.3697 68.0312 24.8084C69.0174 24.2471 70.1171 23.9665 71.3308 23.9665C72.6961 23.9665 73.8908 24.2699 74.9148 24.8767C75.9464 25.4835 76.7163 26.3444 77.2245 27.4595C77.7402 28.5669 77.9261 29.8374 77.782 31.271H68.0361C68.0634 31.8421 68.2059 32.3618 68.4636 32.8298C68.7519 33.3455 69.1539 33.7475 69.6696 34.0358C70.1855 34.324 70.7619 34.4681 71.3991 34.4681C71.8845 34.4605 72.3359 34.3771 72.753 34.2179C73.1703 34.051 73.5229 33.8273 73.8111 33.5465C74.107 33.2659 74.3156 32.9474 74.437 32.5909H77.691C77.4938 33.4631 77.0994 34.2406 76.5078 34.9233C75.916 35.5984 75.1728 36.1255 74.2776 36.5048C73.3826 36.884 72.4041 37.0699 71.3423 37.0623ZM68.475 28.1421C68.2933 28.4591 68.1673 28.8004 68.0971 29.1661H74.5575C74.5106 28.7041 74.368 28.2832 74.1298 27.9032C73.8566 27.4557 73.485 27.1105 73.0148 26.8678C72.5445 26.6175 72.0135 26.4924 71.4219 26.4924C70.7923 26.4924 70.2196 26.6365 69.7038 26.9247C69.188 27.2129 68.7784 27.6188 68.475 28.1421ZM94.5187 24.2282C94.5187 23.2118 94.75 22.3092 95.2127 21.5203C95.6754 20.7239 96.324 20.1057 97.1584 19.6657C98.0002 19.2182 98.9826 18.9868 100.105 18.9717V21.7365C99.5817 21.7441 99.1342 21.854 98.7626 22.0664C98.3985 22.2712 98.1179 22.5708 97.9206 22.9653C97.7391 23.3284 97.6411 23.7494 97.6267 24.2282H100.037V26.8565H97.6249V36.7665H94.5187V26.8565H92.5162V24.2282H94.5187ZM112.336 37.0395C111.069 37.0395 109.935 36.7626 108.934 36.209C107.94 35.6476 107.159 34.874 106.59 33.8878C106.029 32.8942 105.748 31.7678 105.748 30.5086C105.748 29.242 106.029 28.1117 106.59 27.1181C107.159 26.1168 107.94 25.3393 108.934 24.7856C109.935 24.2319 111.069 23.955 112.336 23.955C113.61 23.955 114.748 24.2319 115.749 24.7856C116.758 25.3393 117.543 26.113 118.104 27.1067C118.666 28.1003 118.95 29.2343 118.958 30.5086C118.95 31.7678 118.666 32.8942 118.104 33.8878C117.551 34.874 116.769 35.6476 115.76 36.209C114.752 36.7626 113.61 37.0395 112.336 37.0395ZM112.336 34.1837C113.003 34.1837 113.595 34.032 114.111 33.7286C114.627 33.4176 115.025 32.9852 115.305 32.4315C115.586 31.8702 115.726 31.2292 115.726 30.5086C115.726 29.7805 115.586 29.1357 115.305 28.5744C115.025 28.0131 114.627 27.5808 114.111 27.2774C113.595 26.9664 113.003 26.8109 112.336 26.8109C111.676 26.8109 111.088 26.9664 110.572 27.2774C110.064 27.5808 109.67 28.0131 109.389 28.5744C109.108 29.1357 108.972 29.7805 108.979 30.5086C108.979 31.2292 109.12 31.8702 109.4 32.4315C109.689 32.9852 110.083 33.4176 110.584 33.7286C111.092 34.032 111.676 34.1837 112.336 34.1837ZM122.314 24.2282H118.855L122.599 36.7665H125.625L128.087 28.7583L130.745 36.7665H133.726L137.481 24.2282H134.352L132.222 32.0325L129.868 24.2282H126.842L124.5 32.2044L122.314 24.2282Z" fill="black"/>
<path fill-rule="evenodd" clip-rule="evenodd" d="M38.5712 16.75L27.0617 39.25H16.251L21.0677 29.925H20.8516C16.8779 35.0835 10.9489 38.4794 2.50098 39.25V30.0541C2.50098 30.0541 7.90529 29.7349 11.0823 26.3947H2.50098V16.7502H12.1455V24.6826L12.362 24.6818L16.3031 16.7502H23.597V24.6323L23.8134 24.632L27.9024 16.75H38.5712ZM101.334 36.7665H104.44V18.9375H101.334V36.7665ZM84.2102 36.5844C84.8852 36.8651 85.5717 37.0054 86.2695 37.0054C87.4224 37.0054 88.454 36.7248 89.3643 36.1634C90.2744 35.6022 90.9799 34.8286 91.4805 33.8424C91.9812 32.8488 92.2314 31.7223 92.2314 30.4632C92.2314 29.2041 91.9735 28.0777 91.4578 27.084C90.9419 26.0904 90.2252 25.3205 89.3073 24.7744C88.3895 24.2206 87.3465 23.9476 86.1784 23.9552C85.4352 23.9552 84.7222 24.0993 84.0394 24.3875C83.3568 24.6758 82.7879 25.0854 82.3328 25.6163C82.2977 25.6567 82.2635 25.6976 82.2304 25.7388V18.9489H79.1129V36.7666H82.2077L82.2014 35.1021C82.2814 35.2002 82.367 35.2961 82.4579 35.3898C82.9509 35.8981 83.535 36.2962 84.2102 36.5844ZM87.3959 33.7059C86.8877 34.0169 86.3074 34.1724 85.655 34.1724C85.0103 34.1724 84.4187 34.0131 83.8802 33.6946C83.3415 33.3683 82.913 32.9247 82.5944 32.3633C82.2834 31.8021 82.1279 31.1648 82.1279 30.4518C82.1204 29.7388 82.272 29.1017 82.583 28.5404C82.9017 27.9715 83.3302 27.5316 83.8688 27.2206C84.4073 26.902 85.0028 26.7465 85.655 26.7541C86.3074 26.7465 86.8877 26.8982 87.3959 27.2092C87.9117 27.5126 88.306 27.9488 88.5792 28.5176C88.8598 29.0789 89.0002 29.7237 89.0002 30.4518C89.0002 31.1801 88.8598 31.8248 88.5792 32.3861C88.306 32.9474 87.9117 33.3873 87.3959 33.7059ZM43.071 20.0184H46.6209L49.7964 31.6154L53.1745 20.0184H56.1328L59.7964 31.3827L62.8457 20.0184H66.0997L61.2983 36.7665H58.2377L54.5122 25.6645L51.0924 36.7665H47.9977L43.071 20.0184ZM71.3423 37.0623C70.1058 37.0699 68.9908 36.7968 67.9971 36.2431C67.011 35.6818 66.2336 34.9043 65.6646 33.9106C65.1034 32.917 64.8228 31.783 64.8228 30.5086C64.8228 29.2723 65.111 28.1535 65.6875 27.1523C66.2639 26.151 67.0451 25.3697 68.0312 24.8084C69.0174 24.2471 70.1171 23.9665 71.3308 23.9665C72.6961 23.9665 73.8908 24.2699 74.9148 24.8767C75.9464 25.4835 76.7163 26.3444 77.2245 27.4595C77.7402 28.5669 77.9261 29.8374 77.782 31.271H68.0361C68.0634 31.8421 68.2059 32.3618 68.4636 32.8298C68.7519 33.3455 69.1539 33.7475 69.6696 34.0358C70.1855 34.324 70.7619 34.4681 71.3991 34.4681C71.8845 34.4605 72.3359 34.3771 72.753 34.2179C73.1703 34.051 73.5229 33.8273 73.8111 33.5465C74.107 33.2659 74.3156 32.9474 74.437 32.5909H77.691C77.4938 33.4631 77.0994 34.2406 76.5078 34.9233C75.916 35.5984 75.1728 36.1255 74.2776 36.5048C73.3826 36.884 72.4041 37.0699 71.3423 37.0623ZM68.475 28.1421C68.2933 28.4591 68.1673 28.8004 68.0971 29.1661H74.5575C74.5106 28.7041 74.368 28.2832 74.1298 27.9032C73.8566 27.4557 73.485 27.1105 73.0148 26.8678C72.5445 26.6175 72.0135 26.4924 71.4219 26.4924C70.7923 26.4924 70.2196 26.6365 69.7038 26.9247C69.188 27.2129 68.7784 27.6188 68.475 28.1421ZM94.5187 24.2282C94.5187 23.2118 94.75 22.3092 95.2127 21.5203C95.6754 20.7239 96.324 20.1057 97.1584 19.6657C98.0002 19.2182 98.9826 18.9868 100.105 18.9717V21.7365C99.5817 21.7441 99.1342 21.854 98.7626 22.0664C98.3985 22.2712 98.1179 22.5708 97.9206 22.9653C97.7391 23.3284 97.6411 23.7494 97.6267 24.2282H100.037V26.8565H97.6249V36.7665H94.5187V26.8565H92.5162V24.2282H94.5187ZM112.336 37.0395C111.069 37.0395 109.935 36.7626 108.934 36.209C107.94 35.6476 107.159 34.874 106.59 33.8878C106.029 32.8942 105.748 31.7678 105.748 30.5086C105.748 29.242 106.029 28.1117 106.59 27.1181C107.159 26.1168 107.94 25.3393 108.934 24.7856C109.935 24.2319 111.069 23.955 112.336 23.955C113.61 23.955 114.748 24.2319 115.749 24.7856C116.758 25.3393 117.543 26.113 118.104 27.1067C118.666 28.1003 118.95 29.2343 118.958 30.5086C118.95 31.7678 118.666 32.8942 118.104 33.8878C117.551 34.874 116.769 35.6476 115.76 36.209C114.752 36.7626 113.61 37.0395 112.336 37.0395ZM112.336 34.1837C113.003 34.1837 113.595 34.032 114.111 33.7286C114.627 33.4176 115.025 32.9852 115.305 32.4315C115.586 31.8702 115.726 31.2292 115.726 30.5086C115.726 29.7805 115.586 29.1357 115.305 28.5744C115.025 28.0131 114.627 27.5808 114.111 27.2774C113.595 26.9664 113.003 26.8109 112.336 26.8109C111.676 26.8109 111.088 26.9664 110.572 27.2774C110.064 27.5808 109.67 28.0131 109.389 28.5744C109.108 29.1357 108.972 29.7805 108.979 30.5086C108.979 31.2292 109.12 31.8702 109.4 32.4315C109.689 32.9852 110.083 33.4176 110.584 33.7286C111.092 34.032 111.676 34.1837 112.336 34.1837ZM122.314 24.2282H118.855L122.599 36.7665H125.625L128.087 28.7583L130.745 36.7665H133.726L137.481 24.2282H134.352L132.222 32.0325L129.868 24.2282H126.842L124.5 32.2044L122.314 24.2282Z" fill="black"/>
<path d="M38.5712 16.75L27.0617 39.25H16.251L21.0677 29.925H20.8516C16.8779 35.0835 10.9489 38.4794 2.50098 39.25V30.0541C2.50098 30.0541 7.90529 29.7349 11.0823 26.3947H2.50098V16.7502H12.1455V24.6826L12.362 24.6818L16.3031 16.7502H23.597V24.6323L23.8134 24.632L27.9024 16.75H38.5712ZM101.334 36.7665H104.44V18.9375H101.334V36.7665ZM84.2102 36.5844C84.8852 36.8651 85.5717 37.0054 86.2695 37.0054C87.4224 37.0054 88.454 36.7248 89.3643 36.1634C90.2744 35.6022 90.9799 34.8286 91.4805 33.8424C91.9812 32.8488 92.2314 31.7223 92.2314 30.4632C92.2314 29.2041 91.9735 28.0777 91.4578 27.084C90.9419 26.0904 90.2252 25.3205 89.3073 24.7744C88.3895 24.2206 87.3465 23.9476 86.1784 23.9552C85.4352 23.9552 84.7222 24.0993 84.0394 24.3875C83.3568 24.6758 82.7879 25.0854 82.3328 25.6163C82.2977 25.6567 82.2635 25.6976 82.2304 25.7388V18.9489H79.1129V36.7666H82.2077L82.2014 35.1021C82.2814 35.2002 82.367 35.2961 82.4579 35.3898C82.9509 35.8981 83.535 36.2962 84.2102 36.5844ZM87.3959 33.7059C86.8877 34.0169 86.3074 34.1724 85.655 34.1724C85.0103 34.1724 84.4187 34.0131 83.8802 33.6946C83.3415 33.3683 82.913 32.9247 82.5944 32.3633C82.2834 31.8021 82.1279 31.1648 82.1279 30.4518C82.1204 29.7388 82.272 29.1017 82.583 28.5404C82.9017 27.9715 83.3302 27.5316 83.8688 27.2206C84.4073 26.902 85.0028 26.7465 85.655 26.7541C86.3074 26.7465 86.8877 26.8982 87.3959 27.2092C87.9117 27.5126 88.306 27.9488 88.5792 28.5176C88.8598 29.0789 89.0002 29.7237 89.0002 30.4518C89.0002 31.1801 88.8598 31.8248 88.5792 32.3861C88.306 32.9474 87.9117 33.3873 87.3959 33.7059ZM43.071 20.0184H46.6209L49.7964 31.6154L53.1745 20.0184H56.1328L59.7964 31.3827L62.8457 20.0184H66.0997L61.2983 36.7665H58.2377L54.5122 25.6645L51.0924 36.7665H47.9977L43.071 20.0184ZM71.3423 37.0623C70.1058 37.0699 68.9908 36.7968 67.9971 36.2431C67.011 35.6818 66.2336 34.9043 65.6646 33.9106C65.1034 32.917 64.8228 31.783 64.8228 30.5086C64.8228 29.2723 65.111 28.1535 65.6875 27.1523C66.2639 26.151 67.0451 25.3697 68.0312 24.8084C69.0174 24.2471 70.1171 23.9665 71.3308 23.9665C72.6961 23.9665 73.8908 24.2699 74.9148 24.8767C75.9464 25.4835 76.7163 26.3444 77.2245 27.4595C77.7402 28.5669 77.9261 29.8374 77.782 31.271H68.0361C68.0634 31.8421 68.2059 32.3618 68.4636 32.8298C68.7519 33.3455 69.1539 33.7475 69.6696 34.0358C70.1855 34.324 70.7619 34.4681 71.3991 34.4681C71.8845 34.4605 72.3359 34.3771 72.753 34.2179C73.1703 34.051 73.5229 33.8273 73.8111 33.5465C74.107 33.2659 74.3156 32.9474 74.437 32.5909H77.691C77.4938 33.4631 77.0994 34.2406 76.5078 34.9233C75.916 35.5984 75.1728 36.1255 74.2776 36.5048C73.3826 36.884 72.4041 37.0699 71.3423 37.0623ZM68.475 28.1421C68.2933 28.4591 68.1673 28.8004 68.0971 29.1661H74.5575C74.5106 28.7041 74.368 28.2832 74.1298 27.9032C73.8566 27.4557 73.485 27.1105 73.0148 26.8678C72.5445 26.6175 72.0135 26.4924 71.4219 26.4924C70.7923 26.4924 70.2196 26.6365 69.7038 26.9247C69.188 27.2129 68.7784 27.6188 68.475 28.1421ZM94.5187 24.2282C94.5187 23.2118 94.75 22.3092 95.2127 21.5203C95.6754 20.7239 96.324 20.1057 97.1584 19.6657C98.0002 19.2182 98.9826 18.9868 100.105 18.9717V21.7365C99.5817 21.7441 99.1342 21.854 98.7626 22.0664C98.3985 22.2712 98.1179 22.5708 97.9206 22.9653C97.7391 23.3284 97.6411 23.7494 97.6267 24.2282H100.037V26.8565H97.6249V36.7665H94.5187V26.8565H92.5162V24.2282H94.5187ZM112.336 37.0395C111.069 37.0395 109.935 36.7626 108.934 36.209C107.94 35.6476 107.159 34.874 106.59 33.8878C106.029 32.8942 105.748 31.7678 105.748 30.5086C105.748 29.242 106.029 28.1117 106.59 27.1181C107.159 26.1168 107.94 25.3393 108.934 24.7856C109.935 24.2319 111.069 23.955 112.336 23.955C113.61 23.955 114.748 24.2319 115.749 24.7856C116.758 25.3393 117.543 26.113 118.104 27.1067C118.666 28.1003 118.95 29.2343 118.958 30.5086C118.95 31.7678 118.666 32.8942 118.104 33.8878C117.551 34.874 116.769 35.6476 115.76 36.209C114.752 36.7626 113.61 37.0395 112.336 37.0395ZM112.336 34.1837C113.003 34.1837 113.595 34.032 114.111 33.7286C114.627 33.4176 115.025 32.9852 115.305 32.4315C115.586 31.8702 115.726 31.2292 115.726 30.5086C115.726 29.7805 115.586 29.1357 115.305 28.5744C115.025 28.0131 114.627 27.5808 114.111 27.2774C113.595 26.9664 113.003 26.8109 112.336 26.8109C111.676 26.8109 111.088 26.9664 110.572 27.2774C110.064 27.5808 109.67 28.0131 109.389 28.5744C109.108 29.1357 108.972 29.7805 108.979 30.5086C108.979 31.2292 109.12 31.8702 109.4 32.4315C109.689 32.9852 110.083 33.4176 110.584 33.7286C111.092 34.032 111.676 34.1837 112.336 34.1837ZM122.314 24.2282H118.855L122.599 36.7665H125.625L128.087 28.7583L130.745 36.7665H133.726L137.481 24.2282H134.352L132.222 32.0325L129.868 24.2282H126.842L124.5 32.2044L122.314 24.2282Z" fill="black"/>
<path fill-rule="evenodd" clip-rule="evenodd" d="M38.5712 16.75L27.0617 39.25H16.251L21.0677 29.925H20.8516C16.8779 35.0835 10.9489 38.4794 2.50098 39.25V30.0541C2.50098 30.0541 7.90529 29.7349 11.0823 26.3947H2.50098V16.7502H12.1455V24.6826L12.362 24.6818L16.3031 16.7502H23.597V24.6323L23.8134 24.632L27.9024 16.75H38.5712ZM101.334 36.7665H104.44V18.9375H101.334V36.7665ZM84.2102 36.5844C84.8852 36.8651 85.5717 37.0054 86.2695 37.0054C87.4224 37.0054 88.454 36.7248 89.3643 36.1634C90.2744 35.6022 90.9799 34.8286 91.4805 33.8424C91.9812 32.8488 92.2314 31.7223 92.2314 30.4632C92.2314 29.2041 91.9735 28.0777 91.4578 27.084C90.9419 26.0904 90.2252 25.3205 89.3073 24.7744C88.3895 24.2206 87.3465 23.9476 86.1784 23.9552C85.4352 23.9552 84.7222 24.0993 84.0394 24.3875C83.3568 24.6758 82.7879 25.0854 82.3328 25.6163C82.2977 25.6567 82.2635 25.6976 82.2304 25.7388V18.9489H79.1129V36.7666H82.2077L82.2014 35.1021C82.2814 35.2002 82.367 35.2961 82.4579 35.3898C82.9509 35.8981 83.535 36.2962 84.2102 36.5844ZM87.3959 33.7059C86.8877 34.0169 86.3074 34.1724 85.655 34.1724C85.0103 34.1724 84.4187 34.0131 83.8802 33.6946C83.3415 33.3683 82.913 32.9247 82.5944 32.3633C82.2834 31.8021 82.1279 31.1648 82.1279 30.4518C82.1204 29.7388 82.272 29.1017 82.583 28.5404C82.9017 27.9715 83.3302 27.5316 83.8688 27.2206C84.4073 26.902 85.0028 26.7465 85.655 26.7541C86.3074 26.7465 86.8877 26.8982 87.3959 27.2092C87.9117 27.5126 88.306 27.9488 88.5792 28.5176C88.8598 29.0789 89.0002 29.7237 89.0002 30.4518C89.0002 31.1801 88.8598 31.8248 88.5792 32.3861C88.306 32.9474 87.9117 33.3873 87.3959 33.7059ZM43.071 20.0184H46.6209L49.7964 31.6154L53.1745 20.0184H56.1328L59.7964 31.3827L62.8457 20.0184H66.0997L61.2983 36.7665H58.2377L54.5122 25.6645L51.0924 36.7665H47.9977L43.071 20.0184ZM71.3423 37.0623C70.1058 37.0699 68.9908 36.7968 67.9971 36.2431C67.011 35.6818 66.2336 34.9043 65.6646 33.9106C65.1034 32.917 64.8228 31.783 64.8228 30.5086C64.8228 29.2723 65.111 28.1535 65.6875 27.1523C66.2639 26.151 67.0451 25.3697 68.0312 24.8084C69.0174 24.2471 70.1171 23.9665 71.3308 23.9665C72.6961 23.9665 73.8908 24.2699 74.9148 24.8767C75.9464 25.4835 76.7163 26.3444 77.2245 27.4595C77.7402 28.5669 77.9261 29.8374 77.782 31.271H68.0361C68.0634 31.8421 68.2059 32.3618 68.4636 32.8298C68.7519 33.3455 69.1539 33.7475 69.6696 34.0358C70.1855 34.324 70.7619 34.4681 71.3991 34.4681C71.8845 34.4605 72.3359 34.3771 72.753 34.2179C73.1703 34.051 73.5229 33.8273 73.8111 33.5465C74.107 33.2659 74.3156 32.9474 74.437 32.5909H77.691C77.4938 33.4631 77.0994 34.2406 76.5078 34.9233C75.916 35.5984 75.1728 36.1255 74.2776 36.5048C73.3826 36.884 72.4041 37.0699 71.3423 37.0623ZM68.475 28.1421C68.2933 28.4591 68.1673 28.8004 68.0971 29.1661H74.5575C74.5106 28.7041 74.368 28.2832 74.1298 27.9032C73.8566 27.4557 73.485 27.1105 73.0148 26.8678C72.5445 26.6175 72.0135 26.4924 71.4219 26.4924C70.7923 26.4924 70.2196 26.6365 69.7038 26.9247C69.188 27.2129 68.7784 27.6188 68.475 28.1421ZM94.5187 24.2282C94.5187 23.2118 94.75 22.3092 95.2127 21.5203C95.6754 20.7239 96.324 20.1057 97.1584 19.6657C98.0002 19.2182 98.9826 18.9868 100.105 18.9717V21.7365C99.5817 21.7441 99.1342 21.854 98.7626 22.0664C98.3985 22.2712 98.1179 22.5708 97.9206 22.9653C97.7391 23.3284 97.6411 23.7494 97.6267 24.2282H100.037V26.8565H97.6249V36.7665H94.5187V26.8565H92.5162V24.2282H94.5187ZM112.336 37.0395C111.069 37.0395 109.935 36.7626 108.934 36.209C107.94 35.6476 107.159 34.874 106.59 33.8878C106.029 32.8942 105.748 31.7678 105.748 30.5086C105.748 29.242 106.029 28.1117 106.59 27.1181C107.159 26.1168 107.94 25.3393 108.934 24.7856C109.935 24.2319 111.069 23.955 112.336 23.955C113.61 23.955 114.748 24.2319 115.749 24.7856C116.758 25.3393 117.543 26.113 118.104 27.1067C118.666 28.1003 118.95 29.2343 118.958 30.5086C118.95 31.7678 118.666 32.8942 118.104 33.8878C117.551 34.874 116.769 35.6476 115.76 36.209C114.752 36.7626 113.61 37.0395 112.336 37.0395ZM112.336 34.1837C113.003 34.1837 113.595 34.032 114.111 33.7286C114.627 33.4176 115.025 32.9852 115.305 32.4315C115.586 31.8702 115.726 31.2292 115.726 30.5086C115.726 29.7805 115.586 29.1357 115.305 28.5744C115.025 28.0131 114.627 27.5808 114.111 27.2774C113.595 26.9664 113.003 26.8109 112.336 26.8109C111.676 26.8109 111.088 26.9664 110.572 27.2774C110.064 27.5808 109.67 28.0131 109.389 28.5744C109.108 29.1357 108.972 29.7805 108.979 30.5086C108.979 31.2292 109.12 31.8702 109.4 32.4315C109.689 32.9852 110.083 33.4176 110.584 33.7286C111.092 34.032 111.676 34.1837 112.336 34.1837ZM122.314 24.2282H118.855L122.599 36.7665H125.625L128.087 28.7583L130.745 36.7665H133.726L137.481 24.2282H134.352L132.222 32.0325L129.868 24.2282H126.842L124.5 32.2044L122.314 24.2282Z" fill="black"/>
<path d="M38.5712 16.75L27.0617 39.25H16.251L21.0677 29.925H20.8516C16.8779 35.0835 10.9489 38.4794 2.50098 39.25V30.0541C2.50098 30.0541 7.90529 29.7349 11.0823 26.3947H2.50098V16.7502H12.1455V24.6826L12.362 24.6818L16.3031 16.7502H23.597V24.6323L23.8134 24.632L27.9024 16.75H38.5712ZM101.334 36.7665H104.44V18.9375H101.334V36.7665ZM84.2102 36.5844C84.8852 36.8651 85.5717 37.0054 86.2695 37.0054C87.4224 37.0054 88.454 36.7248 89.3643 36.1634C90.2744 35.6022 90.9799 34.8286 91.4805 33.8424C91.9812 32.8488 92.2314 31.7223 92.2314 30.4632C92.2314 29.2041 91.9735 28.0777 91.4578 27.084C90.9419 26.0904 90.2252 25.3205 89.3073 24.7744C88.3895 24.2206 87.3465 23.9476 86.1784 23.9552C85.4352 23.9552 84.7222 24.0993 84.0394 24.3875C83.3568 24.6758 82.7879 25.0854 82.3328 25.6163C82.2977 25.6567 82.2635 25.6976 82.2304 25.7388V18.9489H79.1129V36.7666H82.2077L82.2014 35.1021C82.2814 35.2002 82.367 35.2961 82.4579 35.3898C82.9509 35.8981 83.535 36.2962 84.2102 36.5844ZM87.3959 33.7059C86.8877 34.0169 86.3074 34.1724 85.655 34.1724C85.0103 34.1724 84.4187 34.0131 83.8802 33.6946C83.3415 33.3683 82.913 32.9247 82.5944 32.3633C82.2834 31.8021 82.1279 31.1648 82.1279 30.4518C82.1204 29.7388 82.272 29.1017 82.583 28.5404C82.9017 27.9715 83.3302 27.5316 83.8688 27.2206C84.4073 26.902 85.0028 26.7465 85.655 26.7541C86.3074 26.7465 86.8877 26.8982 87.3959 27.2092C87.9117 27.5126 88.306 27.9488 88.5792 28.5176C88.8598 29.0789 89.0002 29.7237 89.0002 30.4518C89.0002 31.1801 88.8598 31.8248 88.5792 32.3861C88.306 32.9474 87.9117 33.3873 87.3959 33.7059ZM43.071 20.0184H46.6209L49.7964 31.6154L53.1745 20.0184H56.1328L59.7964 31.3827L62.8457 20.0184H66.0997L61.2983 36.7665H58.2377L54.5122 25.6645L51.0924 36.7665H47.9977L43.071 20.0184ZM71.3423 37.0623C70.1058 37.0699 68.9908 36.7968 67.9971 36.2431C67.011 35.6818 66.2336 34.9043 65.6646 33.9106C65.1034 32.917 64.8228 31.783 64.8228 30.5086C64.8228 29.2723 65.111 28.1535 65.6875 27.1523C66.2639 26.151 67.0451 25.3697 68.0312 24.8084C69.0174 24.2471 70.1171 23.9665 71.3308 23.9665C72.6961 23.9665 73.8908 24.2699 74.9148 24.8767C75.9464 25.4835 76.7163 26.3444 77.2245 27.4595C77.7402 28.5669 77.9261 29.8374 77.782 31.271H68.0361C68.0634 31.8421 68.2059 32.3618 68.4636 32.8298C68.7519 33.3455 69.1539 33.7475 69.6696 34.0358C70.1855 34.324 70.7619 34.4681 71.3991 34.4681C71.8845 34.4605 72.3359 34.3771 72.753 34.2179C73.1703 34.051 73.5229 33.8273 73.8111 33.5465C74.107 33.2659 74.3156 32.9474 74.437 32.5909H77.691C77.4938 33.4631 77.0994 34.2406 76.5078 34.9233C75.916 35.5984 75.1728 36.1255 74.2776 36.5048C73.3826 36.884 72.4041 37.0699 71.3423 37.0623ZM68.475 28.1421C68.2933 28.4591 68.1673 28.8004 68.0971 29.1661H74.5575C74.5106 28.7041 74.368 28.2832 74.1298 27.9032C73.8566 27.4557 73.485 27.1105 73.0148 26.8678C72.5445 26.6175 72.0135 26.4924 71.4219 26.4924C70.7923 26.4924 70.2196 26.6365 69.7038 26.9247C69.188 27.2129 68.7784 27.6188 68.475 28.1421ZM94.5187 24.2282C94.5187 23.2118 94.75 22.3092 95.2127 21.5203C95.6754 20.7239 96.324 20.1057 97.1584 19.6657C98.0002 19.2182 98.9826 18.9868 100.105 18.9717V21.7365C99.5817 21.7441 99.1342 21.854 98.7626 22.0664C98.3985 22.2712 98.1179 22.5708 97.9206 22.9653C97.7391 23.3284 97.6411 23.7494 97.6267 24.2282H100.037V26.8565H97.6249V36.7665H94.5187V26.8565H92.5162V24.2282H94.5187ZM112.336 37.0395C111.069 37.0395 109.935 36.7626 108.934 36.209C107.94 35.6476 107.159 34.874 106.59 33.8878C106.029 32.8942 105.748 31.7678 105.748 30.5086C105.748 29.242 106.029 28.1117 106.59 27.1181C107.159 26.1168 107.94 25.3393 108.934 24.7856C109.935 24.2319 111.069 23.955 112.336 23.955C113.61 23.955 114.748 24.2319 115.749 24.7856C116.758 25.3393 117.543 26.113 118.104 27.1067C118.666 28.1003 118.95 29.2343 118.958 30.5086C118.95 31.7678 118.666 32.8942 118.104 33.8878C117.551 34.874 116.769 35.6476 115.76 36.209C114.752 36.7626 113.61 37.0395 112.336 37.0395ZM112.336 34.1837C113.003 34.1837 113.595 34.032 114.111 33.7286C114.627 33.4176 115.025 32.9852 115.305 32.4315C115.586 31.8702 115.726 31.2292 115.726 30.5086C115.726 29.7805 115.586 29.1357 115.305 28.5744C115.025 28.0131 114.627 27.5808 114.111 27.2774C113.595 26.9664 113.003 26.8109 112.336 26.8109C111.676 26.8109 111.088 26.9664 110.572 27.2774C110.064 27.5808 109.67 28.0131 109.389 28.5744C109.108 29.1357 108.972 29.7805 108.979 30.5086C108.979 31.2292 109.12 31.8702 109.4 32.4315C109.689 32.9852 110.083 33.4176 110.584 33.7286C111.092 34.032 111.676 34.1837 112.336 34.1837ZM122.314 24.2282H118.855L122.599 36.7665H125.625L128.087 28.7583L130.745 36.7665H133.726L137.481 24.2282H134.352L132.222 32.0325L129.868 24.2282H126.842L124.5 32.2044L122.314 24.2282Z" fill="black"/>
</svg>
