<svg width="140" height="57" viewBox="0 0 140 57" fill="none" xmlns="http://www.w3.org/2000/svg">
<path fill-rule="evenodd" clip-rule="evenodd" d="M38.5693 17.1943L27.0598 39.6943H16.249L21.0658 30.3693H20.8496C16.8759 35.5278 10.9469 38.9237 2.49902 39.6943V30.4985C2.49902 30.4985 7.90334 30.1792 11.0804 26.839H2.49902V17.1945H12.1435V25.127L12.36 25.1261L16.3011 17.1945H23.595V25.0767L23.8114 25.0763L27.9004 17.1943H38.5693ZM101.332 37.2108H104.438V19.3818H101.332V37.2108ZM84.2082 37.0288C84.8832 37.3094 85.5697 37.4498 86.2676 37.4498C87.4205 37.4498 88.4521 37.1692 89.3623 36.6078C90.2725 36.0465 90.978 35.2729 91.4786 34.2868C91.9792 33.2932 92.2295 32.1667 92.2295 30.9075C92.2295 29.6484 91.9716 28.522 91.4558 27.5284C90.94 26.5347 90.2232 25.7648 89.3053 25.2187C88.3876 24.665 87.3446 24.3919 86.1765 24.3995C85.4332 24.3995 84.7202 24.5436 84.0375 24.8319C83.3548 25.1201 82.786 25.5297 82.3308 26.0607C82.2957 26.1011 82.2616 26.1419 82.2285 26.1831V19.3933H79.111V37.2109H82.2057L82.1995 35.5464C82.2795 35.6445 82.3651 35.7404 82.456 35.8342C82.949 36.3424 83.5331 36.7405 84.2082 37.0288ZM87.394 34.1503C86.8857 34.4613 86.3055 34.6168 85.6531 34.6168C85.0083 34.6168 84.4167 34.4574 83.8782 34.1389C83.3396 33.8127 82.9111 33.369 82.5925 32.8077C82.2815 32.2464 82.126 31.6092 82.126 30.8962C82.1185 30.1832 82.2701 29.546 82.5811 28.9847C82.8997 28.4159 83.3282 27.9759 83.8668 27.6649C84.4053 27.3463 85.0008 27.1908 85.6531 27.1984C86.3055 27.1908 86.8857 27.3425 87.394 27.6535C87.9097 27.9569 88.3041 28.3931 88.5772 28.962C88.8578 29.5233 88.9982 30.168 88.9982 30.8962C88.9982 31.6244 88.8578 32.2692 88.5772 32.8304C88.3041 33.3918 87.9097 33.8317 87.394 34.1503ZM43.0691 20.4628H46.619L49.7945 32.0598L53.1726 20.4628H56.1308L59.7945 31.827L62.8437 20.4628H66.0977L61.2963 37.2109H58.2357L54.5102 26.1089L51.0905 37.2109H47.9957L43.0691 20.4628ZM71.3403 37.5066C70.1038 37.5142 68.9888 37.2411 67.9952 36.6875C67.0091 36.1261 66.2317 35.3486 65.6627 34.355C65.1014 33.3614 64.8208 32.2274 64.8208 30.953C64.8208 29.7166 65.1091 28.5978 65.6856 27.5966C66.2619 26.5954 67.0432 25.8141 68.0293 25.2528C69.0154 24.6915 70.1152 24.4108 71.3288 24.4108C72.6942 24.4108 73.8888 24.7142 74.9128 25.321C75.9444 25.9279 76.7143 26.7888 77.2225 27.9038C77.7383 29.0112 77.9242 30.2817 77.7801 31.7154H68.0342C68.0614 32.2865 68.2039 32.8061 68.4617 33.2741C68.7499 33.7899 69.1519 34.1919 69.6677 34.4801C70.1835 34.7684 70.7599 34.9125 71.3972 34.9125C71.8826 34.9049 72.3339 34.8215 72.7511 34.6622C73.1683 34.4954 73.5209 34.2716 73.8092 33.9909C74.105 33.7102 74.3137 33.3917 74.4351 33.0352H77.6891C77.4918 33.9075 77.0974 34.685 76.5058 35.3676C75.914 36.0427 75.1708 36.5699 74.2757 36.9491C73.3807 37.3284 72.4022 37.5142 71.3403 37.5066ZM68.4731 28.5865C68.2913 28.9034 68.1653 29.2447 68.0952 29.6105H74.5555C74.5087 29.1485 74.3661 28.7275 74.1278 28.3475C73.8547 27.9 73.4831 27.5549 73.0128 27.3122C72.5425 27.0618 72.0116 26.9367 71.4199 26.9367C70.7903 26.9367 70.2177 27.0808 69.7018 27.369C69.1861 27.6573 68.7764 28.0631 68.4731 28.5865ZM94.5168 24.6725C94.5168 23.6561 94.748 22.7535 95.2108 21.9646C95.6734 21.1682 96.322 20.55 97.1564 20.1101C97.9983 19.6625 98.9807 19.4312 100.103 19.416V22.1808C99.5798 22.1884 99.1323 22.2984 98.7607 22.5108C98.3965 22.7156 98.1159 23.0152 97.9187 23.4096C97.7372 23.7727 97.6392 24.1937 97.6248 24.6725H100.035V27.3008H97.6229V37.2109H94.5168V27.3008H92.5143V24.6725H94.5168ZM112.334 37.4838C111.067 37.4838 109.933 37.2069 108.932 36.6533C107.938 36.0919 107.157 35.3183 106.588 34.3322C106.027 33.3385 105.746 32.2122 105.746 30.9529C105.746 29.6863 106.027 28.5561 106.588 27.5624C107.157 26.5612 107.938 25.7837 108.932 25.23C109.933 24.6762 111.067 24.3994 112.334 24.3994C113.608 24.3994 114.746 24.6762 115.747 25.23C116.756 25.7837 117.541 26.5574 118.102 27.551C118.664 28.5447 118.948 29.6787 118.956 30.9529C118.948 32.2122 118.664 33.3385 118.102 34.3322C117.549 35.3183 116.767 36.0919 115.758 36.6533C114.75 37.2069 113.608 37.4838 112.334 37.4838ZM112.334 34.628C113.001 34.628 113.593 34.4763 114.109 34.1729C114.625 33.8619 115.023 33.4295 115.303 32.8758C115.584 32.3145 115.724 31.6735 115.724 30.9529C115.724 30.2248 115.584 29.58 115.303 29.0188C115.023 28.4575 114.625 28.0251 114.109 27.7217C113.593 27.4107 113.001 27.2552 112.334 27.2552C111.674 27.2552 111.086 27.4107 110.57 27.7217C110.062 28.0251 109.668 28.4575 109.387 29.0188C109.106 29.58 108.97 30.2248 108.977 30.9529C108.977 31.6735 109.118 32.3145 109.398 32.8758C109.687 33.4295 110.081 33.8619 110.582 34.1729C111.09 34.4763 111.674 34.628 112.334 34.628ZM122.312 24.6725H118.853L122.597 37.2109H125.623L128.085 29.2026L130.743 37.2109H133.724L137.479 24.6725H134.35L132.22 32.4769L129.866 24.6725H126.841L124.498 32.6487L122.312 24.6725Z" fill="black"/>
<path d="M38.5693 17.1943L27.0598 39.6943H16.249L21.0658 30.3693H20.8496C16.8759 35.5278 10.9469 38.9237 2.49902 39.6943V30.4985C2.49902 30.4985 7.90334 30.1792 11.0804 26.839H2.49902V17.1945H12.1435V25.127L12.36 25.1261L16.3011 17.1945H23.595V25.0767L23.8114 25.0763L27.9004 17.1943H38.5693ZM101.332 37.2108H104.438V19.3818H101.332V37.2108ZM84.2082 37.0288C84.8832 37.3094 85.5697 37.4498 86.2676 37.4498C87.4205 37.4498 88.4521 37.1692 89.3623 36.6078C90.2725 36.0465 90.978 35.2729 91.4786 34.2868C91.9792 33.2932 92.2295 32.1667 92.2295 30.9075C92.2295 29.6484 91.9716 28.522 91.4558 27.5284C90.94 26.5347 90.2232 25.7648 89.3053 25.2187C88.3876 24.665 87.3446 24.3919 86.1765 24.3995C85.4332 24.3995 84.7202 24.5436 84.0375 24.8319C83.3548 25.1201 82.786 25.5297 82.3308 26.0607C82.2957 26.1011 82.2616 26.1419 82.2285 26.1831V19.3933H79.111V37.2109H82.2057L82.1995 35.5464C82.2795 35.6445 82.3651 35.7404 82.456 35.8342C82.949 36.3424 83.5331 36.7405 84.2082 37.0288ZM87.394 34.1503C86.8857 34.4613 86.3055 34.6168 85.6531 34.6168C85.0083 34.6168 84.4167 34.4574 83.8782 34.1389C83.3396 33.8127 82.9111 33.369 82.5925 32.8077C82.2815 32.2464 82.126 31.6092 82.126 30.8962C82.1185 30.1832 82.2701 29.546 82.5811 28.9847C82.8997 28.4159 83.3282 27.9759 83.8668 27.6649C84.4053 27.3463 85.0008 27.1908 85.6531 27.1984C86.3055 27.1908 86.8857 27.3425 87.394 27.6535C87.9097 27.9569 88.3041 28.3931 88.5772 28.962C88.8578 29.5233 88.9982 30.168 88.9982 30.8962C88.9982 31.6244 88.8578 32.2692 88.5772 32.8304C88.3041 33.3918 87.9097 33.8317 87.394 34.1503ZM43.0691 20.4628H46.619L49.7945 32.0598L53.1726 20.4628H56.1308L59.7945 31.827L62.8437 20.4628H66.0977L61.2963 37.2109H58.2357L54.5102 26.1089L51.0905 37.2109H47.9957L43.0691 20.4628ZM71.3403 37.5066C70.1038 37.5142 68.9888 37.2411 67.9952 36.6875C67.0091 36.1261 66.2317 35.3486 65.6627 34.355C65.1014 33.3614 64.8208 32.2274 64.8208 30.953C64.8208 29.7166 65.1091 28.5978 65.6856 27.5966C66.2619 26.5954 67.0432 25.8141 68.0293 25.2528C69.0154 24.6915 70.1152 24.4108 71.3288 24.4108C72.6942 24.4108 73.8888 24.7142 74.9128 25.321C75.9444 25.9279 76.7143 26.7888 77.2225 27.9038C77.7383 29.0112 77.9242 30.2817 77.7801 31.7154H68.0342C68.0614 32.2865 68.2039 32.8061 68.4617 33.2741C68.7499 33.7899 69.1519 34.1919 69.6677 34.4801C70.1835 34.7684 70.7599 34.9125 71.3972 34.9125C71.8826 34.9049 72.3339 34.8215 72.7511 34.6622C73.1683 34.4954 73.5209 34.2716 73.8092 33.9909C74.105 33.7102 74.3137 33.3917 74.4351 33.0352H77.6891C77.4918 33.9075 77.0974 34.685 76.5058 35.3676C75.914 36.0427 75.1708 36.5699 74.2757 36.9491C73.3807 37.3284 72.4022 37.5142 71.3403 37.5066ZM68.4731 28.5865C68.2913 28.9034 68.1653 29.2447 68.0952 29.6105H74.5555C74.5087 29.1485 74.3661 28.7275 74.1278 28.3475C73.8547 27.9 73.4831 27.5549 73.0128 27.3122C72.5425 27.0618 72.0116 26.9367 71.4199 26.9367C70.7903 26.9367 70.2177 27.0808 69.7018 27.369C69.1861 27.6573 68.7764 28.0631 68.4731 28.5865ZM94.5168 24.6725C94.5168 23.6561 94.748 22.7535 95.2108 21.9646C95.6734 21.1682 96.322 20.55 97.1564 20.1101C97.9983 19.6625 98.9807 19.4312 100.103 19.416V22.1808C99.5798 22.1884 99.1323 22.2984 98.7607 22.5108C98.3965 22.7156 98.1159 23.0152 97.9187 23.4096C97.7372 23.7727 97.6392 24.1937 97.6248 24.6725H100.035V27.3008H97.6229V37.2109H94.5168V27.3008H92.5143V24.6725H94.5168ZM112.334 37.4838C111.067 37.4838 109.933 37.2069 108.932 36.6533C107.938 36.0919 107.157 35.3183 106.588 34.3322C106.027 33.3385 105.746 32.2122 105.746 30.9529C105.746 29.6863 106.027 28.5561 106.588 27.5624C107.157 26.5612 107.938 25.7837 108.932 25.23C109.933 24.6762 111.067 24.3994 112.334 24.3994C113.608 24.3994 114.746 24.6762 115.747 25.23C116.756 25.7837 117.541 26.5574 118.102 27.551C118.664 28.5447 118.948 29.6787 118.956 30.9529C118.948 32.2122 118.664 33.3385 118.102 34.3322C117.549 35.3183 116.767 36.0919 115.758 36.6533C114.75 37.2069 113.608 37.4838 112.334 37.4838ZM112.334 34.628C113.001 34.628 113.593 34.4763 114.109 34.1729C114.625 33.8619 115.023 33.4295 115.303 32.8758C115.584 32.3145 115.724 31.6735 115.724 30.9529C115.724 30.2248 115.584 29.58 115.303 29.0188C115.023 28.4575 114.625 28.0251 114.109 27.7217C113.593 27.4107 113.001 27.2552 112.334 27.2552C111.674 27.2552 111.086 27.4107 110.57 27.7217C110.062 28.0251 109.668 28.4575 109.387 29.0188C109.106 29.58 108.97 30.2248 108.977 30.9529C108.977 31.6735 109.118 32.3145 109.398 32.8758C109.687 33.4295 110.081 33.8619 110.582 34.1729C111.09 34.4763 111.674 34.628 112.334 34.628ZM122.312 24.6725H118.853L122.597 37.2109H125.623L128.085 29.2026L130.743 37.2109H133.724L137.479 24.6725H134.35L132.22 32.4769L129.866 24.6725H126.841L124.498 32.6487L122.312 24.6725Z" fill="black"/>
<path fill-rule="evenodd" clip-rule="evenodd" d="M38.5693 17.1943L27.0598 39.6943H16.249L21.0658 30.3693H20.8496C16.8759 35.5278 10.9469 38.9237 2.49902 39.6943V30.4985C2.49902 30.4985 7.90334 30.1792 11.0804 26.839H2.49902V17.1945H12.1435V25.127L12.36 25.1261L16.3011 17.1945H23.595V25.0767L23.8114 25.0763L27.9004 17.1943H38.5693ZM101.332 37.2108H104.438V19.3818H101.332V37.2108ZM84.2082 37.0288C84.8832 37.3094 85.5697 37.4498 86.2676 37.4498C87.4205 37.4498 88.4521 37.1692 89.3623 36.6078C90.2725 36.0465 90.978 35.2729 91.4786 34.2868C91.9792 33.2932 92.2295 32.1667 92.2295 30.9075C92.2295 29.6484 91.9716 28.522 91.4558 27.5284C90.94 26.5347 90.2232 25.7648 89.3053 25.2187C88.3876 24.665 87.3446 24.3919 86.1765 24.3995C85.4332 24.3995 84.7202 24.5436 84.0375 24.8319C83.3548 25.1201 82.786 25.5297 82.3308 26.0607C82.2957 26.1011 82.2616 26.1419 82.2285 26.1831V19.3933H79.111V37.2109H82.2057L82.1995 35.5464C82.2795 35.6445 82.3651 35.7404 82.456 35.8342C82.949 36.3424 83.5331 36.7405 84.2082 37.0288ZM87.394 34.1503C86.8857 34.4613 86.3055 34.6168 85.6531 34.6168C85.0083 34.6168 84.4167 34.4574 83.8782 34.1389C83.3396 33.8127 82.9111 33.369 82.5925 32.8077C82.2815 32.2464 82.126 31.6092 82.126 30.8962C82.1185 30.1832 82.2701 29.546 82.5811 28.9847C82.8997 28.4159 83.3282 27.9759 83.8668 27.6649C84.4053 27.3463 85.0008 27.1908 85.6531 27.1984C86.3055 27.1908 86.8857 27.3425 87.394 27.6535C87.9097 27.9569 88.3041 28.3931 88.5772 28.962C88.8578 29.5233 88.9982 30.168 88.9982 30.8962C88.9982 31.6244 88.8578 32.2692 88.5772 32.8304C88.3041 33.3918 87.9097 33.8317 87.394 34.1503ZM43.0691 20.4628H46.619L49.7945 32.0598L53.1726 20.4628H56.1308L59.7945 31.827L62.8437 20.4628H66.0977L61.2963 37.2109H58.2357L54.5102 26.1089L51.0905 37.2109H47.9957L43.0691 20.4628ZM71.3403 37.5066C70.1038 37.5142 68.9888 37.2411 67.9952 36.6875C67.0091 36.1261 66.2317 35.3486 65.6627 34.355C65.1014 33.3614 64.8208 32.2274 64.8208 30.953C64.8208 29.7166 65.1091 28.5978 65.6856 27.5966C66.2619 26.5954 67.0432 25.8141 68.0293 25.2528C69.0154 24.6915 70.1152 24.4108 71.3288 24.4108C72.6942 24.4108 73.8888 24.7142 74.9128 25.321C75.9444 25.9279 76.7143 26.7888 77.2225 27.9038C77.7383 29.0112 77.9242 30.2817 77.7801 31.7154H68.0342C68.0614 32.2865 68.2039 32.8061 68.4617 33.2741C68.7499 33.7899 69.1519 34.1919 69.6677 34.4801C70.1835 34.7684 70.7599 34.9125 71.3972 34.9125C71.8826 34.9049 72.3339 34.8215 72.7511 34.6622C73.1683 34.4954 73.5209 34.2716 73.8092 33.9909C74.105 33.7102 74.3137 33.3917 74.4351 33.0352H77.6891C77.4918 33.9075 77.0974 34.685 76.5058 35.3676C75.914 36.0427 75.1708 36.5699 74.2757 36.9491C73.3807 37.3284 72.4022 37.5142 71.3403 37.5066ZM68.4731 28.5865C68.2913 28.9034 68.1653 29.2447 68.0952 29.6105H74.5555C74.5087 29.1485 74.3661 28.7275 74.1278 28.3475C73.8547 27.9 73.4831 27.5549 73.0128 27.3122C72.5425 27.0618 72.0116 26.9367 71.4199 26.9367C70.7903 26.9367 70.2177 27.0808 69.7018 27.369C69.1861 27.6573 68.7764 28.0631 68.4731 28.5865ZM94.5168 24.6725C94.5168 23.6561 94.748 22.7535 95.2108 21.9646C95.6734 21.1682 96.322 20.55 97.1564 20.1101C97.9983 19.6625 98.9807 19.4312 100.103 19.416V22.1808C99.5798 22.1884 99.1323 22.2984 98.7607 22.5108C98.3965 22.7156 98.1159 23.0152 97.9187 23.4096C97.7372 23.7727 97.6392 24.1937 97.6248 24.6725H100.035V27.3008H97.6229V37.2109H94.5168V27.3008H92.5143V24.6725H94.5168ZM112.334 37.4838C111.067 37.4838 109.933 37.2069 108.932 36.6533C107.938 36.0919 107.157 35.3183 106.588 34.3322C106.027 33.3385 105.746 32.2122 105.746 30.9529C105.746 29.6863 106.027 28.5561 106.588 27.5624C107.157 26.5612 107.938 25.7837 108.932 25.23C109.933 24.6762 111.067 24.3994 112.334 24.3994C113.608 24.3994 114.746 24.6762 115.747 25.23C116.756 25.7837 117.541 26.5574 118.102 27.551C118.664 28.5447 118.948 29.6787 118.956 30.9529C118.948 32.2122 118.664 33.3385 118.102 34.3322C117.549 35.3183 116.767 36.0919 115.758 36.6533C114.75 37.2069 113.608 37.4838 112.334 37.4838ZM112.334 34.628C113.001 34.628 113.593 34.4763 114.109 34.1729C114.625 33.8619 115.023 33.4295 115.303 32.8758C115.584 32.3145 115.724 31.6735 115.724 30.9529C115.724 30.2248 115.584 29.58 115.303 29.0188C115.023 28.4575 114.625 28.0251 114.109 27.7217C113.593 27.4107 113.001 27.2552 112.334 27.2552C111.674 27.2552 111.086 27.4107 110.57 27.7217C110.062 28.0251 109.668 28.4575 109.387 29.0188C109.106 29.58 108.97 30.2248 108.977 30.9529C108.977 31.6735 109.118 32.3145 109.398 32.8758C109.687 33.4295 110.081 33.8619 110.582 34.1729C111.09 34.4763 111.674 34.628 112.334 34.628ZM122.312 24.6725H118.853L122.597 37.2109H125.623L128.085 29.2026L130.743 37.2109H133.724L137.479 24.6725H134.35L132.22 32.4769L129.866 24.6725H126.841L124.498 32.6487L122.312 24.6725Z" fill="black"/>
<path d="M38.5693 17.1943L27.0598 39.6943H16.249L21.0658 30.3693H20.8496C16.8759 35.5278 10.9469 38.9237 2.49902 39.6943V30.4985C2.49902 30.4985 7.90334 30.1792 11.0804 26.839H2.49902V17.1945H12.1435V25.127L12.36 25.1261L16.3011 17.1945H23.595V25.0767L23.8114 25.0763L27.9004 17.1943H38.5693ZM101.332 37.2108H104.438V19.3818H101.332V37.2108ZM84.2082 37.0288C84.8832 37.3094 85.5697 37.4498 86.2676 37.4498C87.4205 37.4498 88.4521 37.1692 89.3623 36.6078C90.2725 36.0465 90.978 35.2729 91.4786 34.2868C91.9792 33.2932 92.2295 32.1667 92.2295 30.9075C92.2295 29.6484 91.9716 28.522 91.4558 27.5284C90.94 26.5347 90.2232 25.7648 89.3053 25.2187C88.3876 24.665 87.3446 24.3919 86.1765 24.3995C85.4332 24.3995 84.7202 24.5436 84.0375 24.8319C83.3548 25.1201 82.786 25.5297 82.3308 26.0607C82.2957 26.1011 82.2616 26.1419 82.2285 26.1831V19.3933H79.111V37.2109H82.2057L82.1995 35.5464C82.2795 35.6445 82.3651 35.7404 82.456 35.8342C82.949 36.3424 83.5331 36.7405 84.2082 37.0288ZM87.394 34.1503C86.8857 34.4613 86.3055 34.6168 85.6531 34.6168C85.0083 34.6168 84.4167 34.4574 83.8782 34.1389C83.3396 33.8127 82.9111 33.369 82.5925 32.8077C82.2815 32.2464 82.126 31.6092 82.126 30.8962C82.1185 30.1832 82.2701 29.546 82.5811 28.9847C82.8997 28.4159 83.3282 27.9759 83.8668 27.6649C84.4053 27.3463 85.0008 27.1908 85.6531 27.1984C86.3055 27.1908 86.8857 27.3425 87.394 27.6535C87.9097 27.9569 88.3041 28.3931 88.5772 28.962C88.8578 29.5233 88.9982 30.168 88.9982 30.8962C88.9982 31.6244 88.8578 32.2692 88.5772 32.8304C88.3041 33.3918 87.9097 33.8317 87.394 34.1503ZM43.0691 20.4628H46.619L49.7945 32.0598L53.1726 20.4628H56.1308L59.7945 31.827L62.8437 20.4628H66.0977L61.2963 37.2109H58.2357L54.5102 26.1089L51.0905 37.2109H47.9957L43.0691 20.4628ZM71.3403 37.5066C70.1038 37.5142 68.9888 37.2411 67.9952 36.6875C67.0091 36.1261 66.2317 35.3486 65.6627 34.355C65.1014 33.3614 64.8208 32.2274 64.8208 30.953C64.8208 29.7166 65.1091 28.5978 65.6856 27.5966C66.2619 26.5954 67.0432 25.8141 68.0293 25.2528C69.0154 24.6915 70.1152 24.4108 71.3288 24.4108C72.6942 24.4108 73.8888 24.7142 74.9128 25.321C75.9444 25.9279 76.7143 26.7888 77.2225 27.9038C77.7383 29.0112 77.9242 30.2817 77.7801 31.7154H68.0342C68.0614 32.2865 68.2039 32.8061 68.4617 33.2741C68.7499 33.7899 69.1519 34.1919 69.6677 34.4801C70.1835 34.7684 70.7599 34.9125 71.3972 34.9125C71.8826 34.9049 72.3339 34.8215 72.7511 34.6622C73.1683 34.4954 73.5209 34.2716 73.8092 33.9909C74.105 33.7102 74.3137 33.3917 74.4351 33.0352H77.6891C77.4918 33.9075 77.0974 34.685 76.5058 35.3676C75.914 36.0427 75.1708 36.5699 74.2757 36.9491C73.3807 37.3284 72.4022 37.5142 71.3403 37.5066ZM68.4731 28.5865C68.2913 28.9034 68.1653 29.2447 68.0952 29.6105H74.5555C74.5087 29.1485 74.3661 28.7275 74.1278 28.3475C73.8547 27.9 73.4831 27.5549 73.0128 27.3122C72.5425 27.0618 72.0116 26.9367 71.4199 26.9367C70.7903 26.9367 70.2177 27.0808 69.7018 27.369C69.1861 27.6573 68.7764 28.0631 68.4731 28.5865ZM94.5168 24.6725C94.5168 23.6561 94.748 22.7535 95.2108 21.9646C95.6734 21.1682 96.322 20.55 97.1564 20.1101C97.9983 19.6625 98.9807 19.4312 100.103 19.416V22.1808C99.5798 22.1884 99.1323 22.2984 98.7607 22.5108C98.3965 22.7156 98.1159 23.0152 97.9187 23.4096C97.7372 23.7727 97.6392 24.1937 97.6248 24.6725H100.035V27.3008H97.6229V37.2109H94.5168V27.3008H92.5143V24.6725H94.5168ZM112.334 37.4838C111.067 37.4838 109.933 37.2069 108.932 36.6533C107.938 36.0919 107.157 35.3183 106.588 34.3322C106.027 33.3385 105.746 32.2122 105.746 30.9529C105.746 29.6863 106.027 28.5561 106.588 27.5624C107.157 26.5612 107.938 25.7837 108.932 25.23C109.933 24.6762 111.067 24.3994 112.334 24.3994C113.608 24.3994 114.746 24.6762 115.747 25.23C116.756 25.7837 117.541 26.5574 118.102 27.551C118.664 28.5447 118.948 29.6787 118.956 30.9529C118.948 32.2122 118.664 33.3385 118.102 34.3322C117.549 35.3183 116.767 36.0919 115.758 36.6533C114.75 37.2069 113.608 37.4838 112.334 37.4838ZM112.334 34.628C113.001 34.628 113.593 34.4763 114.109 34.1729C114.625 33.8619 115.023 33.4295 115.303 32.8758C115.584 32.3145 115.724 31.6735 115.724 30.9529C115.724 30.2248 115.584 29.58 115.303 29.0188C115.023 28.4575 114.625 28.0251 114.109 27.7217C113.593 27.4107 113.001 27.2552 112.334 27.2552C111.674 27.2552 111.086 27.4107 110.57 27.7217C110.062 28.0251 109.668 28.4575 109.387 29.0188C109.106 29.58 108.97 30.2248 108.977 30.9529C108.977 31.6735 109.118 32.3145 109.398 32.8758C109.687 33.4295 110.081 33.8619 110.582 34.1729C111.09 34.4763 111.674 34.628 112.334 34.628ZM122.312 24.6725H118.853L122.597 37.2109H125.623L128.085 29.2026L130.743 37.2109H133.724L137.479 24.6725H134.35L132.22 32.4769L129.866 24.6725H126.841L124.498 32.6487L122.312 24.6725Z" fill="black"/>
<path fill-rule="evenodd" clip-rule="evenodd" d="M38.5693 17.1943L27.0598 39.6943H16.249L21.0658 30.3693H20.8496C16.8759 35.5278 10.9469 38.9237 2.49902 39.6943V30.4985C2.49902 30.4985 7.90334 30.1792 11.0804 26.839H2.49902V17.1945H12.1435V25.127L12.36 25.1261L16.3011 17.1945H23.595V25.0767L23.8114 25.0763L27.9004 17.1943H38.5693ZM101.332 37.2108H104.438V19.3818H101.332V37.2108ZM84.2082 37.0288C84.8832 37.3094 85.5697 37.4498 86.2676 37.4498C87.4205 37.4498 88.4521 37.1692 89.3623 36.6078C90.2725 36.0465 90.978 35.2729 91.4786 34.2868C91.9792 33.2932 92.2295 32.1667 92.2295 30.9075C92.2295 29.6484 91.9716 28.522 91.4558 27.5284C90.94 26.5347 90.2232 25.7648 89.3053 25.2187C88.3876 24.665 87.3446 24.3919 86.1765 24.3995C85.4332 24.3995 84.7202 24.5436 84.0375 24.8319C83.3548 25.1201 82.786 25.5297 82.3308 26.0607C82.2957 26.1011 82.2616 26.1419 82.2285 26.1831V19.3933H79.111V37.2109H82.2057L82.1995 35.5464C82.2795 35.6445 82.3651 35.7404 82.456 35.8342C82.949 36.3424 83.5331 36.7405 84.2082 37.0288ZM87.394 34.1503C86.8857 34.4613 86.3055 34.6168 85.6531 34.6168C85.0083 34.6168 84.4167 34.4574 83.8782 34.1389C83.3396 33.8127 82.9111 33.369 82.5925 32.8077C82.2815 32.2464 82.126 31.6092 82.126 30.8962C82.1185 30.1832 82.2701 29.546 82.5811 28.9847C82.8997 28.4159 83.3282 27.9759 83.8668 27.6649C84.4053 27.3463 85.0008 27.1908 85.6531 27.1984C86.3055 27.1908 86.8857 27.3425 87.394 27.6535C87.9097 27.9569 88.3041 28.3931 88.5772 28.962C88.8578 29.5233 88.9982 30.168 88.9982 30.8962C88.9982 31.6244 88.8578 32.2692 88.5772 32.8304C88.3041 33.3918 87.9097 33.8317 87.394 34.1503ZM43.0691 20.4628H46.619L49.7945 32.0598L53.1726 20.4628H56.1308L59.7945 31.827L62.8437 20.4628H66.0977L61.2963 37.2109H58.2357L54.5102 26.1089L51.0905 37.2109H47.9957L43.0691 20.4628ZM71.3403 37.5066C70.1038 37.5142 68.9888 37.2411 67.9952 36.6875C67.0091 36.1261 66.2317 35.3486 65.6627 34.355C65.1014 33.3614 64.8208 32.2274 64.8208 30.953C64.8208 29.7166 65.1091 28.5978 65.6856 27.5966C66.2619 26.5954 67.0432 25.8141 68.0293 25.2528C69.0154 24.6915 70.1152 24.4108 71.3288 24.4108C72.6942 24.4108 73.8888 24.7142 74.9128 25.321C75.9444 25.9279 76.7143 26.7888 77.2225 27.9038C77.7383 29.0112 77.9242 30.2817 77.7801 31.7154H68.0342C68.0614 32.2865 68.2039 32.8061 68.4617 33.2741C68.7499 33.7899 69.1519 34.1919 69.6677 34.4801C70.1835 34.7684 70.7599 34.9125 71.3972 34.9125C71.8826 34.9049 72.3339 34.8215 72.7511 34.6622C73.1683 34.4954 73.5209 34.2716 73.8092 33.9909C74.105 33.7102 74.3137 33.3917 74.4351 33.0352H77.6891C77.4918 33.9075 77.0974 34.685 76.5058 35.3676C75.914 36.0427 75.1708 36.5699 74.2757 36.9491C73.3807 37.3284 72.4022 37.5142 71.3403 37.5066ZM68.4731 28.5865C68.2913 28.9034 68.1653 29.2447 68.0952 29.6105H74.5555C74.5087 29.1485 74.3661 28.7275 74.1278 28.3475C73.8547 27.9 73.4831 27.5549 73.0128 27.3122C72.5425 27.0618 72.0116 26.9367 71.4199 26.9367C70.7903 26.9367 70.2177 27.0808 69.7018 27.369C69.1861 27.6573 68.7764 28.0631 68.4731 28.5865ZM94.5168 24.6725C94.5168 23.6561 94.748 22.7535 95.2108 21.9646C95.6734 21.1682 96.322 20.55 97.1564 20.1101C97.9983 19.6625 98.9807 19.4312 100.103 19.416V22.1808C99.5798 22.1884 99.1323 22.2984 98.7607 22.5108C98.3965 22.7156 98.1159 23.0152 97.9187 23.4096C97.7372 23.7727 97.6392 24.1937 97.6248 24.6725H100.035V27.3008H97.6229V37.2109H94.5168V27.3008H92.5143V24.6725H94.5168ZM112.334 37.4838C111.067 37.4838 109.933 37.2069 108.932 36.6533C107.938 36.0919 107.157 35.3183 106.588 34.3322C106.027 33.3385 105.746 32.2122 105.746 30.9529C105.746 29.6863 106.027 28.5561 106.588 27.5624C107.157 26.5612 107.938 25.7837 108.932 25.23C109.933 24.6762 111.067 24.3994 112.334 24.3994C113.608 24.3994 114.746 24.6762 115.747 25.23C116.756 25.7837 117.541 26.5574 118.102 27.551C118.664 28.5447 118.948 29.6787 118.956 30.9529C118.948 32.2122 118.664 33.3385 118.102 34.3322C117.549 35.3183 116.767 36.0919 115.758 36.6533C114.75 37.2069 113.608 37.4838 112.334 37.4838ZM112.334 34.628C113.001 34.628 113.593 34.4763 114.109 34.1729C114.625 33.8619 115.023 33.4295 115.303 32.8758C115.584 32.3145 115.724 31.6735 115.724 30.9529C115.724 30.2248 115.584 29.58 115.303 29.0188C115.023 28.4575 114.625 28.0251 114.109 27.7217C113.593 27.4107 113.001 27.2552 112.334 27.2552C111.674 27.2552 111.086 27.4107 110.57 27.7217C110.062 28.0251 109.668 28.4575 109.387 29.0188C109.106 29.58 108.97 30.2248 108.977 30.9529C108.977 31.6735 109.118 32.3145 109.398 32.8758C109.687 33.4295 110.081 33.8619 110.582 34.1729C111.09 34.4763 111.674 34.628 112.334 34.628ZM122.312 24.6725H118.853L122.597 37.2109H125.623L128.085 29.2026L130.743 37.2109H133.724L137.479 24.6725H134.35L132.22 32.4769L129.866 24.6725H126.841L124.498 32.6487L122.312 24.6725Z" fill="black"/>
<path d="M38.5693 17.1943L27.0598 39.6943H16.249L21.0658 30.3693H20.8496C16.8759 35.5278 10.9469 38.9237 2.49902 39.6943V30.4985C2.49902 30.4985 7.90334 30.1792 11.0804 26.839H2.49902V17.1945H12.1435V25.127L12.36 25.1261L16.3011 17.1945H23.595V25.0767L23.8114 25.0763L27.9004 17.1943H38.5693ZM101.332 37.2108H104.438V19.3818H101.332V37.2108ZM84.2082 37.0288C84.8832 37.3094 85.5697 37.4498 86.2676 37.4498C87.4205 37.4498 88.4521 37.1692 89.3623 36.6078C90.2725 36.0465 90.978 35.2729 91.4786 34.2868C91.9792 33.2932 92.2295 32.1667 92.2295 30.9075C92.2295 29.6484 91.9716 28.522 91.4558 27.5284C90.94 26.5347 90.2232 25.7648 89.3053 25.2187C88.3876 24.665 87.3446 24.3919 86.1765 24.3995C85.4332 24.3995 84.7202 24.5436 84.0375 24.8319C83.3548 25.1201 82.786 25.5297 82.3308 26.0607C82.2957 26.1011 82.2616 26.1419 82.2285 26.1831V19.3933H79.111V37.2109H82.2057L82.1995 35.5464C82.2795 35.6445 82.3651 35.7404 82.456 35.8342C82.949 36.3424 83.5331 36.7405 84.2082 37.0288ZM87.394 34.1503C86.8857 34.4613 86.3055 34.6168 85.6531 34.6168C85.0083 34.6168 84.4167 34.4574 83.8782 34.1389C83.3396 33.8127 82.9111 33.369 82.5925 32.8077C82.2815 32.2464 82.126 31.6092 82.126 30.8962C82.1185 30.1832 82.2701 29.546 82.5811 28.9847C82.8997 28.4159 83.3282 27.9759 83.8668 27.6649C84.4053 27.3463 85.0008 27.1908 85.6531 27.1984C86.3055 27.1908 86.8857 27.3425 87.394 27.6535C87.9097 27.9569 88.3041 28.3931 88.5772 28.962C88.8578 29.5233 88.9982 30.168 88.9982 30.8962C88.9982 31.6244 88.8578 32.2692 88.5772 32.8304C88.3041 33.3918 87.9097 33.8317 87.394 34.1503ZM43.0691 20.4628H46.619L49.7945 32.0598L53.1726 20.4628H56.1308L59.7945 31.827L62.8437 20.4628H66.0977L61.2963 37.2109H58.2357L54.5102 26.1089L51.0905 37.2109H47.9957L43.0691 20.4628ZM71.3403 37.5066C70.1038 37.5142 68.9888 37.2411 67.9952 36.6875C67.0091 36.1261 66.2317 35.3486 65.6627 34.355C65.1014 33.3614 64.8208 32.2274 64.8208 30.953C64.8208 29.7166 65.1091 28.5978 65.6856 27.5966C66.2619 26.5954 67.0432 25.8141 68.0293 25.2528C69.0154 24.6915 70.1152 24.4108 71.3288 24.4108C72.6942 24.4108 73.8888 24.7142 74.9128 25.321C75.9444 25.9279 76.7143 26.7888 77.2225 27.9038C77.7383 29.0112 77.9242 30.2817 77.7801 31.7154H68.0342C68.0614 32.2865 68.2039 32.8061 68.4617 33.2741C68.7499 33.7899 69.1519 34.1919 69.6677 34.4801C70.1835 34.7684 70.7599 34.9125 71.3972 34.9125C71.8826 34.9049 72.3339 34.8215 72.7511 34.6622C73.1683 34.4954 73.5209 34.2716 73.8092 33.9909C74.105 33.7102 74.3137 33.3917 74.4351 33.0352H77.6891C77.4918 33.9075 77.0974 34.685 76.5058 35.3676C75.914 36.0427 75.1708 36.5699 74.2757 36.9491C73.3807 37.3284 72.4022 37.5142 71.3403 37.5066ZM68.4731 28.5865C68.2913 28.9034 68.1653 29.2447 68.0952 29.6105H74.5555C74.5087 29.1485 74.3661 28.7275 74.1278 28.3475C73.8547 27.9 73.4831 27.5549 73.0128 27.3122C72.5425 27.0618 72.0116 26.9367 71.4199 26.9367C70.7903 26.9367 70.2177 27.0808 69.7018 27.369C69.1861 27.6573 68.7764 28.0631 68.4731 28.5865ZM94.5168 24.6725C94.5168 23.6561 94.748 22.7535 95.2108 21.9646C95.6734 21.1682 96.322 20.55 97.1564 20.1101C97.9983 19.6625 98.9807 19.4312 100.103 19.416V22.1808C99.5798 22.1884 99.1323 22.2984 98.7607 22.5108C98.3965 22.7156 98.1159 23.0152 97.9187 23.4096C97.7372 23.7727 97.6392 24.1937 97.6248 24.6725H100.035V27.3008H97.6229V37.2109H94.5168V27.3008H92.5143V24.6725H94.5168ZM112.334 37.4838C111.067 37.4838 109.933 37.2069 108.932 36.6533C107.938 36.0919 107.157 35.3183 106.588 34.3322C106.027 33.3385 105.746 32.2122 105.746 30.9529C105.746 29.6863 106.027 28.5561 106.588 27.5624C107.157 26.5612 107.938 25.7837 108.932 25.23C109.933 24.6762 111.067 24.3994 112.334 24.3994C113.608 24.3994 114.746 24.6762 115.747 25.23C116.756 25.7837 117.541 26.5574 118.102 27.551C118.664 28.5447 118.948 29.6787 118.956 30.9529C118.948 32.2122 118.664 33.3385 118.102 34.3322C117.549 35.3183 116.767 36.0919 115.758 36.6533C114.75 37.2069 113.608 37.4838 112.334 37.4838ZM112.334 34.628C113.001 34.628 113.593 34.4763 114.109 34.1729C114.625 33.8619 115.023 33.4295 115.303 32.8758C115.584 32.3145 115.724 31.6735 115.724 30.9529C115.724 30.2248 115.584 29.58 115.303 29.0188C115.023 28.4575 114.625 28.0251 114.109 27.7217C113.593 27.4107 113.001 27.2552 112.334 27.2552C111.674 27.2552 111.086 27.4107 110.57 27.7217C110.062 28.0251 109.668 28.4575 109.387 29.0188C109.106 29.58 108.97 30.2248 108.977 30.9529C108.977 31.6735 109.118 32.3145 109.398 32.8758C109.687 33.4295 110.081 33.8619 110.582 34.1729C111.09 34.4763 111.674 34.628 112.334 34.628ZM122.312 24.6725H118.853L122.597 37.2109H125.623L128.085 29.2026L130.743 37.2109H133.724L137.479 24.6725H134.35L132.22 32.4769L129.866 24.6725H126.841L124.498 32.6487L122.312 24.6725Z" fill="black"/>
<path fill-rule="evenodd" clip-rule="evenodd" d="M38.5693 17.1943L27.0598 39.6943H16.249L21.0658 30.3693H20.8496C16.8759 35.5278 10.9469 38.9237 2.49902 39.6943V30.4985C2.49902 30.4985 7.90334 30.1792 11.0804 26.839H2.49902V17.1945H12.1435V25.127L12.36 25.1261L16.3011 17.1945H23.595V25.0767L23.8114 25.0763L27.9004 17.1943H38.5693ZM101.332 37.2108H104.438V19.3818H101.332V37.2108ZM84.2082 37.0288C84.8832 37.3094 85.5697 37.4498 86.2676 37.4498C87.4205 37.4498 88.4521 37.1692 89.3623 36.6078C90.2725 36.0465 90.978 35.2729 91.4786 34.2868C91.9792 33.2932 92.2295 32.1667 92.2295 30.9075C92.2295 29.6484 91.9716 28.522 91.4558 27.5284C90.94 26.5347 90.2232 25.7648 89.3053 25.2187C88.3876 24.665 87.3446 24.3919 86.1765 24.3995C85.4332 24.3995 84.7202 24.5436 84.0375 24.8319C83.3548 25.1201 82.786 25.5297 82.3308 26.0607C82.2957 26.1011 82.2616 26.1419 82.2285 26.1831V19.3933H79.111V37.2109H82.2057L82.1995 35.5464C82.2795 35.6445 82.3651 35.7404 82.456 35.8342C82.949 36.3424 83.5331 36.7405 84.2082 37.0288ZM87.394 34.1503C86.8857 34.4613 86.3055 34.6168 85.6531 34.6168C85.0083 34.6168 84.4167 34.4574 83.8782 34.1389C83.3396 33.8127 82.9111 33.369 82.5925 32.8077C82.2815 32.2464 82.126 31.6092 82.126 30.8962C82.1185 30.1832 82.2701 29.546 82.5811 28.9847C82.8997 28.4159 83.3282 27.9759 83.8668 27.6649C84.4053 27.3463 85.0008 27.1908 85.6531 27.1984C86.3055 27.1908 86.8857 27.3425 87.394 27.6535C87.9097 27.9569 88.3041 28.3931 88.5772 28.962C88.8578 29.5233 88.9982 30.168 88.9982 30.8962C88.9982 31.6244 88.8578 32.2692 88.5772 32.8304C88.3041 33.3918 87.9097 33.8317 87.394 34.1503ZM43.0691 20.4628H46.619L49.7945 32.0598L53.1726 20.4628H56.1308L59.7945 31.827L62.8437 20.4628H66.0977L61.2963 37.2109H58.2357L54.5102 26.1089L51.0905 37.2109H47.9957L43.0691 20.4628ZM71.3403 37.5066C70.1038 37.5142 68.9888 37.2411 67.9952 36.6875C67.0091 36.1261 66.2317 35.3486 65.6627 34.355C65.1014 33.3614 64.8208 32.2274 64.8208 30.953C64.8208 29.7166 65.1091 28.5978 65.6856 27.5966C66.2619 26.5954 67.0432 25.8141 68.0293 25.2528C69.0154 24.6915 70.1152 24.4108 71.3288 24.4108C72.6942 24.4108 73.8888 24.7142 74.9128 25.321C75.9444 25.9279 76.7143 26.7888 77.2225 27.9038C77.7383 29.0112 77.9242 30.2817 77.7801 31.7154H68.0342C68.0614 32.2865 68.2039 32.8061 68.4617 33.2741C68.7499 33.7899 69.1519 34.1919 69.6677 34.4801C70.1835 34.7684 70.7599 34.9125 71.3972 34.9125C71.8826 34.9049 72.3339 34.8215 72.7511 34.6622C73.1683 34.4954 73.5209 34.2716 73.8092 33.9909C74.105 33.7102 74.3137 33.3917 74.4351 33.0352H77.6891C77.4918 33.9075 77.0974 34.685 76.5058 35.3676C75.914 36.0427 75.1708 36.5699 74.2757 36.9491C73.3807 37.3284 72.4022 37.5142 71.3403 37.5066ZM68.4731 28.5865C68.2913 28.9034 68.1653 29.2447 68.0952 29.6105H74.5555C74.5087 29.1485 74.3661 28.7275 74.1278 28.3475C73.8547 27.9 73.4831 27.5549 73.0128 27.3122C72.5425 27.0618 72.0116 26.9367 71.4199 26.9367C70.7903 26.9367 70.2177 27.0808 69.7018 27.369C69.1861 27.6573 68.7764 28.0631 68.4731 28.5865ZM94.5168 24.6725C94.5168 23.6561 94.748 22.7535 95.2108 21.9646C95.6734 21.1682 96.322 20.55 97.1564 20.1101C97.9983 19.6625 98.9807 19.4312 100.103 19.416V22.1808C99.5798 22.1884 99.1323 22.2984 98.7607 22.5108C98.3965 22.7156 98.1159 23.0152 97.9187 23.4096C97.7372 23.7727 97.6392 24.1937 97.6248 24.6725H100.035V27.3008H97.6229V37.2109H94.5168V27.3008H92.5143V24.6725H94.5168ZM112.334 37.4838C111.067 37.4838 109.933 37.2069 108.932 36.6533C107.938 36.0919 107.157 35.3183 106.588 34.3322C106.027 33.3385 105.746 32.2122 105.746 30.9529C105.746 29.6863 106.027 28.5561 106.588 27.5624C107.157 26.5612 107.938 25.7837 108.932 25.23C109.933 24.6762 111.067 24.3994 112.334 24.3994C113.608 24.3994 114.746 24.6762 115.747 25.23C116.756 25.7837 117.541 26.5574 118.102 27.551C118.664 28.5447 118.948 29.6787 118.956 30.9529C118.948 32.2122 118.664 33.3385 118.102 34.3322C117.549 35.3183 116.767 36.0919 115.758 36.6533C114.75 37.2069 113.608 37.4838 112.334 37.4838ZM112.334 34.628C113.001 34.628 113.593 34.4763 114.109 34.1729C114.625 33.8619 115.023 33.4295 115.303 32.8758C115.584 32.3145 115.724 31.6735 115.724 30.9529C115.724 30.2248 115.584 29.58 115.303 29.0188C115.023 28.4575 114.625 28.0251 114.109 27.7217C113.593 27.4107 113.001 27.2552 112.334 27.2552C111.674 27.2552 111.086 27.4107 110.57 27.7217C110.062 28.0251 109.668 28.4575 109.387 29.0188C109.106 29.58 108.97 30.2248 108.977 30.9529C108.977 31.6735 109.118 32.3145 109.398 32.8758C109.687 33.4295 110.081 33.8619 110.582 34.1729C111.09 34.4763 111.674 34.628 112.334 34.628ZM122.312 24.6725H118.853L122.597 37.2109H125.623L128.085 29.2026L130.743 37.2109H133.724L137.479 24.6725H134.35L132.22 32.4769L129.866 24.6725H126.841L124.498 32.6487L122.312 24.6725Z" fill="black"/>
<path d="M38.5693 17.1943L27.0598 39.6943H16.249L21.0658 30.3693H20.8496C16.8759 35.5278 10.9469 38.9237 2.49902 39.6943V30.4985C2.49902 30.4985 7.90334 30.1792 11.0804 26.839H2.49902V17.1945H12.1435V25.127L12.36 25.1261L16.3011 17.1945H23.595V25.0767L23.8114 25.0763L27.9004 17.1943H38.5693ZM101.332 37.2108H104.438V19.3818H101.332V37.2108ZM84.2082 37.0288C84.8832 37.3094 85.5697 37.4498 86.2676 37.4498C87.4205 37.4498 88.4521 37.1692 89.3623 36.6078C90.2725 36.0465 90.978 35.2729 91.4786 34.2868C91.9792 33.2932 92.2295 32.1667 92.2295 30.9075C92.2295 29.6484 91.9716 28.522 91.4558 27.5284C90.94 26.5347 90.2232 25.7648 89.3053 25.2187C88.3876 24.665 87.3446 24.3919 86.1765 24.3995C85.4332 24.3995 84.7202 24.5436 84.0375 24.8319C83.3548 25.1201 82.786 25.5297 82.3308 26.0607C82.2957 26.1011 82.2616 26.1419 82.2285 26.1831V19.3933H79.111V37.2109H82.2057L82.1995 35.5464C82.2795 35.6445 82.3651 35.7404 82.456 35.8342C82.949 36.3424 83.5331 36.7405 84.2082 37.0288ZM87.394 34.1503C86.8857 34.4613 86.3055 34.6168 85.6531 34.6168C85.0083 34.6168 84.4167 34.4574 83.8782 34.1389C83.3396 33.8127 82.9111 33.369 82.5925 32.8077C82.2815 32.2464 82.126 31.6092 82.126 30.8962C82.1185 30.1832 82.2701 29.546 82.5811 28.9847C82.8997 28.4159 83.3282 27.9759 83.8668 27.6649C84.4053 27.3463 85.0008 27.1908 85.6531 27.1984C86.3055 27.1908 86.8857 27.3425 87.394 27.6535C87.9097 27.9569 88.3041 28.3931 88.5772 28.962C88.8578 29.5233 88.9982 30.168 88.9982 30.8962C88.9982 31.6244 88.8578 32.2692 88.5772 32.8304C88.3041 33.3918 87.9097 33.8317 87.394 34.1503ZM43.0691 20.4628H46.619L49.7945 32.0598L53.1726 20.4628H56.1308L59.7945 31.827L62.8437 20.4628H66.0977L61.2963 37.2109H58.2357L54.5102 26.1089L51.0905 37.2109H47.9957L43.0691 20.4628ZM71.3403 37.5066C70.1038 37.5142 68.9888 37.2411 67.9952 36.6875C67.0091 36.1261 66.2317 35.3486 65.6627 34.355C65.1014 33.3614 64.8208 32.2274 64.8208 30.953C64.8208 29.7166 65.1091 28.5978 65.6856 27.5966C66.2619 26.5954 67.0432 25.8141 68.0293 25.2528C69.0154 24.6915 70.1152 24.4108 71.3288 24.4108C72.6942 24.4108 73.8888 24.7142 74.9128 25.321C75.9444 25.9279 76.7143 26.7888 77.2225 27.9038C77.7383 29.0112 77.9242 30.2817 77.7801 31.7154H68.0342C68.0614 32.2865 68.2039 32.8061 68.4617 33.2741C68.7499 33.7899 69.1519 34.1919 69.6677 34.4801C70.1835 34.7684 70.7599 34.9125 71.3972 34.9125C71.8826 34.9049 72.3339 34.8215 72.7511 34.6622C73.1683 34.4954 73.5209 34.2716 73.8092 33.9909C74.105 33.7102 74.3137 33.3917 74.4351 33.0352H77.6891C77.4918 33.9075 77.0974 34.685 76.5058 35.3676C75.914 36.0427 75.1708 36.5699 74.2757 36.9491C73.3807 37.3284 72.4022 37.5142 71.3403 37.5066ZM68.4731 28.5865C68.2913 28.9034 68.1653 29.2447 68.0952 29.6105H74.5555C74.5087 29.1485 74.3661 28.7275 74.1278 28.3475C73.8547 27.9 73.4831 27.5549 73.0128 27.3122C72.5425 27.0618 72.0116 26.9367 71.4199 26.9367C70.7903 26.9367 70.2177 27.0808 69.7018 27.369C69.1861 27.6573 68.7764 28.0631 68.4731 28.5865ZM94.5168 24.6725C94.5168 23.6561 94.748 22.7535 95.2108 21.9646C95.6734 21.1682 96.322 20.55 97.1564 20.1101C97.9983 19.6625 98.9807 19.4312 100.103 19.416V22.1808C99.5798 22.1884 99.1323 22.2984 98.7607 22.5108C98.3965 22.7156 98.1159 23.0152 97.9187 23.4096C97.7372 23.7727 97.6392 24.1937 97.6248 24.6725H100.035V27.3008H97.6229V37.2109H94.5168V27.3008H92.5143V24.6725H94.5168ZM112.334 37.4838C111.067 37.4838 109.933 37.2069 108.932 36.6533C107.938 36.0919 107.157 35.3183 106.588 34.3322C106.027 33.3385 105.746 32.2122 105.746 30.9529C105.746 29.6863 106.027 28.5561 106.588 27.5624C107.157 26.5612 107.938 25.7837 108.932 25.23C109.933 24.6762 111.067 24.3994 112.334 24.3994C113.608 24.3994 114.746 24.6762 115.747 25.23C116.756 25.7837 117.541 26.5574 118.102 27.551C118.664 28.5447 118.948 29.6787 118.956 30.9529C118.948 32.2122 118.664 33.3385 118.102 34.3322C117.549 35.3183 116.767 36.0919 115.758 36.6533C114.75 37.2069 113.608 37.4838 112.334 37.4838ZM112.334 34.628C113.001 34.628 113.593 34.4763 114.109 34.1729C114.625 33.8619 115.023 33.4295 115.303 32.8758C115.584 32.3145 115.724 31.6735 115.724 30.9529C115.724 30.2248 115.584 29.58 115.303 29.0188C115.023 28.4575 114.625 28.0251 114.109 27.7217C113.593 27.4107 113.001 27.2552 112.334 27.2552C111.674 27.2552 111.086 27.4107 110.57 27.7217C110.062 28.0251 109.668 28.4575 109.387 29.0188C109.106 29.58 108.97 30.2248 108.977 30.9529C108.977 31.6735 109.118 32.3145 109.398 32.8758C109.687 33.4295 110.081 33.8619 110.582 34.1729C111.09 34.4763 111.674 34.628 112.334 34.628ZM122.312 24.6725H118.853L122.597 37.2109H125.623L128.085 29.2026L130.743 37.2109H133.724L137.479 24.6725H134.35L132.22 32.4769L129.866 24.6725H126.841L124.498 32.6487L122.312 24.6725Z" fill="black"/>
</svg>
