<svg width="24" height="24" viewBox="0 0 24 24" fill="none" xmlns="http://www.w3.org/2000/svg">
<path d="M20.3479 7.5636L9.7479 18.1636C9.65402 18.2583 9.52622 18.3115 9.3929 18.3115C9.25958 18.3115 9.13178 18.2583 9.0379 18.1636L3.6479 12.7736C3.55324 12.6798 3.5 12.552 3.5 12.4186C3.5 12.2853 3.55324 12.1575 3.6479 12.0636L4.3479 11.3636C4.44178 11.269 4.56958 11.2157 4.7029 11.2157C4.83622 11.2157 4.96402 11.269 5.0579 11.3636L9.3879 15.6936L18.9379 6.1436C19.1357 5.95181 19.4501 5.95181 19.6479 6.1436L20.3479 6.8536C20.4426 6.94748 20.4958 7.07528 20.4958 7.2086C20.4958 7.34192 20.4426 7.46971 20.3479 7.5636Z" fill="black"/>
</svg>
