<svg width="80" height="80" viewBox="0 0 80 80" fill="none" xmlns="http://www.w3.org/2000/svg">
<path fill-rule="evenodd" clip-rule="evenodd" d="M69.1 23.7334L68.6333 22.9001C68.0313 21.8924 67.1823 21.0548 66.1666 20.4667L43.8 7.56675C42.7873 6.97925 41.6377 6.66881 40.4667 6.66675H39.5C38.329 6.66881 37.1793 6.97925 36.1667 7.56675L13.8 20.5001C12.7899 21.0843 11.9509 21.9233 11.3667 22.9334L10.9 23.7667C10.3125 24.7795 10.0021 25.9292 10 27.1001V52.9334C10.0021 54.1044 10.3125 55.2541 10.9 56.2667L11.3667 57.1001C11.966 58.0984 12.8016 58.9341 13.8 59.5334L36.2 72.4334C37.2077 73.0331 38.3607 73.3444 39.5333 73.3334H40.4667C41.6377 73.3314 42.7873 73.0211 43.8 72.4334L66.1666 59.5001C67.1866 58.9291 68.029 58.0867 68.6 57.0667L69.1 56.2334C69.6803 55.2177 69.9903 54.0701 70 52.9001V27.0667C69.998 25.8959 69.6876 24.7462 69.1 23.7334ZM39.5 13.3334H40.4667L60 24.6001L40 36.1334L20 24.6001L39.5 13.3334ZM43.3333 65.0001L62.8333 53.7334L63.3333 52.9001V30.3667L43.3333 41.9334V65.0001Z" fill="black"/>
</svg>
