<svg width="25" height="25" viewBox="0 0 25 25" fill="none" xmlns="http://www.w3.org/2000/svg">
<path d="M22.2596 8.09168C22.1457 7.66908 21.9231 7.28368 21.614 6.97385C21.3048 6.66401 20.9199 6.44054 20.4976 6.32568C18.9316 5.89568 12.6666 5.88868 12.6666 5.88868C12.6666 5.88868 6.40259 5.88168 4.83559 6.29268C4.41351 6.41283 4.02941 6.63946 3.72016 6.95081C3.4109 7.26217 3.18687 7.6478 3.06959 8.07068C2.65659 9.63668 2.65259 12.8847 2.65259 12.8847C2.65259 12.8847 2.64859 16.1487 3.05859 17.6987C3.28859 18.5557 3.96359 19.2327 4.82159 19.4637C6.40359 19.8937 12.6516 19.9007 12.6516 19.9007C12.6516 19.9007 18.9166 19.9077 20.4826 19.4977C20.9051 19.383 21.2903 19.1601 21.6002 18.8509C21.9101 18.5417 22.134 18.1569 22.2496 17.7347C22.6636 16.1697 22.6666 12.9227 22.6666 12.9227C22.6666 12.9227 22.6866 9.65768 22.2596 8.09168ZM10.6626 15.8937L10.6676 9.89368L15.8746 12.8987L10.6626 15.8937Z" fill="black"/>
</svg>
