<svg width="16" height="16" viewBox="0 0 16 16" fill="none" xmlns="http://www.w3.org/2000/svg">
<path fill-rule="evenodd" clip-rule="evenodd" d="M13.82 4.74658L13.7267 4.57992C13.6063 4.37838 13.4365 4.21087 13.2333 4.09325L8.76 1.51325C8.55746 1.39575 8.32753 1.33367 8.09333 1.33325H7.9C7.6658 1.33367 7.43586 1.39575 7.23333 1.51325L2.76 4.09992C2.55798 4.21676 2.39017 4.38456 2.27333 4.58658L2.18 4.75325C2.0625 4.95581 2.00041 5.18574 2 5.41992V10.5866C2.00041 10.8208 2.0625 11.0507 2.18 11.2533L2.27333 11.4199C2.39319 11.6196 2.56033 11.7867 2.76 11.9066L7.24 14.4866C7.44153 14.6065 7.67213 14.6688 7.90666 14.6666H8.09333C8.32753 14.6662 8.55746 14.6041 8.76 14.4866L13.2333 11.8999C13.4373 11.7857 13.6058 11.6173 13.72 11.4133L13.82 11.2466C13.9361 11.0435 13.9981 10.8139 14 10.5799V5.41325C13.9996 5.17908 13.9375 4.94914 13.82 4.74658ZM7.9 2.66659H8.09333L12 4.91992L8 7.22658L4 4.91992L7.9 2.66659ZM8.66666 12.9999L12.5667 10.7466L12.6667 10.5799V6.07325L8.66666 8.38658V12.9999Z" fill="black"/>
</svg>
