<svg width="200" height="56" viewBox="0 0 200 56" fill="none" xmlns="http://www.w3.org/2000/svg">
<path fill-rule="evenodd" clip-rule="evenodd" d="M65.5517 19.235L65.8029 19.6835C66.1191 20.2284 66.2861 20.8471 66.2872 21.4771V35.3786C66.282 36.0081 66.1152 36.6257 65.8029 37.1724L65.5338 37.6208C65.2266 38.1698 64.7733 38.6229 64.2245 38.9302L52.1884 45.8899C51.6434 46.206 51.0248 46.373 50.3947 46.3742H49.8925C49.2615 46.3801 48.641 46.2126 48.0987 45.8899L36.0449 38.9482C35.5076 38.6256 35.0579 38.176 34.7354 37.6387L34.4843 37.1903C34.1682 36.6453 34.0011 36.0266 34 35.3966V21.4951C34.0011 20.8651 34.1682 20.2464 34.4843 19.7014L34.7354 19.253C35.0498 18.7094 35.5013 18.2578 36.0449 17.9435L48.0808 10.9838C48.6258 10.6677 49.2444 10.5006 49.8745 10.4995H50.3947C51.0248 10.5006 51.6434 10.6677 52.1884 10.9838L64.2245 17.9256C64.7711 18.242 65.2279 18.6927 65.5517 19.235ZM50.3947 14.0869H49.8745L39.3812 20.1498L50.1436 26.356L60.906 20.1498L50.3947 14.0869ZM62.4306 35.8271L51.9373 41.89V29.4773L62.6997 23.2531V35.3787L62.4306 35.8271ZM113.063 37.047H109.344V17.4164H113.063V37.047ZM79.5 37.4678H83.6586V30.3388H85.4667L89.8836 37.4678H94.3263L89.4445 29.6156C91.6142 28.9698 93.2415 27.4975 93.2415 24.7079V24.6046C93.2415 20.7818 90.4777 18.9995 86.1124 18.9995H79.5V37.4678ZM83.6586 27.4975V22.2024H86.0091C88.0239 22.2024 89.1604 22.8482 89.1604 24.7337V24.837C89.1604 26.6193 88.1014 27.4975 86.0091 27.4975H83.6586ZM101.081 37.3304C104.774 37.3304 107.099 35.7032 107.538 32.7844H103.999C103.767 33.9209 102.914 34.67 101.184 34.67C99.1433 34.67 97.9294 33.3785 97.826 31.1313H107.564V30.0981C107.564 25.2679 104.464 23.2274 100.977 23.2274C97.0511 23.2274 94.029 25.9912 94.029 30.2531V30.4597C94.029 34.7733 96.9994 37.3304 101.081 37.3304ZM97.8777 28.8325C98.1618 26.921 99.2983 25.8104 100.977 25.8104C102.76 25.8104 103.793 26.7919 103.922 28.8325H97.8777ZM120.198 37.3315C122.42 37.3315 123.789 36.2983 124.486 34.9294V37.0474H128.206V23.5385H124.486V31.4682C124.486 33.4571 123.246 34.4386 121.671 34.4386C120.07 34.4386 119.32 33.5604 119.32 31.7265V23.5385H115.601V32.2431C115.601 35.7817 117.564 37.3315 120.198 37.3315ZM134.491 37.0463H130.745V23.5373H134.491V25.6037C135.162 24.338 136.608 23.2274 138.623 23.2274C140.406 23.2274 141.749 23.9765 142.395 25.5779C143.479 23.9506 145.236 23.2274 146.94 23.2274C149.446 23.2274 151.383 24.803 151.383 28.3934V37.0463H147.664V28.8067C147.664 27.076 146.888 26.3011 145.545 26.3011C144.099 26.3011 142.937 27.231 142.937 29.065V37.0463H139.217V28.8067C139.217 27.076 138.417 26.3011 137.099 26.3011C135.653 26.3011 134.491 27.231 134.491 29.065V37.0463ZM160.031 37.3304C163.726 37.3304 166.051 35.7032 166.489 32.7844H162.95C162.718 33.9209 161.865 34.67 160.135 34.67C158.094 34.67 156.881 33.3785 156.777 31.1313H166.515V30.0981C166.515 25.2679 163.415 23.2274 159.928 23.2274C156.002 23.2274 152.98 25.9912 152.98 30.2531V30.4597C152.98 34.7733 155.95 37.3304 160.031 37.3304ZM156.829 28.8325C157.113 26.921 158.25 25.8104 159.928 25.8104C161.711 25.8104 162.744 26.7919 162.873 28.8325H156.829Z" fill="black"/>
</svg>
