<svg width="140" height="56" viewBox="0 0 140 56" fill="none" xmlns="http://www.w3.org/2000/svg">
<path fill-rule="evenodd" clip-rule="evenodd" d="M38.5702 16.75L27.0607 39.25H16.25L21.0667 29.925H20.8506C16.8769 35.0835 10.9479 38.4794 2.5 39.25V30.0541C2.5 30.0541 7.90431 29.7349 11.0814 26.3947H2.5V16.7502H12.1445V24.6826L12.361 24.6818L16.3021 16.7502H23.596V24.6323L23.8124 24.632L27.9014 16.75H38.5702ZM101.333 36.7665H104.439V18.9375H101.333V36.7665ZM84.2092 36.5844C84.8842 36.8651 85.5707 37.0054 86.2686 37.0054C87.4214 37.0054 88.4531 36.7248 89.3633 36.1634C90.2734 35.6022 90.9789 34.8286 91.4796 33.8424C91.9802 32.8488 92.2304 31.7223 92.2304 30.4632C92.2304 29.2041 91.9726 28.0777 91.4568 27.084C90.9409 26.0904 90.2242 25.3205 89.3063 24.7744C88.3886 24.2206 87.3456 23.9476 86.1774 23.9552C85.4342 23.9552 84.7212 24.0993 84.0384 24.3875C83.3558 24.6758 82.7869 25.0854 82.3318 25.6163C82.2967 25.6567 82.2626 25.6976 82.2294 25.7388V18.9489H79.1119V36.7666H82.2067L82.2004 35.1021C82.2804 35.2002 82.3661 35.2961 82.4569 35.3898C82.9499 35.8981 83.5341 36.2962 84.2092 36.5844ZM87.3949 33.7059C86.8867 34.0169 86.3064 34.1724 85.6541 34.1724C85.0093 34.1724 84.4177 34.0131 83.8792 33.6946C83.3406 33.3683 82.9121 32.9247 82.5934 32.3633C82.2824 31.8021 82.1269 31.1648 82.1269 30.4518C82.1194 29.7388 82.2711 29.1017 82.5821 28.5404C82.9007 27.9715 83.3292 27.5316 83.8678 27.2206C84.4063 26.902 85.0018 26.7465 85.6541 26.7541C86.3064 26.7465 86.8867 26.8982 87.3949 27.2092C87.9107 27.5126 88.3051 27.9488 88.5782 28.5176C88.8588 29.0789 88.9992 29.7237 88.9992 30.4518C88.9992 31.1801 88.8588 31.8248 88.5782 32.3861C88.3051 32.9474 87.9107 33.3873 87.3949 33.7059ZM43.0701 20.0184H46.6199L49.7954 31.6154L53.1736 20.0184H56.1318L59.7954 31.3827L62.8447 20.0184H66.0987L61.2973 36.7665H58.2367L54.5112 25.6645L51.0914 36.7665H47.9967L43.0701 20.0184ZM71.3413 37.0623C70.1048 37.0699 68.9898 36.7968 67.9962 36.2431C67.01 35.6818 66.2327 34.9043 65.6637 33.9106C65.1024 32.917 64.8218 31.783 64.8218 30.5086C64.8218 29.2723 65.11 28.1535 65.6865 27.1523C66.2629 26.151 67.0442 25.3697 68.0303 24.8084C69.0164 24.2471 70.1162 23.9665 71.3298 23.9665C72.6952 23.9665 73.8898 24.2699 74.9138 24.8767C75.9454 25.4835 76.7153 26.3444 77.2235 27.4595C77.7393 28.5669 77.9252 29.8374 77.781 31.271H68.0352C68.0624 31.8421 68.2049 32.3618 68.4627 32.8298C68.7509 33.3455 69.1529 33.7475 69.6686 34.0358C70.1845 34.324 70.7609 34.4681 71.3982 34.4681C71.8835 34.4605 72.3349 34.3771 72.752 34.2179C73.1693 34.051 73.5219 33.8273 73.8102 33.5465C74.106 33.2659 74.3147 32.9474 74.436 32.5909H77.69C77.4928 33.4631 77.0984 34.2406 76.5068 34.9233C75.915 35.5984 75.1718 36.1255 74.2766 36.5048C73.3817 36.884 72.4032 37.0699 71.3413 37.0623ZM68.474 28.1421C68.2923 28.4591 68.1663 28.8004 68.0962 29.1661H74.5565C74.5097 28.7041 74.367 28.2832 74.1288 27.9032C73.8557 27.4557 73.484 27.1105 73.0138 26.8678C72.5435 26.6175 72.0125 26.4924 71.4209 26.4924C70.7913 26.4924 70.2187 26.6365 69.7028 26.9247C69.187 27.2129 68.7774 27.6188 68.474 28.1421ZM94.5178 24.2282C94.5178 23.2118 94.749 22.3092 95.2118 21.5203C95.6744 20.7239 96.323 20.1057 97.1574 19.6657C97.9993 19.2182 98.9816 18.9868 100.104 18.9717V21.7365C99.5808 21.7441 99.1333 21.854 98.7616 22.0664C98.3975 22.2712 98.1169 22.5708 97.9196 22.9653C97.7381 23.3284 97.6401 23.7494 97.6258 24.2282H100.036V26.8565H97.6239V36.7665H94.5178V26.8565H92.5153V24.2282H94.5178ZM112.335 37.0395C111.068 37.0395 109.934 36.7626 108.933 36.209C107.939 35.6476 107.158 34.874 106.589 33.8878C106.028 32.8942 105.747 31.7678 105.747 30.5086C105.747 29.242 106.028 28.1117 106.589 27.1181C107.158 26.1168 107.939 25.3393 108.933 24.7856C109.934 24.2319 111.068 23.955 112.335 23.955C113.609 23.955 114.747 24.2319 115.748 24.7856C116.757 25.3393 117.542 26.113 118.103 27.1067C118.665 28.1003 118.949 29.2343 118.957 30.5086C118.949 31.7678 118.665 32.8942 118.103 33.8878C117.55 34.874 116.768 35.6476 115.759 36.209C114.751 36.7626 113.609 37.0395 112.335 37.0395ZM112.335 34.1837C113.002 34.1837 113.594 34.032 114.11 33.7286C114.626 33.4176 115.024 32.9852 115.304 32.4315C115.585 31.8702 115.725 31.2292 115.725 30.5086C115.725 29.7805 115.585 29.1357 115.304 28.5744C115.024 28.0131 114.626 27.5808 114.11 27.2774C113.594 26.9664 113.002 26.8109 112.335 26.8109C111.675 26.8109 111.087 26.9664 110.571 27.2774C110.063 27.5808 109.669 28.0131 109.388 28.5744C109.107 29.1357 108.971 29.7805 108.978 30.5086C108.978 31.2292 109.119 31.8702 109.399 32.4315C109.688 32.9852 110.082 33.4176 110.583 33.7286C111.091 34.032 111.675 34.1837 112.335 34.1837ZM122.313 24.2282H118.854L122.598 36.7665H125.624L128.086 28.7583L130.744 36.7665H133.725L137.48 24.2282H134.351L132.221 32.0325L129.867 24.2282H126.841L124.499 32.2044L122.313 24.2282Z" fill="black"/>
<path d="M38.5702 16.75L27.0607 39.25H16.25L21.0667 29.925H20.8506C16.8769 35.0835 10.9479 38.4794 2.5 39.25V30.0541C2.5 30.0541 7.90431 29.7349 11.0814 26.3947H2.5V16.7502H12.1445V24.6826L12.361 24.6818L16.3021 16.7502H23.596V24.6323L23.8124 24.632L27.9014 16.75H38.5702ZM101.333 36.7665H104.439V18.9375H101.333V36.7665ZM84.2092 36.5844C84.8842 36.8651 85.5707 37.0054 86.2686 37.0054C87.4214 37.0054 88.4531 36.7248 89.3633 36.1634C90.2734 35.6022 90.9789 34.8286 91.4796 33.8424C91.9802 32.8488 92.2304 31.7223 92.2304 30.4632C92.2304 29.2041 91.9726 28.0777 91.4568 27.084C90.9409 26.0904 90.2242 25.3205 89.3063 24.7744C88.3886 24.2206 87.3456 23.9476 86.1774 23.9552C85.4342 23.9552 84.7212 24.0993 84.0384 24.3875C83.3558 24.6758 82.7869 25.0854 82.3318 25.6163C82.2967 25.6567 82.2626 25.6976 82.2294 25.7388V18.9489H79.1119V36.7666H82.2067L82.2004 35.1021C82.2804 35.2002 82.3661 35.2961 82.4569 35.3898C82.9499 35.8981 83.5341 36.2962 84.2092 36.5844ZM87.3949 33.7059C86.8867 34.0169 86.3064 34.1724 85.6541 34.1724C85.0093 34.1724 84.4177 34.0131 83.8792 33.6946C83.3406 33.3683 82.9121 32.9247 82.5934 32.3633C82.2824 31.8021 82.1269 31.1648 82.1269 30.4518C82.1194 29.7388 82.2711 29.1017 82.5821 28.5404C82.9007 27.9715 83.3292 27.5316 83.8678 27.2206C84.4063 26.902 85.0018 26.7465 85.6541 26.7541C86.3064 26.7465 86.8867 26.8982 87.3949 27.2092C87.9107 27.5126 88.3051 27.9488 88.5782 28.5176C88.8588 29.0789 88.9992 29.7237 88.9992 30.4518C88.9992 31.1801 88.8588 31.8248 88.5782 32.3861C88.3051 32.9474 87.9107 33.3873 87.3949 33.7059ZM43.0701 20.0184H46.6199L49.7954 31.6154L53.1736 20.0184H56.1318L59.7954 31.3827L62.8447 20.0184H66.0987L61.2973 36.7665H58.2367L54.5112 25.6645L51.0914 36.7665H47.9967L43.0701 20.0184ZM71.3413 37.0623C70.1048 37.0699 68.9898 36.7968 67.9962 36.2431C67.01 35.6818 66.2327 34.9043 65.6637 33.9106C65.1024 32.917 64.8218 31.783 64.8218 30.5086C64.8218 29.2723 65.11 28.1535 65.6865 27.1523C66.2629 26.151 67.0442 25.3697 68.0303 24.8084C69.0164 24.2471 70.1162 23.9665 71.3298 23.9665C72.6952 23.9665 73.8898 24.2699 74.9138 24.8767C75.9454 25.4835 76.7153 26.3444 77.2235 27.4595C77.7393 28.5669 77.9252 29.8374 77.781 31.271H68.0352C68.0624 31.8421 68.2049 32.3618 68.4627 32.8298C68.7509 33.3455 69.1529 33.7475 69.6686 34.0358C70.1845 34.324 70.7609 34.4681 71.3982 34.4681C71.8835 34.4605 72.3349 34.3771 72.752 34.2179C73.1693 34.051 73.5219 33.8273 73.8102 33.5465C74.106 33.2659 74.3147 32.9474 74.436 32.5909H77.69C77.4928 33.4631 77.0984 34.2406 76.5068 34.9233C75.915 35.5984 75.1718 36.1255 74.2766 36.5048C73.3817 36.884 72.4032 37.0699 71.3413 37.0623ZM68.474 28.1421C68.2923 28.4591 68.1663 28.8004 68.0962 29.1661H74.5565C74.5097 28.7041 74.367 28.2832 74.1288 27.9032C73.8557 27.4557 73.484 27.1105 73.0138 26.8678C72.5435 26.6175 72.0125 26.4924 71.4209 26.4924C70.7913 26.4924 70.2187 26.6365 69.7028 26.9247C69.187 27.2129 68.7774 27.6188 68.474 28.1421ZM94.5178 24.2282C94.5178 23.2118 94.749 22.3092 95.2118 21.5203C95.6744 20.7239 96.323 20.1057 97.1574 19.6657C97.9993 19.2182 98.9816 18.9868 100.104 18.9717V21.7365C99.5808 21.7441 99.1333 21.854 98.7616 22.0664C98.3975 22.2712 98.1169 22.5708 97.9196 22.9653C97.7381 23.3284 97.6401 23.7494 97.6258 24.2282H100.036V26.8565H97.6239V36.7665H94.5178V26.8565H92.5153V24.2282H94.5178ZM112.335 37.0395C111.068 37.0395 109.934 36.7626 108.933 36.209C107.939 35.6476 107.158 34.874 106.589 33.8878C106.028 32.8942 105.747 31.7678 105.747 30.5086C105.747 29.242 106.028 28.1117 106.589 27.1181C107.158 26.1168 107.939 25.3393 108.933 24.7856C109.934 24.2319 111.068 23.955 112.335 23.955C113.609 23.955 114.747 24.2319 115.748 24.7856C116.757 25.3393 117.542 26.113 118.103 27.1067C118.665 28.1003 118.949 29.2343 118.957 30.5086C118.949 31.7678 118.665 32.8942 118.103 33.8878C117.55 34.874 116.768 35.6476 115.759 36.209C114.751 36.7626 113.609 37.0395 112.335 37.0395ZM112.335 34.1837C113.002 34.1837 113.594 34.032 114.11 33.7286C114.626 33.4176 115.024 32.9852 115.304 32.4315C115.585 31.8702 115.725 31.2292 115.725 30.5086C115.725 29.7805 115.585 29.1357 115.304 28.5744C115.024 28.0131 114.626 27.5808 114.11 27.2774C113.594 26.9664 113.002 26.8109 112.335 26.8109C111.675 26.8109 111.087 26.9664 110.571 27.2774C110.063 27.5808 109.669 28.0131 109.388 28.5744C109.107 29.1357 108.971 29.7805 108.978 30.5086C108.978 31.2292 109.119 31.8702 109.399 32.4315C109.688 32.9852 110.082 33.4176 110.583 33.7286C111.091 34.032 111.675 34.1837 112.335 34.1837ZM122.313 24.2282H118.854L122.598 36.7665H125.624L128.086 28.7583L130.744 36.7665H133.725L137.48 24.2282H134.351L132.221 32.0325L129.867 24.2282H126.841L124.499 32.2044L122.313 24.2282Z" fill="black"/>
<path fill-rule="evenodd" clip-rule="evenodd" d="M38.5702 16.75L27.0607 39.25H16.25L21.0667 29.925H20.8506C16.8769 35.0835 10.9479 38.4794 2.5 39.25V30.0541C2.5 30.0541 7.90431 29.7349 11.0814 26.3947H2.5V16.7502H12.1445V24.6826L12.361 24.6818L16.3021 16.7502H23.596V24.6323L23.8124 24.632L27.9014 16.75H38.5702ZM101.333 36.7665H104.439V18.9375H101.333V36.7665ZM84.2092 36.5844C84.8842 36.8651 85.5707 37.0054 86.2686 37.0054C87.4214 37.0054 88.4531 36.7248 89.3633 36.1634C90.2734 35.6022 90.9789 34.8286 91.4796 33.8424C91.9802 32.8488 92.2304 31.7223 92.2304 30.4632C92.2304 29.2041 91.9726 28.0777 91.4568 27.084C90.9409 26.0904 90.2242 25.3205 89.3063 24.7744C88.3886 24.2206 87.3456 23.9476 86.1774 23.9552C85.4342 23.9552 84.7212 24.0993 84.0384 24.3875C83.3558 24.6758 82.7869 25.0854 82.3318 25.6163C82.2967 25.6567 82.2626 25.6976 82.2294 25.7388V18.9489H79.1119V36.7666H82.2067L82.2004 35.1021C82.2804 35.2002 82.3661 35.2961 82.4569 35.3898C82.9499 35.8981 83.5341 36.2962 84.2092 36.5844ZM87.3949 33.7059C86.8867 34.0169 86.3064 34.1724 85.6541 34.1724C85.0093 34.1724 84.4177 34.0131 83.8792 33.6946C83.3406 33.3683 82.9121 32.9247 82.5934 32.3633C82.2824 31.8021 82.1269 31.1648 82.1269 30.4518C82.1194 29.7388 82.2711 29.1017 82.5821 28.5404C82.9007 27.9715 83.3292 27.5316 83.8678 27.2206C84.4063 26.902 85.0018 26.7465 85.6541 26.7541C86.3064 26.7465 86.8867 26.8982 87.3949 27.2092C87.9107 27.5126 88.3051 27.9488 88.5782 28.5176C88.8588 29.0789 88.9992 29.7237 88.9992 30.4518C88.9992 31.1801 88.8588 31.8248 88.5782 32.3861C88.3051 32.9474 87.9107 33.3873 87.3949 33.7059ZM43.0701 20.0184H46.6199L49.7954 31.6154L53.1736 20.0184H56.1318L59.7954 31.3827L62.8447 20.0184H66.0987L61.2973 36.7665H58.2367L54.5112 25.6645L51.0914 36.7665H47.9967L43.0701 20.0184ZM71.3413 37.0623C70.1048 37.0699 68.9898 36.7968 67.9962 36.2431C67.01 35.6818 66.2327 34.9043 65.6637 33.9106C65.1024 32.917 64.8218 31.783 64.8218 30.5086C64.8218 29.2723 65.11 28.1535 65.6865 27.1523C66.2629 26.151 67.0442 25.3697 68.0303 24.8084C69.0164 24.2471 70.1162 23.9665 71.3298 23.9665C72.6952 23.9665 73.8898 24.2699 74.9138 24.8767C75.9454 25.4835 76.7153 26.3444 77.2235 27.4595C77.7393 28.5669 77.9252 29.8374 77.781 31.271H68.0352C68.0624 31.8421 68.2049 32.3618 68.4627 32.8298C68.7509 33.3455 69.1529 33.7475 69.6686 34.0358C70.1845 34.324 70.7609 34.4681 71.3982 34.4681C71.8835 34.4605 72.3349 34.3771 72.752 34.2179C73.1693 34.051 73.5219 33.8273 73.8102 33.5465C74.106 33.2659 74.3147 32.9474 74.436 32.5909H77.69C77.4928 33.4631 77.0984 34.2406 76.5068 34.9233C75.915 35.5984 75.1718 36.1255 74.2766 36.5048C73.3817 36.884 72.4032 37.0699 71.3413 37.0623ZM68.474 28.1421C68.2923 28.4591 68.1663 28.8004 68.0962 29.1661H74.5565C74.5097 28.7041 74.367 28.2832 74.1288 27.9032C73.8557 27.4557 73.484 27.1105 73.0138 26.8678C72.5435 26.6175 72.0125 26.4924 71.4209 26.4924C70.7913 26.4924 70.2187 26.6365 69.7028 26.9247C69.187 27.2129 68.7774 27.6188 68.474 28.1421ZM94.5178 24.2282C94.5178 23.2118 94.749 22.3092 95.2118 21.5203C95.6744 20.7239 96.323 20.1057 97.1574 19.6657C97.9993 19.2182 98.9816 18.9868 100.104 18.9717V21.7365C99.5808 21.7441 99.1333 21.854 98.7616 22.0664C98.3975 22.2712 98.1169 22.5708 97.9196 22.9653C97.7381 23.3284 97.6401 23.7494 97.6258 24.2282H100.036V26.8565H97.6239V36.7665H94.5178V26.8565H92.5153V24.2282H94.5178ZM112.335 37.0395C111.068 37.0395 109.934 36.7626 108.933 36.209C107.939 35.6476 107.158 34.874 106.589 33.8878C106.028 32.8942 105.747 31.7678 105.747 30.5086C105.747 29.242 106.028 28.1117 106.589 27.1181C107.158 26.1168 107.939 25.3393 108.933 24.7856C109.934 24.2319 111.068 23.955 112.335 23.955C113.609 23.955 114.747 24.2319 115.748 24.7856C116.757 25.3393 117.542 26.113 118.103 27.1067C118.665 28.1003 118.949 29.2343 118.957 30.5086C118.949 31.7678 118.665 32.8942 118.103 33.8878C117.55 34.874 116.768 35.6476 115.759 36.209C114.751 36.7626 113.609 37.0395 112.335 37.0395ZM112.335 34.1837C113.002 34.1837 113.594 34.032 114.11 33.7286C114.626 33.4176 115.024 32.9852 115.304 32.4315C115.585 31.8702 115.725 31.2292 115.725 30.5086C115.725 29.7805 115.585 29.1357 115.304 28.5744C115.024 28.0131 114.626 27.5808 114.11 27.2774C113.594 26.9664 113.002 26.8109 112.335 26.8109C111.675 26.8109 111.087 26.9664 110.571 27.2774C110.063 27.5808 109.669 28.0131 109.388 28.5744C109.107 29.1357 108.971 29.7805 108.978 30.5086C108.978 31.2292 109.119 31.8702 109.399 32.4315C109.688 32.9852 110.082 33.4176 110.583 33.7286C111.091 34.032 111.675 34.1837 112.335 34.1837ZM122.313 24.2282H118.854L122.598 36.7665H125.624L128.086 28.7583L130.744 36.7665H133.725L137.48 24.2282H134.351L132.221 32.0325L129.867 24.2282H126.841L124.499 32.2044L122.313 24.2282Z" fill="black"/>
<path d="M38.5702 16.75L27.0607 39.25H16.25L21.0667 29.925H20.8506C16.8769 35.0835 10.9479 38.4794 2.5 39.25V30.0541C2.5 30.0541 7.90431 29.7349 11.0814 26.3947H2.5V16.7502H12.1445V24.6826L12.361 24.6818L16.3021 16.7502H23.596V24.6323L23.8124 24.632L27.9014 16.75H38.5702ZM101.333 36.7665H104.439V18.9375H101.333V36.7665ZM84.2092 36.5844C84.8842 36.8651 85.5707 37.0054 86.2686 37.0054C87.4214 37.0054 88.4531 36.7248 89.3633 36.1634C90.2734 35.6022 90.9789 34.8286 91.4796 33.8424C91.9802 32.8488 92.2304 31.7223 92.2304 30.4632C92.2304 29.2041 91.9726 28.0777 91.4568 27.084C90.9409 26.0904 90.2242 25.3205 89.3063 24.7744C88.3886 24.2206 87.3456 23.9476 86.1774 23.9552C85.4342 23.9552 84.7212 24.0993 84.0384 24.3875C83.3558 24.6758 82.7869 25.0854 82.3318 25.6163C82.2967 25.6567 82.2626 25.6976 82.2294 25.7388V18.9489H79.1119V36.7666H82.2067L82.2004 35.1021C82.2804 35.2002 82.3661 35.2961 82.4569 35.3898C82.9499 35.8981 83.5341 36.2962 84.2092 36.5844ZM87.3949 33.7059C86.8867 34.0169 86.3064 34.1724 85.6541 34.1724C85.0093 34.1724 84.4177 34.0131 83.8792 33.6946C83.3406 33.3683 82.9121 32.9247 82.5934 32.3633C82.2824 31.8021 82.1269 31.1648 82.1269 30.4518C82.1194 29.7388 82.2711 29.1017 82.5821 28.5404C82.9007 27.9715 83.3292 27.5316 83.8678 27.2206C84.4063 26.902 85.0018 26.7465 85.6541 26.7541C86.3064 26.7465 86.8867 26.8982 87.3949 27.2092C87.9107 27.5126 88.3051 27.9488 88.5782 28.5176C88.8588 29.0789 88.9992 29.7237 88.9992 30.4518C88.9992 31.1801 88.8588 31.8248 88.5782 32.3861C88.3051 32.9474 87.9107 33.3873 87.3949 33.7059ZM43.0701 20.0184H46.6199L49.7954 31.6154L53.1736 20.0184H56.1318L59.7954 31.3827L62.8447 20.0184H66.0987L61.2973 36.7665H58.2367L54.5112 25.6645L51.0914 36.7665H47.9967L43.0701 20.0184ZM71.3413 37.0623C70.1048 37.0699 68.9898 36.7968 67.9962 36.2431C67.01 35.6818 66.2327 34.9043 65.6637 33.9106C65.1024 32.917 64.8218 31.783 64.8218 30.5086C64.8218 29.2723 65.11 28.1535 65.6865 27.1523C66.2629 26.151 67.0442 25.3697 68.0303 24.8084C69.0164 24.2471 70.1162 23.9665 71.3298 23.9665C72.6952 23.9665 73.8898 24.2699 74.9138 24.8767C75.9454 25.4835 76.7153 26.3444 77.2235 27.4595C77.7393 28.5669 77.9252 29.8374 77.781 31.271H68.0352C68.0624 31.8421 68.2049 32.3618 68.4627 32.8298C68.7509 33.3455 69.1529 33.7475 69.6686 34.0358C70.1845 34.324 70.7609 34.4681 71.3982 34.4681C71.8835 34.4605 72.3349 34.3771 72.752 34.2179C73.1693 34.051 73.5219 33.8273 73.8102 33.5465C74.106 33.2659 74.3147 32.9474 74.436 32.5909H77.69C77.4928 33.4631 77.0984 34.2406 76.5068 34.9233C75.915 35.5984 75.1718 36.1255 74.2766 36.5048C73.3817 36.884 72.4032 37.0699 71.3413 37.0623ZM68.474 28.1421C68.2923 28.4591 68.1663 28.8004 68.0962 29.1661H74.5565C74.5097 28.7041 74.367 28.2832 74.1288 27.9032C73.8557 27.4557 73.484 27.1105 73.0138 26.8678C72.5435 26.6175 72.0125 26.4924 71.4209 26.4924C70.7913 26.4924 70.2187 26.6365 69.7028 26.9247C69.187 27.2129 68.7774 27.6188 68.474 28.1421ZM94.5178 24.2282C94.5178 23.2118 94.749 22.3092 95.2118 21.5203C95.6744 20.7239 96.323 20.1057 97.1574 19.6657C97.9993 19.2182 98.9816 18.9868 100.104 18.9717V21.7365C99.5808 21.7441 99.1333 21.854 98.7616 22.0664C98.3975 22.2712 98.1169 22.5708 97.9196 22.9653C97.7381 23.3284 97.6401 23.7494 97.6258 24.2282H100.036V26.8565H97.6239V36.7665H94.5178V26.8565H92.5153V24.2282H94.5178ZM112.335 37.0395C111.068 37.0395 109.934 36.7626 108.933 36.209C107.939 35.6476 107.158 34.874 106.589 33.8878C106.028 32.8942 105.747 31.7678 105.747 30.5086C105.747 29.242 106.028 28.1117 106.589 27.1181C107.158 26.1168 107.939 25.3393 108.933 24.7856C109.934 24.2319 111.068 23.955 112.335 23.955C113.609 23.955 114.747 24.2319 115.748 24.7856C116.757 25.3393 117.542 26.113 118.103 27.1067C118.665 28.1003 118.949 29.2343 118.957 30.5086C118.949 31.7678 118.665 32.8942 118.103 33.8878C117.55 34.874 116.768 35.6476 115.759 36.209C114.751 36.7626 113.609 37.0395 112.335 37.0395ZM112.335 34.1837C113.002 34.1837 113.594 34.032 114.11 33.7286C114.626 33.4176 115.024 32.9852 115.304 32.4315C115.585 31.8702 115.725 31.2292 115.725 30.5086C115.725 29.7805 115.585 29.1357 115.304 28.5744C115.024 28.0131 114.626 27.5808 114.11 27.2774C113.594 26.9664 113.002 26.8109 112.335 26.8109C111.675 26.8109 111.087 26.9664 110.571 27.2774C110.063 27.5808 109.669 28.0131 109.388 28.5744C109.107 29.1357 108.971 29.7805 108.978 30.5086C108.978 31.2292 109.119 31.8702 109.399 32.4315C109.688 32.9852 110.082 33.4176 110.583 33.7286C111.091 34.032 111.675 34.1837 112.335 34.1837ZM122.313 24.2282H118.854L122.598 36.7665H125.624L128.086 28.7583L130.744 36.7665H133.725L137.48 24.2282H134.351L132.221 32.0325L129.867 24.2282H126.841L124.499 32.2044L122.313 24.2282Z" fill="black"/>
<path fill-rule="evenodd" clip-rule="evenodd" d="M38.5702 16.75L27.0607 39.25H16.25L21.0667 29.925H20.8506C16.8769 35.0835 10.9479 38.4794 2.5 39.25V30.0541C2.5 30.0541 7.90431 29.7349 11.0814 26.3947H2.5V16.7502H12.1445V24.6826L12.361 24.6818L16.3021 16.7502H23.596V24.6323L23.8124 24.632L27.9014 16.75H38.5702ZM101.333 36.7665H104.439V18.9375H101.333V36.7665ZM84.2092 36.5844C84.8842 36.8651 85.5707 37.0054 86.2686 37.0054C87.4214 37.0054 88.4531 36.7248 89.3633 36.1634C90.2734 35.6022 90.9789 34.8286 91.4796 33.8424C91.9802 32.8488 92.2304 31.7223 92.2304 30.4632C92.2304 29.2041 91.9726 28.0777 91.4568 27.084C90.9409 26.0904 90.2242 25.3205 89.3063 24.7744C88.3886 24.2206 87.3456 23.9476 86.1774 23.9552C85.4342 23.9552 84.7212 24.0993 84.0384 24.3875C83.3558 24.6758 82.7869 25.0854 82.3318 25.6163C82.2967 25.6567 82.2626 25.6976 82.2294 25.7388V18.9489H79.1119V36.7666H82.2067L82.2004 35.1021C82.2804 35.2002 82.3661 35.2961 82.4569 35.3898C82.9499 35.8981 83.5341 36.2962 84.2092 36.5844ZM87.3949 33.7059C86.8867 34.0169 86.3064 34.1724 85.6541 34.1724C85.0093 34.1724 84.4177 34.0131 83.8792 33.6946C83.3406 33.3683 82.9121 32.9247 82.5934 32.3633C82.2824 31.8021 82.1269 31.1648 82.1269 30.4518C82.1194 29.7388 82.2711 29.1017 82.5821 28.5404C82.9007 27.9715 83.3292 27.5316 83.8678 27.2206C84.4063 26.902 85.0018 26.7465 85.6541 26.7541C86.3064 26.7465 86.8867 26.8982 87.3949 27.2092C87.9107 27.5126 88.3051 27.9488 88.5782 28.5176C88.8588 29.0789 88.9992 29.7237 88.9992 30.4518C88.9992 31.1801 88.8588 31.8248 88.5782 32.3861C88.3051 32.9474 87.9107 33.3873 87.3949 33.7059ZM43.0701 20.0184H46.6199L49.7954 31.6154L53.1736 20.0184H56.1318L59.7954 31.3827L62.8447 20.0184H66.0987L61.2973 36.7665H58.2367L54.5112 25.6645L51.0914 36.7665H47.9967L43.0701 20.0184ZM71.3413 37.0623C70.1048 37.0699 68.9898 36.7968 67.9962 36.2431C67.01 35.6818 66.2327 34.9043 65.6637 33.9106C65.1024 32.917 64.8218 31.783 64.8218 30.5086C64.8218 29.2723 65.11 28.1535 65.6865 27.1523C66.2629 26.151 67.0442 25.3697 68.0303 24.8084C69.0164 24.2471 70.1162 23.9665 71.3298 23.9665C72.6952 23.9665 73.8898 24.2699 74.9138 24.8767C75.9454 25.4835 76.7153 26.3444 77.2235 27.4595C77.7393 28.5669 77.9252 29.8374 77.781 31.271H68.0352C68.0624 31.8421 68.2049 32.3618 68.4627 32.8298C68.7509 33.3455 69.1529 33.7475 69.6686 34.0358C70.1845 34.324 70.7609 34.4681 71.3982 34.4681C71.8835 34.4605 72.3349 34.3771 72.752 34.2179C73.1693 34.051 73.5219 33.8273 73.8102 33.5465C74.106 33.2659 74.3147 32.9474 74.436 32.5909H77.69C77.4928 33.4631 77.0984 34.2406 76.5068 34.9233C75.915 35.5984 75.1718 36.1255 74.2766 36.5048C73.3817 36.884 72.4032 37.0699 71.3413 37.0623ZM68.474 28.1421C68.2923 28.4591 68.1663 28.8004 68.0962 29.1661H74.5565C74.5097 28.7041 74.367 28.2832 74.1288 27.9032C73.8557 27.4557 73.484 27.1105 73.0138 26.8678C72.5435 26.6175 72.0125 26.4924 71.4209 26.4924C70.7913 26.4924 70.2187 26.6365 69.7028 26.9247C69.187 27.2129 68.7774 27.6188 68.474 28.1421ZM94.5178 24.2282C94.5178 23.2118 94.749 22.3092 95.2118 21.5203C95.6744 20.7239 96.323 20.1057 97.1574 19.6657C97.9993 19.2182 98.9816 18.9868 100.104 18.9717V21.7365C99.5808 21.7441 99.1333 21.854 98.7616 22.0664C98.3975 22.2712 98.1169 22.5708 97.9196 22.9653C97.7381 23.3284 97.6401 23.7494 97.6258 24.2282H100.036V26.8565H97.6239V36.7665H94.5178V26.8565H92.5153V24.2282H94.5178ZM112.335 37.0395C111.068 37.0395 109.934 36.7626 108.933 36.209C107.939 35.6476 107.158 34.874 106.589 33.8878C106.028 32.8942 105.747 31.7678 105.747 30.5086C105.747 29.242 106.028 28.1117 106.589 27.1181C107.158 26.1168 107.939 25.3393 108.933 24.7856C109.934 24.2319 111.068 23.955 112.335 23.955C113.609 23.955 114.747 24.2319 115.748 24.7856C116.757 25.3393 117.542 26.113 118.103 27.1067C118.665 28.1003 118.949 29.2343 118.957 30.5086C118.949 31.7678 118.665 32.8942 118.103 33.8878C117.55 34.874 116.768 35.6476 115.759 36.209C114.751 36.7626 113.609 37.0395 112.335 37.0395ZM112.335 34.1837C113.002 34.1837 113.594 34.032 114.11 33.7286C114.626 33.4176 115.024 32.9852 115.304 32.4315C115.585 31.8702 115.725 31.2292 115.725 30.5086C115.725 29.7805 115.585 29.1357 115.304 28.5744C115.024 28.0131 114.626 27.5808 114.11 27.2774C113.594 26.9664 113.002 26.8109 112.335 26.8109C111.675 26.8109 111.087 26.9664 110.571 27.2774C110.063 27.5808 109.669 28.0131 109.388 28.5744C109.107 29.1357 108.971 29.7805 108.978 30.5086C108.978 31.2292 109.119 31.8702 109.399 32.4315C109.688 32.9852 110.082 33.4176 110.583 33.7286C111.091 34.032 111.675 34.1837 112.335 34.1837ZM122.313 24.2282H118.854L122.598 36.7665H125.624L128.086 28.7583L130.744 36.7665H133.725L137.48 24.2282H134.351L132.221 32.0325L129.867 24.2282H126.841L124.499 32.2044L122.313 24.2282Z" fill="black"/>
<path d="M38.5702 16.75L27.0607 39.25H16.25L21.0667 29.925H20.8506C16.8769 35.0835 10.9479 38.4794 2.5 39.25V30.0541C2.5 30.0541 7.90431 29.7349 11.0814 26.3947H2.5V16.7502H12.1445V24.6826L12.361 24.6818L16.3021 16.7502H23.596V24.6323L23.8124 24.632L27.9014 16.75H38.5702ZM101.333 36.7665H104.439V18.9375H101.333V36.7665ZM84.2092 36.5844C84.8842 36.8651 85.5707 37.0054 86.2686 37.0054C87.4214 37.0054 88.4531 36.7248 89.3633 36.1634C90.2734 35.6022 90.9789 34.8286 91.4796 33.8424C91.9802 32.8488 92.2304 31.7223 92.2304 30.4632C92.2304 29.2041 91.9726 28.0777 91.4568 27.084C90.9409 26.0904 90.2242 25.3205 89.3063 24.7744C88.3886 24.2206 87.3456 23.9476 86.1774 23.9552C85.4342 23.9552 84.7212 24.0993 84.0384 24.3875C83.3558 24.6758 82.7869 25.0854 82.3318 25.6163C82.2967 25.6567 82.2626 25.6976 82.2294 25.7388V18.9489H79.1119V36.7666H82.2067L82.2004 35.1021C82.2804 35.2002 82.3661 35.2961 82.4569 35.3898C82.9499 35.8981 83.5341 36.2962 84.2092 36.5844ZM87.3949 33.7059C86.8867 34.0169 86.3064 34.1724 85.6541 34.1724C85.0093 34.1724 84.4177 34.0131 83.8792 33.6946C83.3406 33.3683 82.9121 32.9247 82.5934 32.3633C82.2824 31.8021 82.1269 31.1648 82.1269 30.4518C82.1194 29.7388 82.2711 29.1017 82.5821 28.5404C82.9007 27.9715 83.3292 27.5316 83.8678 27.2206C84.4063 26.902 85.0018 26.7465 85.6541 26.7541C86.3064 26.7465 86.8867 26.8982 87.3949 27.2092C87.9107 27.5126 88.3051 27.9488 88.5782 28.5176C88.8588 29.0789 88.9992 29.7237 88.9992 30.4518C88.9992 31.1801 88.8588 31.8248 88.5782 32.3861C88.3051 32.9474 87.9107 33.3873 87.3949 33.7059ZM43.0701 20.0184H46.6199L49.7954 31.6154L53.1736 20.0184H56.1318L59.7954 31.3827L62.8447 20.0184H66.0987L61.2973 36.7665H58.2367L54.5112 25.6645L51.0914 36.7665H47.9967L43.0701 20.0184ZM71.3413 37.0623C70.1048 37.0699 68.9898 36.7968 67.9962 36.2431C67.01 35.6818 66.2327 34.9043 65.6637 33.9106C65.1024 32.917 64.8218 31.783 64.8218 30.5086C64.8218 29.2723 65.11 28.1535 65.6865 27.1523C66.2629 26.151 67.0442 25.3697 68.0303 24.8084C69.0164 24.2471 70.1162 23.9665 71.3298 23.9665C72.6952 23.9665 73.8898 24.2699 74.9138 24.8767C75.9454 25.4835 76.7153 26.3444 77.2235 27.4595C77.7393 28.5669 77.9252 29.8374 77.781 31.271H68.0352C68.0624 31.8421 68.2049 32.3618 68.4627 32.8298C68.7509 33.3455 69.1529 33.7475 69.6686 34.0358C70.1845 34.324 70.7609 34.4681 71.3982 34.4681C71.8835 34.4605 72.3349 34.3771 72.752 34.2179C73.1693 34.051 73.5219 33.8273 73.8102 33.5465C74.106 33.2659 74.3147 32.9474 74.436 32.5909H77.69C77.4928 33.4631 77.0984 34.2406 76.5068 34.9233C75.915 35.5984 75.1718 36.1255 74.2766 36.5048C73.3817 36.884 72.4032 37.0699 71.3413 37.0623ZM68.474 28.1421C68.2923 28.4591 68.1663 28.8004 68.0962 29.1661H74.5565C74.5097 28.7041 74.367 28.2832 74.1288 27.9032C73.8557 27.4557 73.484 27.1105 73.0138 26.8678C72.5435 26.6175 72.0125 26.4924 71.4209 26.4924C70.7913 26.4924 70.2187 26.6365 69.7028 26.9247C69.187 27.2129 68.7774 27.6188 68.474 28.1421ZM94.5178 24.2282C94.5178 23.2118 94.749 22.3092 95.2118 21.5203C95.6744 20.7239 96.323 20.1057 97.1574 19.6657C97.9993 19.2182 98.9816 18.9868 100.104 18.9717V21.7365C99.5808 21.7441 99.1333 21.854 98.7616 22.0664C98.3975 22.2712 98.1169 22.5708 97.9196 22.9653C97.7381 23.3284 97.6401 23.7494 97.6258 24.2282H100.036V26.8565H97.6239V36.7665H94.5178V26.8565H92.5153V24.2282H94.5178ZM112.335 37.0395C111.068 37.0395 109.934 36.7626 108.933 36.209C107.939 35.6476 107.158 34.874 106.589 33.8878C106.028 32.8942 105.747 31.7678 105.747 30.5086C105.747 29.242 106.028 28.1117 106.589 27.1181C107.158 26.1168 107.939 25.3393 108.933 24.7856C109.934 24.2319 111.068 23.955 112.335 23.955C113.609 23.955 114.747 24.2319 115.748 24.7856C116.757 25.3393 117.542 26.113 118.103 27.1067C118.665 28.1003 118.949 29.2343 118.957 30.5086C118.949 31.7678 118.665 32.8942 118.103 33.8878C117.55 34.874 116.768 35.6476 115.759 36.209C114.751 36.7626 113.609 37.0395 112.335 37.0395ZM112.335 34.1837C113.002 34.1837 113.594 34.032 114.11 33.7286C114.626 33.4176 115.024 32.9852 115.304 32.4315C115.585 31.8702 115.725 31.2292 115.725 30.5086C115.725 29.7805 115.585 29.1357 115.304 28.5744C115.024 28.0131 114.626 27.5808 114.11 27.2774C113.594 26.9664 113.002 26.8109 112.335 26.8109C111.675 26.8109 111.087 26.9664 110.571 27.2774C110.063 27.5808 109.669 28.0131 109.388 28.5744C109.107 29.1357 108.971 29.7805 108.978 30.5086C108.978 31.2292 109.119 31.8702 109.399 32.4315C109.688 32.9852 110.082 33.4176 110.583 33.7286C111.091 34.032 111.675 34.1837 112.335 34.1837ZM122.313 24.2282H118.854L122.598 36.7665H125.624L128.086 28.7583L130.744 36.7665H133.725L137.48 24.2282H134.351L132.221 32.0325L129.867 24.2282H126.841L124.499 32.2044L122.313 24.2282Z" fill="black"/>
<path fill-rule="evenodd" clip-rule="evenodd" d="M38.5702 16.75L27.0607 39.25H16.25L21.0667 29.925H20.8506C16.8769 35.0835 10.9479 38.4794 2.5 39.25V30.0541C2.5 30.0541 7.90431 29.7349 11.0814 26.3947H2.5V16.7502H12.1445V24.6826L12.361 24.6818L16.3021 16.7502H23.596V24.6323L23.8124 24.632L27.9014 16.75H38.5702ZM101.333 36.7665H104.439V18.9375H101.333V36.7665ZM84.2092 36.5844C84.8842 36.8651 85.5707 37.0054 86.2686 37.0054C87.4214 37.0054 88.4531 36.7248 89.3633 36.1634C90.2734 35.6022 90.9789 34.8286 91.4796 33.8424C91.9802 32.8488 92.2304 31.7223 92.2304 30.4632C92.2304 29.2041 91.9726 28.0777 91.4568 27.084C90.9409 26.0904 90.2242 25.3205 89.3063 24.7744C88.3886 24.2206 87.3456 23.9476 86.1774 23.9552C85.4342 23.9552 84.7212 24.0993 84.0384 24.3875C83.3558 24.6758 82.7869 25.0854 82.3318 25.6163C82.2967 25.6567 82.2626 25.6976 82.2294 25.7388V18.9489H79.1119V36.7666H82.2067L82.2004 35.1021C82.2804 35.2002 82.3661 35.2961 82.4569 35.3898C82.9499 35.8981 83.5341 36.2962 84.2092 36.5844ZM87.3949 33.7059C86.8867 34.0169 86.3064 34.1724 85.6541 34.1724C85.0093 34.1724 84.4177 34.0131 83.8792 33.6946C83.3406 33.3683 82.9121 32.9247 82.5934 32.3633C82.2824 31.8021 82.1269 31.1648 82.1269 30.4518C82.1194 29.7388 82.2711 29.1017 82.5821 28.5404C82.9007 27.9715 83.3292 27.5316 83.8678 27.2206C84.4063 26.902 85.0018 26.7465 85.6541 26.7541C86.3064 26.7465 86.8867 26.8982 87.3949 27.2092C87.9107 27.5126 88.3051 27.9488 88.5782 28.5176C88.8588 29.0789 88.9992 29.7237 88.9992 30.4518C88.9992 31.1801 88.8588 31.8248 88.5782 32.3861C88.3051 32.9474 87.9107 33.3873 87.3949 33.7059ZM43.0701 20.0184H46.6199L49.7954 31.6154L53.1736 20.0184H56.1318L59.7954 31.3827L62.8447 20.0184H66.0987L61.2973 36.7665H58.2367L54.5112 25.6645L51.0914 36.7665H47.9967L43.0701 20.0184ZM71.3413 37.0623C70.1048 37.0699 68.9898 36.7968 67.9962 36.2431C67.01 35.6818 66.2327 34.9043 65.6637 33.9106C65.1024 32.917 64.8218 31.783 64.8218 30.5086C64.8218 29.2723 65.11 28.1535 65.6865 27.1523C66.2629 26.151 67.0442 25.3697 68.0303 24.8084C69.0164 24.2471 70.1162 23.9665 71.3298 23.9665C72.6952 23.9665 73.8898 24.2699 74.9138 24.8767C75.9454 25.4835 76.7153 26.3444 77.2235 27.4595C77.7393 28.5669 77.9252 29.8374 77.781 31.271H68.0352C68.0624 31.8421 68.2049 32.3618 68.4627 32.8298C68.7509 33.3455 69.1529 33.7475 69.6686 34.0358C70.1845 34.324 70.7609 34.4681 71.3982 34.4681C71.8835 34.4605 72.3349 34.3771 72.752 34.2179C73.1693 34.051 73.5219 33.8273 73.8102 33.5465C74.106 33.2659 74.3147 32.9474 74.436 32.5909H77.69C77.4928 33.4631 77.0984 34.2406 76.5068 34.9233C75.915 35.5984 75.1718 36.1255 74.2766 36.5048C73.3817 36.884 72.4032 37.0699 71.3413 37.0623ZM68.474 28.1421C68.2923 28.4591 68.1663 28.8004 68.0962 29.1661H74.5565C74.5097 28.7041 74.367 28.2832 74.1288 27.9032C73.8557 27.4557 73.484 27.1105 73.0138 26.8678C72.5435 26.6175 72.0125 26.4924 71.4209 26.4924C70.7913 26.4924 70.2187 26.6365 69.7028 26.9247C69.187 27.2129 68.7774 27.6188 68.474 28.1421ZM94.5178 24.2282C94.5178 23.2118 94.749 22.3092 95.2118 21.5203C95.6744 20.7239 96.323 20.1057 97.1574 19.6657C97.9993 19.2182 98.9816 18.9868 100.104 18.9717V21.7365C99.5808 21.7441 99.1333 21.854 98.7616 22.0664C98.3975 22.2712 98.1169 22.5708 97.9196 22.9653C97.7381 23.3284 97.6401 23.7494 97.6258 24.2282H100.036V26.8565H97.6239V36.7665H94.5178V26.8565H92.5153V24.2282H94.5178ZM112.335 37.0395C111.068 37.0395 109.934 36.7626 108.933 36.209C107.939 35.6476 107.158 34.874 106.589 33.8878C106.028 32.8942 105.747 31.7678 105.747 30.5086C105.747 29.242 106.028 28.1117 106.589 27.1181C107.158 26.1168 107.939 25.3393 108.933 24.7856C109.934 24.2319 111.068 23.955 112.335 23.955C113.609 23.955 114.747 24.2319 115.748 24.7856C116.757 25.3393 117.542 26.113 118.103 27.1067C118.665 28.1003 118.949 29.2343 118.957 30.5086C118.949 31.7678 118.665 32.8942 118.103 33.8878C117.55 34.874 116.768 35.6476 115.759 36.209C114.751 36.7626 113.609 37.0395 112.335 37.0395ZM112.335 34.1837C113.002 34.1837 113.594 34.032 114.11 33.7286C114.626 33.4176 115.024 32.9852 115.304 32.4315C115.585 31.8702 115.725 31.2292 115.725 30.5086C115.725 29.7805 115.585 29.1357 115.304 28.5744C115.024 28.0131 114.626 27.5808 114.11 27.2774C113.594 26.9664 113.002 26.8109 112.335 26.8109C111.675 26.8109 111.087 26.9664 110.571 27.2774C110.063 27.5808 109.669 28.0131 109.388 28.5744C109.107 29.1357 108.971 29.7805 108.978 30.5086C108.978 31.2292 109.119 31.8702 109.399 32.4315C109.688 32.9852 110.082 33.4176 110.583 33.7286C111.091 34.032 111.675 34.1837 112.335 34.1837ZM122.313 24.2282H118.854L122.598 36.7665H125.624L128.086 28.7583L130.744 36.7665H133.725L137.48 24.2282H134.351L132.221 32.0325L129.867 24.2282H126.841L124.499 32.2044L122.313 24.2282Z" fill="black"/>
<path d="M38.5702 16.75L27.0607 39.25H16.25L21.0667 29.925H20.8506C16.8769 35.0835 10.9479 38.4794 2.5 39.25V30.0541C2.5 30.0541 7.90431 29.7349 11.0814 26.3947H2.5V16.7502H12.1445V24.6826L12.361 24.6818L16.3021 16.7502H23.596V24.6323L23.8124 24.632L27.9014 16.75H38.5702ZM101.333 36.7665H104.439V18.9375H101.333V36.7665ZM84.2092 36.5844C84.8842 36.8651 85.5707 37.0054 86.2686 37.0054C87.4214 37.0054 88.4531 36.7248 89.3633 36.1634C90.2734 35.6022 90.9789 34.8286 91.4796 33.8424C91.9802 32.8488 92.2304 31.7223 92.2304 30.4632C92.2304 29.2041 91.9726 28.0777 91.4568 27.084C90.9409 26.0904 90.2242 25.3205 89.3063 24.7744C88.3886 24.2206 87.3456 23.9476 86.1774 23.9552C85.4342 23.9552 84.7212 24.0993 84.0384 24.3875C83.3558 24.6758 82.7869 25.0854 82.3318 25.6163C82.2967 25.6567 82.2626 25.6976 82.2294 25.7388V18.9489H79.1119V36.7666H82.2067L82.2004 35.1021C82.2804 35.2002 82.3661 35.2961 82.4569 35.3898C82.9499 35.8981 83.5341 36.2962 84.2092 36.5844ZM87.3949 33.7059C86.8867 34.0169 86.3064 34.1724 85.6541 34.1724C85.0093 34.1724 84.4177 34.0131 83.8792 33.6946C83.3406 33.3683 82.9121 32.9247 82.5934 32.3633C82.2824 31.8021 82.1269 31.1648 82.1269 30.4518C82.1194 29.7388 82.2711 29.1017 82.5821 28.5404C82.9007 27.9715 83.3292 27.5316 83.8678 27.2206C84.4063 26.902 85.0018 26.7465 85.6541 26.7541C86.3064 26.7465 86.8867 26.8982 87.3949 27.2092C87.9107 27.5126 88.3051 27.9488 88.5782 28.5176C88.8588 29.0789 88.9992 29.7237 88.9992 30.4518C88.9992 31.1801 88.8588 31.8248 88.5782 32.3861C88.3051 32.9474 87.9107 33.3873 87.3949 33.7059ZM43.0701 20.0184H46.6199L49.7954 31.6154L53.1736 20.0184H56.1318L59.7954 31.3827L62.8447 20.0184H66.0987L61.2973 36.7665H58.2367L54.5112 25.6645L51.0914 36.7665H47.9967L43.0701 20.0184ZM71.3413 37.0623C70.1048 37.0699 68.9898 36.7968 67.9962 36.2431C67.01 35.6818 66.2327 34.9043 65.6637 33.9106C65.1024 32.917 64.8218 31.783 64.8218 30.5086C64.8218 29.2723 65.11 28.1535 65.6865 27.1523C66.2629 26.151 67.0442 25.3697 68.0303 24.8084C69.0164 24.2471 70.1162 23.9665 71.3298 23.9665C72.6952 23.9665 73.8898 24.2699 74.9138 24.8767C75.9454 25.4835 76.7153 26.3444 77.2235 27.4595C77.7393 28.5669 77.9252 29.8374 77.781 31.271H68.0352C68.0624 31.8421 68.2049 32.3618 68.4627 32.8298C68.7509 33.3455 69.1529 33.7475 69.6686 34.0358C70.1845 34.324 70.7609 34.4681 71.3982 34.4681C71.8835 34.4605 72.3349 34.3771 72.752 34.2179C73.1693 34.051 73.5219 33.8273 73.8102 33.5465C74.106 33.2659 74.3147 32.9474 74.436 32.5909H77.69C77.4928 33.4631 77.0984 34.2406 76.5068 34.9233C75.915 35.5984 75.1718 36.1255 74.2766 36.5048C73.3817 36.884 72.4032 37.0699 71.3413 37.0623ZM68.474 28.1421C68.2923 28.4591 68.1663 28.8004 68.0962 29.1661H74.5565C74.5097 28.7041 74.367 28.2832 74.1288 27.9032C73.8557 27.4557 73.484 27.1105 73.0138 26.8678C72.5435 26.6175 72.0125 26.4924 71.4209 26.4924C70.7913 26.4924 70.2187 26.6365 69.7028 26.9247C69.187 27.2129 68.7774 27.6188 68.474 28.1421ZM94.5178 24.2282C94.5178 23.2118 94.749 22.3092 95.2118 21.5203C95.6744 20.7239 96.323 20.1057 97.1574 19.6657C97.9993 19.2182 98.9816 18.9868 100.104 18.9717V21.7365C99.5808 21.7441 99.1333 21.854 98.7616 22.0664C98.3975 22.2712 98.1169 22.5708 97.9196 22.9653C97.7381 23.3284 97.6401 23.7494 97.6258 24.2282H100.036V26.8565H97.6239V36.7665H94.5178V26.8565H92.5153V24.2282H94.5178ZM112.335 37.0395C111.068 37.0395 109.934 36.7626 108.933 36.209C107.939 35.6476 107.158 34.874 106.589 33.8878C106.028 32.8942 105.747 31.7678 105.747 30.5086C105.747 29.242 106.028 28.1117 106.589 27.1181C107.158 26.1168 107.939 25.3393 108.933 24.7856C109.934 24.2319 111.068 23.955 112.335 23.955C113.609 23.955 114.747 24.2319 115.748 24.7856C116.757 25.3393 117.542 26.113 118.103 27.1067C118.665 28.1003 118.949 29.2343 118.957 30.5086C118.949 31.7678 118.665 32.8942 118.103 33.8878C117.55 34.874 116.768 35.6476 115.759 36.209C114.751 36.7626 113.609 37.0395 112.335 37.0395ZM112.335 34.1837C113.002 34.1837 113.594 34.032 114.11 33.7286C114.626 33.4176 115.024 32.9852 115.304 32.4315C115.585 31.8702 115.725 31.2292 115.725 30.5086C115.725 29.7805 115.585 29.1357 115.304 28.5744C115.024 28.0131 114.626 27.5808 114.11 27.2774C113.594 26.9664 113.002 26.8109 112.335 26.8109C111.675 26.8109 111.087 26.9664 110.571 27.2774C110.063 27.5808 109.669 28.0131 109.388 28.5744C109.107 29.1357 108.971 29.7805 108.978 30.5086C108.978 31.2292 109.119 31.8702 109.399 32.4315C109.688 32.9852 110.082 33.4176 110.583 33.7286C111.091 34.032 111.675 34.1837 112.335 34.1837ZM122.313 24.2282H118.854L122.598 36.7665H125.624L128.086 28.7583L130.744 36.7665H133.725L137.48 24.2282H134.351L132.221 32.0325L129.867 24.2282H126.841L124.499 32.2044L122.313 24.2282Z" fill="black"/>
</svg>
