<svg width="200" height="56" viewBox="0 0 200 56" fill="none" xmlns="http://www.w3.org/2000/svg">
<path fill-rule="evenodd" clip-rule="evenodd" d="M68.5693 16.7495L57.0598 39.2495H46.249L51.0658 29.9245H50.8496C46.8759 35.083 40.9469 38.4789 32.499 39.2495V30.0536C32.499 30.0536 37.9033 29.7344 41.0804 26.3942H32.499V16.7497H42.1435V24.6822L42.36 24.6813L46.3011 16.7497H53.595V24.6319L53.8114 24.6315L57.9004 16.7495H68.5693ZM131.332 36.766H134.438V18.937H131.332V36.766ZM114.208 36.584C114.883 36.8646 115.57 37.005 116.268 37.005C117.42 37.005 118.452 36.7243 119.362 36.163C120.272 35.6017 120.978 34.8281 121.479 33.842C121.979 32.8483 122.229 31.7218 122.229 30.4627C122.229 29.2036 121.972 28.0772 121.456 27.0836C120.94 26.0899 120.223 25.32 119.305 24.7739C118.388 24.2202 117.345 23.9471 116.176 23.9547C115.433 23.9547 114.72 24.0988 114.037 24.387C113.355 24.6753 112.786 25.0849 112.331 25.6158C112.296 25.6563 112.262 25.6971 112.228 25.7383V18.9485H109.111V36.7661H112.206L112.199 35.1016C112.279 35.1997 112.365 35.2956 112.456 35.3893C112.949 35.8976 113.533 36.2957 114.208 36.584ZM117.394 33.7055C116.886 34.0165 116.305 34.172 115.653 34.172C115.008 34.172 114.417 34.0126 113.878 33.6941C113.34 33.3678 112.911 32.9242 112.592 32.3628C112.281 31.8016 112.126 31.1643 112.126 30.4513C112.118 29.7383 112.27 29.1012 112.581 28.5399C112.9 27.971 113.328 27.5311 113.867 27.2201C114.405 26.9015 115.001 26.746 115.653 26.7536C116.305 26.746 116.886 26.8977 117.394 27.2087C117.91 27.5121 118.304 27.9483 118.577 28.5172C118.858 29.0785 118.998 29.7232 118.998 30.4513C118.998 31.1796 118.858 31.8243 118.577 32.3856C118.304 32.947 117.91 33.3868 117.394 33.7055ZM73.0691 20.0179H76.619L79.7945 31.6149L83.1726 20.0179H86.1308L89.7945 31.3822L92.8437 20.0179H96.0977L91.2963 36.7661H88.2357L84.5102 25.664L81.0905 36.7661H77.9957L73.0691 20.0179ZM101.34 37.0618C100.104 37.0694 98.9888 36.7963 97.9952 36.2427C97.0091 35.6813 96.2317 34.9038 95.6627 33.9102C95.1014 32.9165 94.8208 31.7825 94.8208 30.5082C94.8208 29.2718 95.1091 28.153 95.6856 27.1518C96.2619 26.1505 97.0432 25.3693 98.0293 24.808C99.0154 24.2467 100.115 23.966 101.329 23.966C102.694 23.966 103.889 24.2694 104.913 24.8762C105.944 25.483 106.714 26.344 107.223 27.459C107.738 28.5664 107.924 29.8369 107.78 31.2705H98.0342C98.0614 31.8417 98.2039 32.3613 98.4617 32.8293C98.7499 33.345 99.1519 33.747 99.6677 34.0353C100.184 34.3235 100.76 34.4677 101.397 34.4677C101.883 34.46 102.334 34.3767 102.751 34.2174C103.168 34.0505 103.521 33.8268 103.809 33.546C104.105 33.2654 104.314 32.9469 104.435 32.5904H107.689C107.492 33.4627 107.097 34.2402 106.506 34.9228C105.914 35.5979 105.171 36.125 104.276 36.5043C103.381 36.8835 102.402 37.0694 101.34 37.0618ZM98.4731 28.1416C98.2913 28.4586 98.1653 28.7999 98.0952 29.1657H104.556C104.509 28.7037 104.366 28.2827 104.128 27.9027C103.855 27.4552 103.483 27.1101 103.013 26.8673C102.543 26.617 102.012 26.4919 101.42 26.4919C100.79 26.4919 100.218 26.636 99.7018 26.9242C99.1861 27.2125 98.7764 27.6183 98.4731 28.1416ZM124.517 24.2277C124.517 23.2113 124.748 22.3087 125.211 21.5198C125.673 20.7234 126.322 20.1052 127.156 19.6652C127.998 19.2177 128.981 18.9864 130.103 18.9712V21.736C129.58 21.7436 129.132 21.8536 128.761 22.0659C128.397 22.2707 128.116 22.5704 127.919 22.9648C127.737 23.3279 127.639 23.7489 127.625 24.2277H130.035V26.856H127.623V36.7661H124.517V26.856H122.514V24.2277H124.517ZM142.334 37.039C141.067 37.039 139.933 36.7621 138.932 36.2085C137.938 35.6471 137.157 34.8735 136.588 33.8873C136.027 32.8937 135.746 31.7673 135.746 30.5081C135.746 29.2415 136.027 28.1112 136.588 27.1176C137.157 26.1163 137.938 25.3389 138.932 24.7851C139.933 24.2314 141.067 23.9546 142.334 23.9546C143.608 23.9546 144.746 24.2314 145.747 24.7851C146.756 25.3389 147.541 26.1125 148.102 27.1062C148.664 28.0999 148.948 29.2338 148.956 30.5081C148.948 31.7673 148.664 32.8937 148.102 33.8873C147.549 34.8735 146.767 35.6471 145.758 36.2085C144.75 36.7621 143.608 37.039 142.334 37.039ZM142.334 34.1832C143.001 34.1832 143.593 34.0315 144.109 33.7281C144.625 33.4171 145.023 32.9847 145.303 32.431C145.584 31.8697 145.724 31.2287 145.724 30.5081C145.724 29.78 145.584 29.1352 145.303 28.5739C145.023 28.0126 144.625 27.5803 144.109 27.2769C143.593 26.9659 143.001 26.8104 142.334 26.8104C141.674 26.8104 141.086 26.9659 140.57 27.2769C140.062 27.5803 139.668 28.0126 139.387 28.5739C139.106 29.1352 138.97 29.78 138.977 30.5081C138.977 31.2287 139.118 31.8697 139.398 32.431C139.687 32.9847 140.081 33.4171 140.582 33.7281C141.09 34.0315 141.674 34.1832 142.334 34.1832ZM152.312 24.2277H148.853L152.597 36.766H155.623L158.085 28.7578L160.743 36.766H163.724L167.479 24.2277H164.35L162.22 32.032L159.866 24.2277H156.841L154.498 32.2039L152.312 24.2277Z" fill="black"/>
<path d="M68.5693 16.7495L57.0598 39.2495H46.249L51.0658 29.9245H50.8496C46.8759 35.083 40.9469 38.4789 32.499 39.2495V30.0536C32.499 30.0536 37.9033 29.7344 41.0804 26.3942H32.499V16.7497H42.1435V24.6822L42.36 24.6813L46.3011 16.7497H53.595V24.6319L53.8114 24.6315L57.9004 16.7495H68.5693ZM131.332 36.766H134.438V18.937H131.332V36.766ZM114.208 36.584C114.883 36.8646 115.57 37.005 116.268 37.005C117.42 37.005 118.452 36.7243 119.362 36.163C120.272 35.6017 120.978 34.8281 121.479 33.842C121.979 32.8483 122.229 31.7218 122.229 30.4627C122.229 29.2036 121.972 28.0772 121.456 27.0836C120.94 26.0899 120.223 25.32 119.305 24.7739C118.388 24.2202 117.345 23.9471 116.176 23.9547C115.433 23.9547 114.72 24.0988 114.037 24.387C113.355 24.6753 112.786 25.0849 112.331 25.6158C112.296 25.6563 112.262 25.6971 112.228 25.7383V18.9485H109.111V36.7661H112.206L112.199 35.1016C112.279 35.1997 112.365 35.2956 112.456 35.3893C112.949 35.8976 113.533 36.2957 114.208 36.584ZM117.394 33.7055C116.886 34.0165 116.305 34.172 115.653 34.172C115.008 34.172 114.417 34.0126 113.878 33.6941C113.34 33.3678 112.911 32.9242 112.592 32.3628C112.281 31.8016 112.126 31.1643 112.126 30.4513C112.118 29.7383 112.27 29.1012 112.581 28.5399C112.9 27.971 113.328 27.5311 113.867 27.2201C114.405 26.9015 115.001 26.746 115.653 26.7536C116.305 26.746 116.886 26.8977 117.394 27.2087C117.91 27.5121 118.304 27.9483 118.577 28.5172C118.858 29.0785 118.998 29.7232 118.998 30.4513C118.998 31.1796 118.858 31.8243 118.577 32.3856C118.304 32.947 117.91 33.3868 117.394 33.7055ZM73.0691 20.0179H76.619L79.7945 31.6149L83.1726 20.0179H86.1308L89.7945 31.3822L92.8437 20.0179H96.0977L91.2963 36.7661H88.2357L84.5102 25.664L81.0905 36.7661H77.9957L73.0691 20.0179ZM101.34 37.0618C100.104 37.0694 98.9888 36.7963 97.9952 36.2427C97.0091 35.6813 96.2317 34.9038 95.6627 33.9102C95.1014 32.9165 94.8208 31.7825 94.8208 30.5082C94.8208 29.2718 95.1091 28.153 95.6856 27.1518C96.2619 26.1505 97.0432 25.3693 98.0293 24.808C99.0154 24.2467 100.115 23.966 101.329 23.966C102.694 23.966 103.889 24.2694 104.913 24.8762C105.944 25.483 106.714 26.344 107.223 27.459C107.738 28.5664 107.924 29.8369 107.78 31.2705H98.0342C98.0614 31.8417 98.2039 32.3613 98.4617 32.8293C98.7499 33.345 99.1519 33.747 99.6677 34.0353C100.184 34.3235 100.76 34.4677 101.397 34.4677C101.883 34.46 102.334 34.3767 102.751 34.2174C103.168 34.0505 103.521 33.8268 103.809 33.546C104.105 33.2654 104.314 32.9469 104.435 32.5904H107.689C107.492 33.4627 107.097 34.2402 106.506 34.9228C105.914 35.5979 105.171 36.125 104.276 36.5043C103.381 36.8835 102.402 37.0694 101.34 37.0618ZM98.4731 28.1416C98.2913 28.4586 98.1653 28.7999 98.0952 29.1657H104.556C104.509 28.7037 104.366 28.2827 104.128 27.9027C103.855 27.4552 103.483 27.1101 103.013 26.8673C102.543 26.617 102.012 26.4919 101.42 26.4919C100.79 26.4919 100.218 26.636 99.7018 26.9242C99.1861 27.2125 98.7764 27.6183 98.4731 28.1416ZM124.517 24.2277C124.517 23.2113 124.748 22.3087 125.211 21.5198C125.673 20.7234 126.322 20.1052 127.156 19.6652C127.998 19.2177 128.981 18.9864 130.103 18.9712V21.736C129.58 21.7436 129.132 21.8536 128.761 22.0659C128.397 22.2707 128.116 22.5704 127.919 22.9648C127.737 23.3279 127.639 23.7489 127.625 24.2277H130.035V26.856H127.623V36.7661H124.517V26.856H122.514V24.2277H124.517ZM142.334 37.039C141.067 37.039 139.933 36.7621 138.932 36.2085C137.938 35.6471 137.157 34.8735 136.588 33.8873C136.027 32.8937 135.746 31.7673 135.746 30.5081C135.746 29.2415 136.027 28.1112 136.588 27.1176C137.157 26.1163 137.938 25.3389 138.932 24.7851C139.933 24.2314 141.067 23.9546 142.334 23.9546C143.608 23.9546 144.746 24.2314 145.747 24.7851C146.756 25.3389 147.541 26.1125 148.102 27.1062C148.664 28.0999 148.948 29.2338 148.956 30.5081C148.948 31.7673 148.664 32.8937 148.102 33.8873C147.549 34.8735 146.767 35.6471 145.758 36.2085C144.75 36.7621 143.608 37.039 142.334 37.039ZM142.334 34.1832C143.001 34.1832 143.593 34.0315 144.109 33.7281C144.625 33.4171 145.023 32.9847 145.303 32.431C145.584 31.8697 145.724 31.2287 145.724 30.5081C145.724 29.78 145.584 29.1352 145.303 28.5739C145.023 28.0126 144.625 27.5803 144.109 27.2769C143.593 26.9659 143.001 26.8104 142.334 26.8104C141.674 26.8104 141.086 26.9659 140.57 27.2769C140.062 27.5803 139.668 28.0126 139.387 28.5739C139.106 29.1352 138.97 29.78 138.977 30.5081C138.977 31.2287 139.118 31.8697 139.398 32.431C139.687 32.9847 140.081 33.4171 140.582 33.7281C141.09 34.0315 141.674 34.1832 142.334 34.1832ZM152.312 24.2277H148.853L152.597 36.766H155.623L158.085 28.7578L160.743 36.766H163.724L167.479 24.2277H164.35L162.22 32.032L159.866 24.2277H156.841L154.498 32.2039L152.312 24.2277Z" fill="black"/>
<path fill-rule="evenodd" clip-rule="evenodd" d="M68.5693 16.7495L57.0598 39.2495H46.249L51.0658 29.9245H50.8496C46.8759 35.083 40.9469 38.4789 32.499 39.2495V30.0536C32.499 30.0536 37.9033 29.7344 41.0804 26.3942H32.499V16.7497H42.1435V24.6822L42.36 24.6813L46.3011 16.7497H53.595V24.6319L53.8114 24.6315L57.9004 16.7495H68.5693ZM131.332 36.766H134.438V18.937H131.332V36.766ZM114.208 36.584C114.883 36.8646 115.57 37.005 116.268 37.005C117.42 37.005 118.452 36.7243 119.362 36.163C120.272 35.6017 120.978 34.8281 121.479 33.842C121.979 32.8483 122.229 31.7218 122.229 30.4627C122.229 29.2036 121.972 28.0772 121.456 27.0836C120.94 26.0899 120.223 25.32 119.305 24.7739C118.388 24.2202 117.345 23.9471 116.176 23.9547C115.433 23.9547 114.72 24.0988 114.037 24.387C113.355 24.6753 112.786 25.0849 112.331 25.6158C112.296 25.6563 112.262 25.6971 112.228 25.7383V18.9485H109.111V36.7661H112.206L112.199 35.1016C112.279 35.1997 112.365 35.2956 112.456 35.3893C112.949 35.8976 113.533 36.2957 114.208 36.584ZM117.394 33.7055C116.886 34.0165 116.305 34.172 115.653 34.172C115.008 34.172 114.417 34.0126 113.878 33.6941C113.34 33.3678 112.911 32.9242 112.592 32.3628C112.281 31.8016 112.126 31.1643 112.126 30.4513C112.118 29.7383 112.27 29.1012 112.581 28.5399C112.9 27.971 113.328 27.5311 113.867 27.2201C114.405 26.9015 115.001 26.746 115.653 26.7536C116.305 26.746 116.886 26.8977 117.394 27.2087C117.91 27.5121 118.304 27.9483 118.577 28.5172C118.858 29.0785 118.998 29.7232 118.998 30.4513C118.998 31.1796 118.858 31.8243 118.577 32.3856C118.304 32.947 117.91 33.3868 117.394 33.7055ZM73.0691 20.0179H76.619L79.7945 31.6149L83.1726 20.0179H86.1308L89.7945 31.3822L92.8437 20.0179H96.0977L91.2963 36.7661H88.2357L84.5102 25.664L81.0905 36.7661H77.9957L73.0691 20.0179ZM101.34 37.0618C100.104 37.0694 98.9888 36.7963 97.9952 36.2427C97.0091 35.6813 96.2317 34.9038 95.6627 33.9102C95.1014 32.9165 94.8208 31.7825 94.8208 30.5082C94.8208 29.2718 95.1091 28.153 95.6856 27.1518C96.2619 26.1505 97.0432 25.3693 98.0293 24.808C99.0154 24.2467 100.115 23.966 101.329 23.966C102.694 23.966 103.889 24.2694 104.913 24.8762C105.944 25.483 106.714 26.344 107.223 27.459C107.738 28.5664 107.924 29.8369 107.78 31.2705H98.0342C98.0614 31.8417 98.2039 32.3613 98.4617 32.8293C98.7499 33.345 99.1519 33.747 99.6677 34.0353C100.184 34.3235 100.76 34.4677 101.397 34.4677C101.883 34.46 102.334 34.3767 102.751 34.2174C103.168 34.0505 103.521 33.8268 103.809 33.546C104.105 33.2654 104.314 32.9469 104.435 32.5904H107.689C107.492 33.4627 107.097 34.2402 106.506 34.9228C105.914 35.5979 105.171 36.125 104.276 36.5043C103.381 36.8835 102.402 37.0694 101.34 37.0618ZM98.4731 28.1416C98.2913 28.4586 98.1653 28.7999 98.0952 29.1657H104.556C104.509 28.7037 104.366 28.2827 104.128 27.9027C103.855 27.4552 103.483 27.1101 103.013 26.8673C102.543 26.617 102.012 26.4919 101.42 26.4919C100.79 26.4919 100.218 26.636 99.7018 26.9242C99.1861 27.2125 98.7764 27.6183 98.4731 28.1416ZM124.517 24.2277C124.517 23.2113 124.748 22.3087 125.211 21.5198C125.673 20.7234 126.322 20.1052 127.156 19.6652C127.998 19.2177 128.981 18.9864 130.103 18.9712V21.736C129.58 21.7436 129.132 21.8536 128.761 22.0659C128.397 22.2707 128.116 22.5704 127.919 22.9648C127.737 23.3279 127.639 23.7489 127.625 24.2277H130.035V26.856H127.623V36.7661H124.517V26.856H122.514V24.2277H124.517ZM142.334 37.039C141.067 37.039 139.933 36.7621 138.932 36.2085C137.938 35.6471 137.157 34.8735 136.588 33.8873C136.027 32.8937 135.746 31.7673 135.746 30.5081C135.746 29.2415 136.027 28.1112 136.588 27.1176C137.157 26.1163 137.938 25.3389 138.932 24.7851C139.933 24.2314 141.067 23.9546 142.334 23.9546C143.608 23.9546 144.746 24.2314 145.747 24.7851C146.756 25.3389 147.541 26.1125 148.102 27.1062C148.664 28.0999 148.948 29.2338 148.956 30.5081C148.948 31.7673 148.664 32.8937 148.102 33.8873C147.549 34.8735 146.767 35.6471 145.758 36.2085C144.75 36.7621 143.608 37.039 142.334 37.039ZM142.334 34.1832C143.001 34.1832 143.593 34.0315 144.109 33.7281C144.625 33.4171 145.023 32.9847 145.303 32.431C145.584 31.8697 145.724 31.2287 145.724 30.5081C145.724 29.78 145.584 29.1352 145.303 28.5739C145.023 28.0126 144.625 27.5803 144.109 27.2769C143.593 26.9659 143.001 26.8104 142.334 26.8104C141.674 26.8104 141.086 26.9659 140.57 27.2769C140.062 27.5803 139.668 28.0126 139.387 28.5739C139.106 29.1352 138.97 29.78 138.977 30.5081C138.977 31.2287 139.118 31.8697 139.398 32.431C139.687 32.9847 140.081 33.4171 140.582 33.7281C141.09 34.0315 141.674 34.1832 142.334 34.1832ZM152.312 24.2277H148.853L152.597 36.766H155.623L158.085 28.7578L160.743 36.766H163.724L167.479 24.2277H164.35L162.22 32.032L159.866 24.2277H156.841L154.498 32.2039L152.312 24.2277Z" fill="black"/>
<path d="M68.5693 16.7495L57.0598 39.2495H46.249L51.0658 29.9245H50.8496C46.8759 35.083 40.9469 38.4789 32.499 39.2495V30.0536C32.499 30.0536 37.9033 29.7344 41.0804 26.3942H32.499V16.7497H42.1435V24.6822L42.36 24.6813L46.3011 16.7497H53.595V24.6319L53.8114 24.6315L57.9004 16.7495H68.5693ZM131.332 36.766H134.438V18.937H131.332V36.766ZM114.208 36.584C114.883 36.8646 115.57 37.005 116.268 37.005C117.42 37.005 118.452 36.7243 119.362 36.163C120.272 35.6017 120.978 34.8281 121.479 33.842C121.979 32.8483 122.229 31.7218 122.229 30.4627C122.229 29.2036 121.972 28.0772 121.456 27.0836C120.94 26.0899 120.223 25.32 119.305 24.7739C118.388 24.2202 117.345 23.9471 116.176 23.9547C115.433 23.9547 114.72 24.0988 114.037 24.387C113.355 24.6753 112.786 25.0849 112.331 25.6158C112.296 25.6563 112.262 25.6971 112.228 25.7383V18.9485H109.111V36.7661H112.206L112.199 35.1016C112.279 35.1997 112.365 35.2956 112.456 35.3893C112.949 35.8976 113.533 36.2957 114.208 36.584ZM117.394 33.7055C116.886 34.0165 116.305 34.172 115.653 34.172C115.008 34.172 114.417 34.0126 113.878 33.6941C113.34 33.3678 112.911 32.9242 112.592 32.3628C112.281 31.8016 112.126 31.1643 112.126 30.4513C112.118 29.7383 112.27 29.1012 112.581 28.5399C112.9 27.971 113.328 27.5311 113.867 27.2201C114.405 26.9015 115.001 26.746 115.653 26.7536C116.305 26.746 116.886 26.8977 117.394 27.2087C117.91 27.5121 118.304 27.9483 118.577 28.5172C118.858 29.0785 118.998 29.7232 118.998 30.4513C118.998 31.1796 118.858 31.8243 118.577 32.3856C118.304 32.947 117.91 33.3868 117.394 33.7055ZM73.0691 20.0179H76.619L79.7945 31.6149L83.1726 20.0179H86.1308L89.7945 31.3822L92.8437 20.0179H96.0977L91.2963 36.7661H88.2357L84.5102 25.664L81.0905 36.7661H77.9957L73.0691 20.0179ZM101.34 37.0618C100.104 37.0694 98.9888 36.7963 97.9952 36.2427C97.0091 35.6813 96.2317 34.9038 95.6627 33.9102C95.1014 32.9165 94.8208 31.7825 94.8208 30.5082C94.8208 29.2718 95.1091 28.153 95.6856 27.1518C96.2619 26.1505 97.0432 25.3693 98.0293 24.808C99.0154 24.2467 100.115 23.966 101.329 23.966C102.694 23.966 103.889 24.2694 104.913 24.8762C105.944 25.483 106.714 26.344 107.223 27.459C107.738 28.5664 107.924 29.8369 107.78 31.2705H98.0342C98.0614 31.8417 98.2039 32.3613 98.4617 32.8293C98.7499 33.345 99.1519 33.747 99.6677 34.0353C100.184 34.3235 100.76 34.4677 101.397 34.4677C101.883 34.46 102.334 34.3767 102.751 34.2174C103.168 34.0505 103.521 33.8268 103.809 33.546C104.105 33.2654 104.314 32.9469 104.435 32.5904H107.689C107.492 33.4627 107.097 34.2402 106.506 34.9228C105.914 35.5979 105.171 36.125 104.276 36.5043C103.381 36.8835 102.402 37.0694 101.34 37.0618ZM98.4731 28.1416C98.2913 28.4586 98.1653 28.7999 98.0952 29.1657H104.556C104.509 28.7037 104.366 28.2827 104.128 27.9027C103.855 27.4552 103.483 27.1101 103.013 26.8673C102.543 26.617 102.012 26.4919 101.42 26.4919C100.79 26.4919 100.218 26.636 99.7018 26.9242C99.1861 27.2125 98.7764 27.6183 98.4731 28.1416ZM124.517 24.2277C124.517 23.2113 124.748 22.3087 125.211 21.5198C125.673 20.7234 126.322 20.1052 127.156 19.6652C127.998 19.2177 128.981 18.9864 130.103 18.9712V21.736C129.58 21.7436 129.132 21.8536 128.761 22.0659C128.397 22.2707 128.116 22.5704 127.919 22.9648C127.737 23.3279 127.639 23.7489 127.625 24.2277H130.035V26.856H127.623V36.7661H124.517V26.856H122.514V24.2277H124.517ZM142.334 37.039C141.067 37.039 139.933 36.7621 138.932 36.2085C137.938 35.6471 137.157 34.8735 136.588 33.8873C136.027 32.8937 135.746 31.7673 135.746 30.5081C135.746 29.2415 136.027 28.1112 136.588 27.1176C137.157 26.1163 137.938 25.3389 138.932 24.7851C139.933 24.2314 141.067 23.9546 142.334 23.9546C143.608 23.9546 144.746 24.2314 145.747 24.7851C146.756 25.3389 147.541 26.1125 148.102 27.1062C148.664 28.0999 148.948 29.2338 148.956 30.5081C148.948 31.7673 148.664 32.8937 148.102 33.8873C147.549 34.8735 146.767 35.6471 145.758 36.2085C144.75 36.7621 143.608 37.039 142.334 37.039ZM142.334 34.1832C143.001 34.1832 143.593 34.0315 144.109 33.7281C144.625 33.4171 145.023 32.9847 145.303 32.431C145.584 31.8697 145.724 31.2287 145.724 30.5081C145.724 29.78 145.584 29.1352 145.303 28.5739C145.023 28.0126 144.625 27.5803 144.109 27.2769C143.593 26.9659 143.001 26.8104 142.334 26.8104C141.674 26.8104 141.086 26.9659 140.57 27.2769C140.062 27.5803 139.668 28.0126 139.387 28.5739C139.106 29.1352 138.97 29.78 138.977 30.5081C138.977 31.2287 139.118 31.8697 139.398 32.431C139.687 32.9847 140.081 33.4171 140.582 33.7281C141.09 34.0315 141.674 34.1832 142.334 34.1832ZM152.312 24.2277H148.853L152.597 36.766H155.623L158.085 28.7578L160.743 36.766H163.724L167.479 24.2277H164.35L162.22 32.032L159.866 24.2277H156.841L154.498 32.2039L152.312 24.2277Z" fill="black"/>
<path fill-rule="evenodd" clip-rule="evenodd" d="M68.5693 16.7495L57.0598 39.2495H46.249L51.0658 29.9245H50.8496C46.8759 35.083 40.9469 38.4789 32.499 39.2495V30.0536C32.499 30.0536 37.9033 29.7344 41.0804 26.3942H32.499V16.7497H42.1435V24.6822L42.36 24.6813L46.3011 16.7497H53.595V24.6319L53.8114 24.6315L57.9004 16.7495H68.5693ZM131.332 36.766H134.438V18.937H131.332V36.766ZM114.208 36.584C114.883 36.8646 115.57 37.005 116.268 37.005C117.42 37.005 118.452 36.7243 119.362 36.163C120.272 35.6017 120.978 34.8281 121.479 33.842C121.979 32.8483 122.229 31.7218 122.229 30.4627C122.229 29.2036 121.972 28.0772 121.456 27.0836C120.94 26.0899 120.223 25.32 119.305 24.7739C118.388 24.2202 117.345 23.9471 116.176 23.9547C115.433 23.9547 114.72 24.0988 114.037 24.387C113.355 24.6753 112.786 25.0849 112.331 25.6158C112.296 25.6563 112.262 25.6971 112.228 25.7383V18.9485H109.111V36.7661H112.206L112.199 35.1016C112.279 35.1997 112.365 35.2956 112.456 35.3893C112.949 35.8976 113.533 36.2957 114.208 36.584ZM117.394 33.7055C116.886 34.0165 116.305 34.172 115.653 34.172C115.008 34.172 114.417 34.0126 113.878 33.6941C113.34 33.3678 112.911 32.9242 112.592 32.3628C112.281 31.8016 112.126 31.1643 112.126 30.4513C112.118 29.7383 112.27 29.1012 112.581 28.5399C112.9 27.971 113.328 27.5311 113.867 27.2201C114.405 26.9015 115.001 26.746 115.653 26.7536C116.305 26.746 116.886 26.8977 117.394 27.2087C117.91 27.5121 118.304 27.9483 118.577 28.5172C118.858 29.0785 118.998 29.7232 118.998 30.4513C118.998 31.1796 118.858 31.8243 118.577 32.3856C118.304 32.947 117.91 33.3868 117.394 33.7055ZM73.0691 20.0179H76.619L79.7945 31.6149L83.1726 20.0179H86.1308L89.7945 31.3822L92.8437 20.0179H96.0977L91.2963 36.7661H88.2357L84.5102 25.664L81.0905 36.7661H77.9957L73.0691 20.0179ZM101.34 37.0618C100.104 37.0694 98.9888 36.7963 97.9952 36.2427C97.0091 35.6813 96.2317 34.9038 95.6627 33.9102C95.1014 32.9165 94.8208 31.7825 94.8208 30.5082C94.8208 29.2718 95.1091 28.153 95.6856 27.1518C96.2619 26.1505 97.0432 25.3693 98.0293 24.808C99.0154 24.2467 100.115 23.966 101.329 23.966C102.694 23.966 103.889 24.2694 104.913 24.8762C105.944 25.483 106.714 26.344 107.223 27.459C107.738 28.5664 107.924 29.8369 107.78 31.2705H98.0342C98.0614 31.8417 98.2039 32.3613 98.4617 32.8293C98.7499 33.345 99.1519 33.747 99.6677 34.0353C100.184 34.3235 100.76 34.4677 101.397 34.4677C101.883 34.46 102.334 34.3767 102.751 34.2174C103.168 34.0505 103.521 33.8268 103.809 33.546C104.105 33.2654 104.314 32.9469 104.435 32.5904H107.689C107.492 33.4627 107.097 34.2402 106.506 34.9228C105.914 35.5979 105.171 36.125 104.276 36.5043C103.381 36.8835 102.402 37.0694 101.34 37.0618ZM98.4731 28.1416C98.2913 28.4586 98.1653 28.7999 98.0952 29.1657H104.556C104.509 28.7037 104.366 28.2827 104.128 27.9027C103.855 27.4552 103.483 27.1101 103.013 26.8673C102.543 26.617 102.012 26.4919 101.42 26.4919C100.79 26.4919 100.218 26.636 99.7018 26.9242C99.1861 27.2125 98.7764 27.6183 98.4731 28.1416ZM124.517 24.2277C124.517 23.2113 124.748 22.3087 125.211 21.5198C125.673 20.7234 126.322 20.1052 127.156 19.6652C127.998 19.2177 128.981 18.9864 130.103 18.9712V21.736C129.58 21.7436 129.132 21.8536 128.761 22.0659C128.397 22.2707 128.116 22.5704 127.919 22.9648C127.737 23.3279 127.639 23.7489 127.625 24.2277H130.035V26.856H127.623V36.7661H124.517V26.856H122.514V24.2277H124.517ZM142.334 37.039C141.067 37.039 139.933 36.7621 138.932 36.2085C137.938 35.6471 137.157 34.8735 136.588 33.8873C136.027 32.8937 135.746 31.7673 135.746 30.5081C135.746 29.2415 136.027 28.1112 136.588 27.1176C137.157 26.1163 137.938 25.3389 138.932 24.7851C139.933 24.2314 141.067 23.9546 142.334 23.9546C143.608 23.9546 144.746 24.2314 145.747 24.7851C146.756 25.3389 147.541 26.1125 148.102 27.1062C148.664 28.0999 148.948 29.2338 148.956 30.5081C148.948 31.7673 148.664 32.8937 148.102 33.8873C147.549 34.8735 146.767 35.6471 145.758 36.2085C144.75 36.7621 143.608 37.039 142.334 37.039ZM142.334 34.1832C143.001 34.1832 143.593 34.0315 144.109 33.7281C144.625 33.4171 145.023 32.9847 145.303 32.431C145.584 31.8697 145.724 31.2287 145.724 30.5081C145.724 29.78 145.584 29.1352 145.303 28.5739C145.023 28.0126 144.625 27.5803 144.109 27.2769C143.593 26.9659 143.001 26.8104 142.334 26.8104C141.674 26.8104 141.086 26.9659 140.57 27.2769C140.062 27.5803 139.668 28.0126 139.387 28.5739C139.106 29.1352 138.97 29.78 138.977 30.5081C138.977 31.2287 139.118 31.8697 139.398 32.431C139.687 32.9847 140.081 33.4171 140.582 33.7281C141.09 34.0315 141.674 34.1832 142.334 34.1832ZM152.312 24.2277H148.853L152.597 36.766H155.623L158.085 28.7578L160.743 36.766H163.724L167.479 24.2277H164.35L162.22 32.032L159.866 24.2277H156.841L154.498 32.2039L152.312 24.2277Z" fill="black"/>
<path d="M68.5693 16.7495L57.0598 39.2495H46.249L51.0658 29.9245H50.8496C46.8759 35.083 40.9469 38.4789 32.499 39.2495V30.0536C32.499 30.0536 37.9033 29.7344 41.0804 26.3942H32.499V16.7497H42.1435V24.6822L42.36 24.6813L46.3011 16.7497H53.595V24.6319L53.8114 24.6315L57.9004 16.7495H68.5693ZM131.332 36.766H134.438V18.937H131.332V36.766ZM114.208 36.584C114.883 36.8646 115.57 37.005 116.268 37.005C117.42 37.005 118.452 36.7243 119.362 36.163C120.272 35.6017 120.978 34.8281 121.479 33.842C121.979 32.8483 122.229 31.7218 122.229 30.4627C122.229 29.2036 121.972 28.0772 121.456 27.0836C120.94 26.0899 120.223 25.32 119.305 24.7739C118.388 24.2202 117.345 23.9471 116.176 23.9547C115.433 23.9547 114.72 24.0988 114.037 24.387C113.355 24.6753 112.786 25.0849 112.331 25.6158C112.296 25.6563 112.262 25.6971 112.228 25.7383V18.9485H109.111V36.7661H112.206L112.199 35.1016C112.279 35.1997 112.365 35.2956 112.456 35.3893C112.949 35.8976 113.533 36.2957 114.208 36.584ZM117.394 33.7055C116.886 34.0165 116.305 34.172 115.653 34.172C115.008 34.172 114.417 34.0126 113.878 33.6941C113.34 33.3678 112.911 32.9242 112.592 32.3628C112.281 31.8016 112.126 31.1643 112.126 30.4513C112.118 29.7383 112.27 29.1012 112.581 28.5399C112.9 27.971 113.328 27.5311 113.867 27.2201C114.405 26.9015 115.001 26.746 115.653 26.7536C116.305 26.746 116.886 26.8977 117.394 27.2087C117.91 27.5121 118.304 27.9483 118.577 28.5172C118.858 29.0785 118.998 29.7232 118.998 30.4513C118.998 31.1796 118.858 31.8243 118.577 32.3856C118.304 32.947 117.91 33.3868 117.394 33.7055ZM73.0691 20.0179H76.619L79.7945 31.6149L83.1726 20.0179H86.1308L89.7945 31.3822L92.8437 20.0179H96.0977L91.2963 36.7661H88.2357L84.5102 25.664L81.0905 36.7661H77.9957L73.0691 20.0179ZM101.34 37.0618C100.104 37.0694 98.9888 36.7963 97.9952 36.2427C97.0091 35.6813 96.2317 34.9038 95.6627 33.9102C95.1014 32.9165 94.8208 31.7825 94.8208 30.5082C94.8208 29.2718 95.1091 28.153 95.6856 27.1518C96.2619 26.1505 97.0432 25.3693 98.0293 24.808C99.0154 24.2467 100.115 23.966 101.329 23.966C102.694 23.966 103.889 24.2694 104.913 24.8762C105.944 25.483 106.714 26.344 107.223 27.459C107.738 28.5664 107.924 29.8369 107.78 31.2705H98.0342C98.0614 31.8417 98.2039 32.3613 98.4617 32.8293C98.7499 33.345 99.1519 33.747 99.6677 34.0353C100.184 34.3235 100.76 34.4677 101.397 34.4677C101.883 34.46 102.334 34.3767 102.751 34.2174C103.168 34.0505 103.521 33.8268 103.809 33.546C104.105 33.2654 104.314 32.9469 104.435 32.5904H107.689C107.492 33.4627 107.097 34.2402 106.506 34.9228C105.914 35.5979 105.171 36.125 104.276 36.5043C103.381 36.8835 102.402 37.0694 101.34 37.0618ZM98.4731 28.1416C98.2913 28.4586 98.1653 28.7999 98.0952 29.1657H104.556C104.509 28.7037 104.366 28.2827 104.128 27.9027C103.855 27.4552 103.483 27.1101 103.013 26.8673C102.543 26.617 102.012 26.4919 101.42 26.4919C100.79 26.4919 100.218 26.636 99.7018 26.9242C99.1861 27.2125 98.7764 27.6183 98.4731 28.1416ZM124.517 24.2277C124.517 23.2113 124.748 22.3087 125.211 21.5198C125.673 20.7234 126.322 20.1052 127.156 19.6652C127.998 19.2177 128.981 18.9864 130.103 18.9712V21.736C129.58 21.7436 129.132 21.8536 128.761 22.0659C128.397 22.2707 128.116 22.5704 127.919 22.9648C127.737 23.3279 127.639 23.7489 127.625 24.2277H130.035V26.856H127.623V36.7661H124.517V26.856H122.514V24.2277H124.517ZM142.334 37.039C141.067 37.039 139.933 36.7621 138.932 36.2085C137.938 35.6471 137.157 34.8735 136.588 33.8873C136.027 32.8937 135.746 31.7673 135.746 30.5081C135.746 29.2415 136.027 28.1112 136.588 27.1176C137.157 26.1163 137.938 25.3389 138.932 24.7851C139.933 24.2314 141.067 23.9546 142.334 23.9546C143.608 23.9546 144.746 24.2314 145.747 24.7851C146.756 25.3389 147.541 26.1125 148.102 27.1062C148.664 28.0999 148.948 29.2338 148.956 30.5081C148.948 31.7673 148.664 32.8937 148.102 33.8873C147.549 34.8735 146.767 35.6471 145.758 36.2085C144.75 36.7621 143.608 37.039 142.334 37.039ZM142.334 34.1832C143.001 34.1832 143.593 34.0315 144.109 33.7281C144.625 33.4171 145.023 32.9847 145.303 32.431C145.584 31.8697 145.724 31.2287 145.724 30.5081C145.724 29.78 145.584 29.1352 145.303 28.5739C145.023 28.0126 144.625 27.5803 144.109 27.2769C143.593 26.9659 143.001 26.8104 142.334 26.8104C141.674 26.8104 141.086 26.9659 140.57 27.2769C140.062 27.5803 139.668 28.0126 139.387 28.5739C139.106 29.1352 138.97 29.78 138.977 30.5081C138.977 31.2287 139.118 31.8697 139.398 32.431C139.687 32.9847 140.081 33.4171 140.582 33.7281C141.09 34.0315 141.674 34.1832 142.334 34.1832ZM152.312 24.2277H148.853L152.597 36.766H155.623L158.085 28.7578L160.743 36.766H163.724L167.479 24.2277H164.35L162.22 32.032L159.866 24.2277H156.841L154.498 32.2039L152.312 24.2277Z" fill="black"/>
<path fill-rule="evenodd" clip-rule="evenodd" d="M68.5693 16.7495L57.0598 39.2495H46.249L51.0658 29.9245H50.8496C46.8759 35.083 40.9469 38.4789 32.499 39.2495V30.0536C32.499 30.0536 37.9033 29.7344 41.0804 26.3942H32.499V16.7497H42.1435V24.6822L42.36 24.6813L46.3011 16.7497H53.595V24.6319L53.8114 24.6315L57.9004 16.7495H68.5693ZM131.332 36.766H134.438V18.937H131.332V36.766ZM114.208 36.584C114.883 36.8646 115.57 37.005 116.268 37.005C117.42 37.005 118.452 36.7243 119.362 36.163C120.272 35.6017 120.978 34.8281 121.479 33.842C121.979 32.8483 122.229 31.7218 122.229 30.4627C122.229 29.2036 121.972 28.0772 121.456 27.0836C120.94 26.0899 120.223 25.32 119.305 24.7739C118.388 24.2202 117.345 23.9471 116.176 23.9547C115.433 23.9547 114.72 24.0988 114.037 24.387C113.355 24.6753 112.786 25.0849 112.331 25.6158C112.296 25.6563 112.262 25.6971 112.228 25.7383V18.9485H109.111V36.7661H112.206L112.199 35.1016C112.279 35.1997 112.365 35.2956 112.456 35.3893C112.949 35.8976 113.533 36.2957 114.208 36.584ZM117.394 33.7055C116.886 34.0165 116.305 34.172 115.653 34.172C115.008 34.172 114.417 34.0126 113.878 33.6941C113.34 33.3678 112.911 32.9242 112.592 32.3628C112.281 31.8016 112.126 31.1643 112.126 30.4513C112.118 29.7383 112.27 29.1012 112.581 28.5399C112.9 27.971 113.328 27.5311 113.867 27.2201C114.405 26.9015 115.001 26.746 115.653 26.7536C116.305 26.746 116.886 26.8977 117.394 27.2087C117.91 27.5121 118.304 27.9483 118.577 28.5172C118.858 29.0785 118.998 29.7232 118.998 30.4513C118.998 31.1796 118.858 31.8243 118.577 32.3856C118.304 32.947 117.91 33.3868 117.394 33.7055ZM73.0691 20.0179H76.619L79.7945 31.6149L83.1726 20.0179H86.1308L89.7945 31.3822L92.8437 20.0179H96.0977L91.2963 36.7661H88.2357L84.5102 25.664L81.0905 36.7661H77.9957L73.0691 20.0179ZM101.34 37.0618C100.104 37.0694 98.9888 36.7963 97.9952 36.2427C97.0091 35.6813 96.2317 34.9038 95.6627 33.9102C95.1014 32.9165 94.8208 31.7825 94.8208 30.5082C94.8208 29.2718 95.1091 28.153 95.6856 27.1518C96.2619 26.1505 97.0432 25.3693 98.0293 24.808C99.0154 24.2467 100.115 23.966 101.329 23.966C102.694 23.966 103.889 24.2694 104.913 24.8762C105.944 25.483 106.714 26.344 107.223 27.459C107.738 28.5664 107.924 29.8369 107.78 31.2705H98.0342C98.0614 31.8417 98.2039 32.3613 98.4617 32.8293C98.7499 33.345 99.1519 33.747 99.6677 34.0353C100.184 34.3235 100.76 34.4677 101.397 34.4677C101.883 34.46 102.334 34.3767 102.751 34.2174C103.168 34.0505 103.521 33.8268 103.809 33.546C104.105 33.2654 104.314 32.9469 104.435 32.5904H107.689C107.492 33.4627 107.097 34.2402 106.506 34.9228C105.914 35.5979 105.171 36.125 104.276 36.5043C103.381 36.8835 102.402 37.0694 101.34 37.0618ZM98.4731 28.1416C98.2913 28.4586 98.1653 28.7999 98.0952 29.1657H104.556C104.509 28.7037 104.366 28.2827 104.128 27.9027C103.855 27.4552 103.483 27.1101 103.013 26.8673C102.543 26.617 102.012 26.4919 101.42 26.4919C100.79 26.4919 100.218 26.636 99.7018 26.9242C99.1861 27.2125 98.7764 27.6183 98.4731 28.1416ZM124.517 24.2277C124.517 23.2113 124.748 22.3087 125.211 21.5198C125.673 20.7234 126.322 20.1052 127.156 19.6652C127.998 19.2177 128.981 18.9864 130.103 18.9712V21.736C129.58 21.7436 129.132 21.8536 128.761 22.0659C128.397 22.2707 128.116 22.5704 127.919 22.9648C127.737 23.3279 127.639 23.7489 127.625 24.2277H130.035V26.856H127.623V36.7661H124.517V26.856H122.514V24.2277H124.517ZM142.334 37.039C141.067 37.039 139.933 36.7621 138.932 36.2085C137.938 35.6471 137.157 34.8735 136.588 33.8873C136.027 32.8937 135.746 31.7673 135.746 30.5081C135.746 29.2415 136.027 28.1112 136.588 27.1176C137.157 26.1163 137.938 25.3389 138.932 24.7851C139.933 24.2314 141.067 23.9546 142.334 23.9546C143.608 23.9546 144.746 24.2314 145.747 24.7851C146.756 25.3389 147.541 26.1125 148.102 27.1062C148.664 28.0999 148.948 29.2338 148.956 30.5081C148.948 31.7673 148.664 32.8937 148.102 33.8873C147.549 34.8735 146.767 35.6471 145.758 36.2085C144.75 36.7621 143.608 37.039 142.334 37.039ZM142.334 34.1832C143.001 34.1832 143.593 34.0315 144.109 33.7281C144.625 33.4171 145.023 32.9847 145.303 32.431C145.584 31.8697 145.724 31.2287 145.724 30.5081C145.724 29.78 145.584 29.1352 145.303 28.5739C145.023 28.0126 144.625 27.5803 144.109 27.2769C143.593 26.9659 143.001 26.8104 142.334 26.8104C141.674 26.8104 141.086 26.9659 140.57 27.2769C140.062 27.5803 139.668 28.0126 139.387 28.5739C139.106 29.1352 138.97 29.78 138.977 30.5081C138.977 31.2287 139.118 31.8697 139.398 32.431C139.687 32.9847 140.081 33.4171 140.582 33.7281C141.09 34.0315 141.674 34.1832 142.334 34.1832ZM152.312 24.2277H148.853L152.597 36.766H155.623L158.085 28.7578L160.743 36.766H163.724L167.479 24.2277H164.35L162.22 32.032L159.866 24.2277H156.841L154.498 32.2039L152.312 24.2277Z" fill="black"/>
<path d="M68.5693 16.7495L57.0598 39.2495H46.249L51.0658 29.9245H50.8496C46.8759 35.083 40.9469 38.4789 32.499 39.2495V30.0536C32.499 30.0536 37.9033 29.7344 41.0804 26.3942H32.499V16.7497H42.1435V24.6822L42.36 24.6813L46.3011 16.7497H53.595V24.6319L53.8114 24.6315L57.9004 16.7495H68.5693ZM131.332 36.766H134.438V18.937H131.332V36.766ZM114.208 36.584C114.883 36.8646 115.57 37.005 116.268 37.005C117.42 37.005 118.452 36.7243 119.362 36.163C120.272 35.6017 120.978 34.8281 121.479 33.842C121.979 32.8483 122.229 31.7218 122.229 30.4627C122.229 29.2036 121.972 28.0772 121.456 27.0836C120.94 26.0899 120.223 25.32 119.305 24.7739C118.388 24.2202 117.345 23.9471 116.176 23.9547C115.433 23.9547 114.72 24.0988 114.037 24.387C113.355 24.6753 112.786 25.0849 112.331 25.6158C112.296 25.6563 112.262 25.6971 112.228 25.7383V18.9485H109.111V36.7661H112.206L112.199 35.1016C112.279 35.1997 112.365 35.2956 112.456 35.3893C112.949 35.8976 113.533 36.2957 114.208 36.584ZM117.394 33.7055C116.886 34.0165 116.305 34.172 115.653 34.172C115.008 34.172 114.417 34.0126 113.878 33.6941C113.34 33.3678 112.911 32.9242 112.592 32.3628C112.281 31.8016 112.126 31.1643 112.126 30.4513C112.118 29.7383 112.27 29.1012 112.581 28.5399C112.9 27.971 113.328 27.5311 113.867 27.2201C114.405 26.9015 115.001 26.746 115.653 26.7536C116.305 26.746 116.886 26.8977 117.394 27.2087C117.91 27.5121 118.304 27.9483 118.577 28.5172C118.858 29.0785 118.998 29.7232 118.998 30.4513C118.998 31.1796 118.858 31.8243 118.577 32.3856C118.304 32.947 117.91 33.3868 117.394 33.7055ZM73.0691 20.0179H76.619L79.7945 31.6149L83.1726 20.0179H86.1308L89.7945 31.3822L92.8437 20.0179H96.0977L91.2963 36.7661H88.2357L84.5102 25.664L81.0905 36.7661H77.9957L73.0691 20.0179ZM101.34 37.0618C100.104 37.0694 98.9888 36.7963 97.9952 36.2427C97.0091 35.6813 96.2317 34.9038 95.6627 33.9102C95.1014 32.9165 94.8208 31.7825 94.8208 30.5082C94.8208 29.2718 95.1091 28.153 95.6856 27.1518C96.2619 26.1505 97.0432 25.3693 98.0293 24.808C99.0154 24.2467 100.115 23.966 101.329 23.966C102.694 23.966 103.889 24.2694 104.913 24.8762C105.944 25.483 106.714 26.344 107.223 27.459C107.738 28.5664 107.924 29.8369 107.78 31.2705H98.0342C98.0614 31.8417 98.2039 32.3613 98.4617 32.8293C98.7499 33.345 99.1519 33.747 99.6677 34.0353C100.184 34.3235 100.76 34.4677 101.397 34.4677C101.883 34.46 102.334 34.3767 102.751 34.2174C103.168 34.0505 103.521 33.8268 103.809 33.546C104.105 33.2654 104.314 32.9469 104.435 32.5904H107.689C107.492 33.4627 107.097 34.2402 106.506 34.9228C105.914 35.5979 105.171 36.125 104.276 36.5043C103.381 36.8835 102.402 37.0694 101.34 37.0618ZM98.4731 28.1416C98.2913 28.4586 98.1653 28.7999 98.0952 29.1657H104.556C104.509 28.7037 104.366 28.2827 104.128 27.9027C103.855 27.4552 103.483 27.1101 103.013 26.8673C102.543 26.617 102.012 26.4919 101.42 26.4919C100.79 26.4919 100.218 26.636 99.7018 26.9242C99.1861 27.2125 98.7764 27.6183 98.4731 28.1416ZM124.517 24.2277C124.517 23.2113 124.748 22.3087 125.211 21.5198C125.673 20.7234 126.322 20.1052 127.156 19.6652C127.998 19.2177 128.981 18.9864 130.103 18.9712V21.736C129.58 21.7436 129.132 21.8536 128.761 22.0659C128.397 22.2707 128.116 22.5704 127.919 22.9648C127.737 23.3279 127.639 23.7489 127.625 24.2277H130.035V26.856H127.623V36.7661H124.517V26.856H122.514V24.2277H124.517ZM142.334 37.039C141.067 37.039 139.933 36.7621 138.932 36.2085C137.938 35.6471 137.157 34.8735 136.588 33.8873C136.027 32.8937 135.746 31.7673 135.746 30.5081C135.746 29.2415 136.027 28.1112 136.588 27.1176C137.157 26.1163 137.938 25.3389 138.932 24.7851C139.933 24.2314 141.067 23.9546 142.334 23.9546C143.608 23.9546 144.746 24.2314 145.747 24.7851C146.756 25.3389 147.541 26.1125 148.102 27.1062C148.664 28.0999 148.948 29.2338 148.956 30.5081C148.948 31.7673 148.664 32.8937 148.102 33.8873C147.549 34.8735 146.767 35.6471 145.758 36.2085C144.75 36.7621 143.608 37.039 142.334 37.039ZM142.334 34.1832C143.001 34.1832 143.593 34.0315 144.109 33.7281C144.625 33.4171 145.023 32.9847 145.303 32.431C145.584 31.8697 145.724 31.2287 145.724 30.5081C145.724 29.78 145.584 29.1352 145.303 28.5739C145.023 28.0126 144.625 27.5803 144.109 27.2769C143.593 26.9659 143.001 26.8104 142.334 26.8104C141.674 26.8104 141.086 26.9659 140.57 27.2769C140.062 27.5803 139.668 28.0126 139.387 28.5739C139.106 29.1352 138.97 29.78 138.977 30.5081C138.977 31.2287 139.118 31.8697 139.398 32.431C139.687 32.9847 140.081 33.4171 140.582 33.7281C141.09 34.0315 141.674 34.1832 142.334 34.1832ZM152.312 24.2277H148.853L152.597 36.766H155.623L158.085 28.7578L160.743 36.766H163.724L167.479 24.2277H164.35L162.22 32.032L159.866 24.2277H156.841L154.498 32.2039L152.312 24.2277Z" fill="black"/>
</svg>
