<svg width="140" height="56" viewBox="0 0 140 56" fill="none" xmlns="http://www.w3.org/2000/svg">
<path fill-rule="evenodd" clip-rule="evenodd" d="M38.5683 16.7495L27.0588 39.2495H16.248L21.0648 29.9245H20.8487C16.8749 35.083 10.9459 38.4789 2.49805 39.2495V30.0536C2.49805 30.0536 7.90236 29.7344 11.0794 26.3942H2.49805V16.7497H12.1426V24.6822L12.359 24.6813L16.3002 16.7497H23.594V24.6319L23.8104 24.6315L27.8994 16.7495H38.5683ZM101.331 36.766H104.437V18.937H101.331V36.766ZM84.2072 36.584C84.8822 36.8646 85.5687 37.005 86.2666 37.005C87.4195 37.005 88.4511 36.7243 89.3614 36.163C90.2715 35.6017 90.977 34.8281 91.4776 33.842C91.9782 32.8483 92.2285 31.7218 92.2285 30.4627C92.2285 29.2036 91.9706 28.0772 91.4549 27.0836C90.939 26.0899 90.2222 25.32 89.3044 24.7739C88.3866 24.2202 87.3436 23.9471 86.1755 23.9547C85.4322 23.9547 84.7192 24.0988 84.0365 24.387C83.3539 24.6753 82.785 25.0849 82.3299 25.6158C82.2947 25.6563 82.2606 25.6971 82.2275 25.7383V18.9485H79.11V36.7661H82.2047L82.1985 35.1016C82.2785 35.1997 82.3641 35.2956 82.455 35.3893C82.948 35.8976 83.5321 36.2957 84.2072 36.584ZM87.393 33.7055C86.8847 34.0165 86.3045 34.172 85.6521 34.172C85.0074 34.172 84.4157 34.0126 83.8772 33.6941C83.3386 33.3678 82.9101 32.9242 82.5915 32.3628C82.2805 31.8016 82.125 31.1643 82.125 30.4513C82.1175 29.7383 82.2691 29.1012 82.5801 28.5399C82.8987 27.971 83.3272 27.5311 83.8659 27.2201C84.4044 26.9015 84.9999 26.746 85.6521 26.7536C86.3045 26.746 86.8847 26.8977 87.393 27.2087C87.9087 27.5121 88.3031 27.9483 88.5762 28.5172C88.8569 29.0785 88.9972 29.7232 88.9972 30.4513C88.9972 31.1796 88.8569 31.8243 88.5762 32.3856C88.3031 32.947 87.9087 33.3868 87.393 33.7055ZM43.0681 20.0179H46.618L49.7935 31.6149L53.1716 20.0179H56.1299L59.7935 31.3822L62.8427 20.0179H66.0967L61.2954 36.7661H58.2347L54.5092 25.664L51.0895 36.7661H47.9947L43.0681 20.0179ZM71.3393 37.0618C70.1028 37.0694 68.9878 36.7963 67.9942 36.2427C67.0081 35.6813 66.2307 34.9038 65.6617 33.9102C65.1004 32.9165 64.8198 31.7825 64.8198 30.5082C64.8198 29.2718 65.1081 28.153 65.6846 27.1518C66.2609 26.1505 67.0422 25.3693 68.0283 24.808C69.0144 24.2467 70.1142 23.966 71.3278 23.966C72.6932 23.966 73.8878 24.2694 74.9118 24.8762C75.9435 25.483 76.7133 26.344 77.2216 27.459C77.7373 28.5664 77.9232 29.8369 77.7791 31.2705H68.0332C68.0605 31.8417 68.2029 32.3613 68.4607 32.8293C68.749 33.345 69.1509 33.747 69.6667 34.0353C70.1826 34.3235 70.7589 34.4677 71.3962 34.4677C71.8816 34.46 72.333 34.3767 72.7501 34.2174C73.1673 34.0505 73.5199 33.8268 73.8082 33.546C74.1041 33.2654 74.3127 32.9469 74.4341 32.5904H77.6881C77.4908 33.4627 77.0964 34.2402 76.5048 34.9228C75.9131 35.5979 75.1698 36.125 74.2747 36.5043C73.3797 36.8835 72.4012 37.0694 71.3393 37.0618ZM68.4721 28.1416C68.2903 28.4586 68.1643 28.7999 68.0942 29.1657H74.5546C74.5077 28.7037 74.3651 28.2827 74.1268 27.9027C73.8537 27.4552 73.4821 27.1101 73.0118 26.8673C72.5416 26.617 72.0106 26.4919 71.419 26.4919C70.7893 26.4919 70.2167 26.636 69.7008 26.9242C69.1851 27.2125 68.7755 27.6183 68.4721 28.1416ZM94.5158 24.2277C94.5158 23.2113 94.747 22.3087 95.2098 21.5198C95.6724 20.7234 96.3211 20.1052 97.1554 19.6652C97.9973 19.2177 98.9797 18.9864 100.102 18.9712V21.736C99.5788 21.7436 99.1313 21.8536 98.7597 22.0659C98.3956 22.2707 98.1149 22.5704 97.9177 22.9648C97.7362 23.3279 97.6382 23.7489 97.6238 24.2277H100.034V26.856H97.6219V36.7661H94.5158V26.856H92.5133V24.2277H94.5158ZM112.333 37.039C111.066 37.039 109.932 36.7621 108.931 36.2085C107.937 35.6471 107.156 34.8735 106.587 33.8873C106.026 32.8937 105.745 31.7673 105.745 30.5081C105.745 29.2415 106.026 28.1112 106.587 27.1176C107.156 26.1163 107.937 25.3389 108.931 24.7851C109.932 24.2314 111.066 23.9546 112.333 23.9546C113.607 23.9546 114.745 24.2314 115.746 24.7851C116.755 25.3389 117.54 26.1125 118.101 27.1062C118.663 28.0999 118.947 29.2338 118.955 30.5081C118.947 31.7673 118.663 32.8937 118.101 33.8873C117.548 34.8735 116.766 35.6471 115.757 36.2085C114.749 36.7621 113.607 37.039 112.333 37.039ZM112.333 34.1832C113 34.1832 113.592 34.0315 114.108 33.7281C114.624 33.4171 115.022 32.9847 115.302 32.431C115.583 31.8697 115.723 31.2287 115.723 30.5081C115.723 29.78 115.583 29.1352 115.302 28.5739C115.022 28.0126 114.624 27.5803 114.108 27.2769C113.592 26.9659 113 26.8104 112.333 26.8104C111.673 26.8104 111.085 26.9659 110.569 27.2769C110.061 27.5803 109.667 28.0126 109.386 28.5739C109.105 29.1352 108.969 29.78 108.976 30.5081C108.976 31.2287 109.117 31.8697 109.397 32.431C109.686 32.9847 110.08 33.4171 110.581 33.7281C111.089 34.0315 111.673 34.1832 112.333 34.1832ZM122.311 24.2277H118.852L122.596 36.766H125.622L128.084 28.7578L130.742 36.766H133.723L137.478 24.2277H134.349L132.219 32.032L129.865 24.2277H126.84L124.497 32.2039L122.311 24.2277Z" fill="black"/>
<path d="M38.5683 16.7495L27.0588 39.2495H16.248L21.0648 29.9245H20.8487C16.8749 35.083 10.9459 38.4789 2.49805 39.2495V30.0536C2.49805 30.0536 7.90236 29.7344 11.0794 26.3942H2.49805V16.7497H12.1426V24.6822L12.359 24.6813L16.3002 16.7497H23.594V24.6319L23.8104 24.6315L27.8994 16.7495H38.5683ZM101.331 36.766H104.437V18.937H101.331V36.766ZM84.2072 36.584C84.8822 36.8646 85.5687 37.005 86.2666 37.005C87.4195 37.005 88.4511 36.7243 89.3614 36.163C90.2715 35.6017 90.977 34.8281 91.4776 33.842C91.9782 32.8483 92.2285 31.7218 92.2285 30.4627C92.2285 29.2036 91.9706 28.0772 91.4549 27.0836C90.939 26.0899 90.2222 25.32 89.3044 24.7739C88.3866 24.2202 87.3436 23.9471 86.1755 23.9547C85.4322 23.9547 84.7192 24.0988 84.0365 24.387C83.3539 24.6753 82.785 25.0849 82.3299 25.6158C82.2947 25.6563 82.2606 25.6971 82.2275 25.7383V18.9485H79.11V36.7661H82.2047L82.1985 35.1016C82.2785 35.1997 82.3641 35.2956 82.455 35.3893C82.948 35.8976 83.5321 36.2957 84.2072 36.584ZM87.393 33.7055C86.8847 34.0165 86.3045 34.172 85.6521 34.172C85.0074 34.172 84.4157 34.0126 83.8772 33.6941C83.3386 33.3678 82.9101 32.9242 82.5915 32.3628C82.2805 31.8016 82.125 31.1643 82.125 30.4513C82.1175 29.7383 82.2691 29.1012 82.5801 28.5399C82.8987 27.971 83.3272 27.5311 83.8659 27.2201C84.4044 26.9015 84.9999 26.746 85.6521 26.7536C86.3045 26.746 86.8847 26.8977 87.393 27.2087C87.9087 27.5121 88.3031 27.9483 88.5762 28.5172C88.8569 29.0785 88.9972 29.7232 88.9972 30.4513C88.9972 31.1796 88.8569 31.8243 88.5762 32.3856C88.3031 32.947 87.9087 33.3868 87.393 33.7055ZM43.0681 20.0179H46.618L49.7935 31.6149L53.1716 20.0179H56.1299L59.7935 31.3822L62.8427 20.0179H66.0967L61.2954 36.7661H58.2347L54.5092 25.664L51.0895 36.7661H47.9947L43.0681 20.0179ZM71.3393 37.0618C70.1028 37.0694 68.9878 36.7963 67.9942 36.2427C67.0081 35.6813 66.2307 34.9038 65.6617 33.9102C65.1004 32.9165 64.8198 31.7825 64.8198 30.5082C64.8198 29.2718 65.1081 28.153 65.6846 27.1518C66.2609 26.1505 67.0422 25.3693 68.0283 24.808C69.0144 24.2467 70.1142 23.966 71.3278 23.966C72.6932 23.966 73.8878 24.2694 74.9118 24.8762C75.9435 25.483 76.7133 26.344 77.2216 27.459C77.7373 28.5664 77.9232 29.8369 77.7791 31.2705H68.0332C68.0605 31.8417 68.2029 32.3613 68.4607 32.8293C68.749 33.345 69.1509 33.747 69.6667 34.0353C70.1826 34.3235 70.7589 34.4677 71.3962 34.4677C71.8816 34.46 72.333 34.3767 72.7501 34.2174C73.1673 34.0505 73.5199 33.8268 73.8082 33.546C74.1041 33.2654 74.3127 32.9469 74.4341 32.5904H77.6881C77.4908 33.4627 77.0964 34.2402 76.5048 34.9228C75.9131 35.5979 75.1698 36.125 74.2747 36.5043C73.3797 36.8835 72.4012 37.0694 71.3393 37.0618ZM68.4721 28.1416C68.2903 28.4586 68.1643 28.7999 68.0942 29.1657H74.5546C74.5077 28.7037 74.3651 28.2827 74.1268 27.9027C73.8537 27.4552 73.4821 27.1101 73.0118 26.8673C72.5416 26.617 72.0106 26.4919 71.419 26.4919C70.7893 26.4919 70.2167 26.636 69.7008 26.9242C69.1851 27.2125 68.7755 27.6183 68.4721 28.1416ZM94.5158 24.2277C94.5158 23.2113 94.747 22.3087 95.2098 21.5198C95.6724 20.7234 96.3211 20.1052 97.1554 19.6652C97.9973 19.2177 98.9797 18.9864 100.102 18.9712V21.736C99.5788 21.7436 99.1313 21.8536 98.7597 22.0659C98.3956 22.2707 98.1149 22.5704 97.9177 22.9648C97.7362 23.3279 97.6382 23.7489 97.6238 24.2277H100.034V26.856H97.6219V36.7661H94.5158V26.856H92.5133V24.2277H94.5158ZM112.333 37.039C111.066 37.039 109.932 36.7621 108.931 36.2085C107.937 35.6471 107.156 34.8735 106.587 33.8873C106.026 32.8937 105.745 31.7673 105.745 30.5081C105.745 29.2415 106.026 28.1112 106.587 27.1176C107.156 26.1163 107.937 25.3389 108.931 24.7851C109.932 24.2314 111.066 23.9546 112.333 23.9546C113.607 23.9546 114.745 24.2314 115.746 24.7851C116.755 25.3389 117.54 26.1125 118.101 27.1062C118.663 28.0999 118.947 29.2338 118.955 30.5081C118.947 31.7673 118.663 32.8937 118.101 33.8873C117.548 34.8735 116.766 35.6471 115.757 36.2085C114.749 36.7621 113.607 37.039 112.333 37.039ZM112.333 34.1832C113 34.1832 113.592 34.0315 114.108 33.7281C114.624 33.4171 115.022 32.9847 115.302 32.431C115.583 31.8697 115.723 31.2287 115.723 30.5081C115.723 29.78 115.583 29.1352 115.302 28.5739C115.022 28.0126 114.624 27.5803 114.108 27.2769C113.592 26.9659 113 26.8104 112.333 26.8104C111.673 26.8104 111.085 26.9659 110.569 27.2769C110.061 27.5803 109.667 28.0126 109.386 28.5739C109.105 29.1352 108.969 29.78 108.976 30.5081C108.976 31.2287 109.117 31.8697 109.397 32.431C109.686 32.9847 110.08 33.4171 110.581 33.7281C111.089 34.0315 111.673 34.1832 112.333 34.1832ZM122.311 24.2277H118.852L122.596 36.766H125.622L128.084 28.7578L130.742 36.766H133.723L137.478 24.2277H134.349L132.219 32.032L129.865 24.2277H126.84L124.497 32.2039L122.311 24.2277Z" fill="black"/>
<path fill-rule="evenodd" clip-rule="evenodd" d="M38.5683 16.7495L27.0588 39.2495H16.248L21.0648 29.9245H20.8487C16.8749 35.083 10.9459 38.4789 2.49805 39.2495V30.0536C2.49805 30.0536 7.90236 29.7344 11.0794 26.3942H2.49805V16.7497H12.1426V24.6822L12.359 24.6813L16.3002 16.7497H23.594V24.6319L23.8104 24.6315L27.8994 16.7495H38.5683ZM101.331 36.766H104.437V18.937H101.331V36.766ZM84.2072 36.584C84.8822 36.8646 85.5687 37.005 86.2666 37.005C87.4195 37.005 88.4511 36.7243 89.3614 36.163C90.2715 35.6017 90.977 34.8281 91.4776 33.842C91.9782 32.8483 92.2285 31.7218 92.2285 30.4627C92.2285 29.2036 91.9706 28.0772 91.4549 27.0836C90.939 26.0899 90.2222 25.32 89.3044 24.7739C88.3866 24.2202 87.3436 23.9471 86.1755 23.9547C85.4322 23.9547 84.7192 24.0988 84.0365 24.387C83.3539 24.6753 82.785 25.0849 82.3299 25.6158C82.2947 25.6563 82.2606 25.6971 82.2275 25.7383V18.9485H79.11V36.7661H82.2047L82.1985 35.1016C82.2785 35.1997 82.3641 35.2956 82.455 35.3893C82.948 35.8976 83.5321 36.2957 84.2072 36.584ZM87.393 33.7055C86.8847 34.0165 86.3045 34.172 85.6521 34.172C85.0074 34.172 84.4157 34.0126 83.8772 33.6941C83.3386 33.3678 82.9101 32.9242 82.5915 32.3628C82.2805 31.8016 82.125 31.1643 82.125 30.4513C82.1175 29.7383 82.2691 29.1012 82.5801 28.5399C82.8987 27.971 83.3272 27.5311 83.8659 27.2201C84.4044 26.9015 84.9999 26.746 85.6521 26.7536C86.3045 26.746 86.8847 26.8977 87.393 27.2087C87.9087 27.5121 88.3031 27.9483 88.5762 28.5172C88.8569 29.0785 88.9972 29.7232 88.9972 30.4513C88.9972 31.1796 88.8569 31.8243 88.5762 32.3856C88.3031 32.947 87.9087 33.3868 87.393 33.7055ZM43.0681 20.0179H46.618L49.7935 31.6149L53.1716 20.0179H56.1299L59.7935 31.3822L62.8427 20.0179H66.0967L61.2954 36.7661H58.2347L54.5092 25.664L51.0895 36.7661H47.9947L43.0681 20.0179ZM71.3393 37.0618C70.1028 37.0694 68.9878 36.7963 67.9942 36.2427C67.0081 35.6813 66.2307 34.9038 65.6617 33.9102C65.1004 32.9165 64.8198 31.7825 64.8198 30.5082C64.8198 29.2718 65.1081 28.153 65.6846 27.1518C66.2609 26.1505 67.0422 25.3693 68.0283 24.808C69.0144 24.2467 70.1142 23.966 71.3278 23.966C72.6932 23.966 73.8878 24.2694 74.9118 24.8762C75.9435 25.483 76.7133 26.344 77.2216 27.459C77.7373 28.5664 77.9232 29.8369 77.7791 31.2705H68.0332C68.0605 31.8417 68.2029 32.3613 68.4607 32.8293C68.749 33.345 69.1509 33.747 69.6667 34.0353C70.1826 34.3235 70.7589 34.4677 71.3962 34.4677C71.8816 34.46 72.333 34.3767 72.7501 34.2174C73.1673 34.0505 73.5199 33.8268 73.8082 33.546C74.1041 33.2654 74.3127 32.9469 74.4341 32.5904H77.6881C77.4908 33.4627 77.0964 34.2402 76.5048 34.9228C75.9131 35.5979 75.1698 36.125 74.2747 36.5043C73.3797 36.8835 72.4012 37.0694 71.3393 37.0618ZM68.4721 28.1416C68.2903 28.4586 68.1643 28.7999 68.0942 29.1657H74.5546C74.5077 28.7037 74.3651 28.2827 74.1268 27.9027C73.8537 27.4552 73.4821 27.1101 73.0118 26.8673C72.5416 26.617 72.0106 26.4919 71.419 26.4919C70.7893 26.4919 70.2167 26.636 69.7008 26.9242C69.1851 27.2125 68.7755 27.6183 68.4721 28.1416ZM94.5158 24.2277C94.5158 23.2113 94.747 22.3087 95.2098 21.5198C95.6724 20.7234 96.3211 20.1052 97.1554 19.6652C97.9973 19.2177 98.9797 18.9864 100.102 18.9712V21.736C99.5788 21.7436 99.1313 21.8536 98.7597 22.0659C98.3956 22.2707 98.1149 22.5704 97.9177 22.9648C97.7362 23.3279 97.6382 23.7489 97.6238 24.2277H100.034V26.856H97.6219V36.7661H94.5158V26.856H92.5133V24.2277H94.5158ZM112.333 37.039C111.066 37.039 109.932 36.7621 108.931 36.2085C107.937 35.6471 107.156 34.8735 106.587 33.8873C106.026 32.8937 105.745 31.7673 105.745 30.5081C105.745 29.2415 106.026 28.1112 106.587 27.1176C107.156 26.1163 107.937 25.3389 108.931 24.7851C109.932 24.2314 111.066 23.9546 112.333 23.9546C113.607 23.9546 114.745 24.2314 115.746 24.7851C116.755 25.3389 117.54 26.1125 118.101 27.1062C118.663 28.0999 118.947 29.2338 118.955 30.5081C118.947 31.7673 118.663 32.8937 118.101 33.8873C117.548 34.8735 116.766 35.6471 115.757 36.2085C114.749 36.7621 113.607 37.039 112.333 37.039ZM112.333 34.1832C113 34.1832 113.592 34.0315 114.108 33.7281C114.624 33.4171 115.022 32.9847 115.302 32.431C115.583 31.8697 115.723 31.2287 115.723 30.5081C115.723 29.78 115.583 29.1352 115.302 28.5739C115.022 28.0126 114.624 27.5803 114.108 27.2769C113.592 26.9659 113 26.8104 112.333 26.8104C111.673 26.8104 111.085 26.9659 110.569 27.2769C110.061 27.5803 109.667 28.0126 109.386 28.5739C109.105 29.1352 108.969 29.78 108.976 30.5081C108.976 31.2287 109.117 31.8697 109.397 32.431C109.686 32.9847 110.08 33.4171 110.581 33.7281C111.089 34.0315 111.673 34.1832 112.333 34.1832ZM122.311 24.2277H118.852L122.596 36.766H125.622L128.084 28.7578L130.742 36.766H133.723L137.478 24.2277H134.349L132.219 32.032L129.865 24.2277H126.84L124.497 32.2039L122.311 24.2277Z" fill="black"/>
<path d="M38.5683 16.7495L27.0588 39.2495H16.248L21.0648 29.9245H20.8487C16.8749 35.083 10.9459 38.4789 2.49805 39.2495V30.0536C2.49805 30.0536 7.90236 29.7344 11.0794 26.3942H2.49805V16.7497H12.1426V24.6822L12.359 24.6813L16.3002 16.7497H23.594V24.6319L23.8104 24.6315L27.8994 16.7495H38.5683ZM101.331 36.766H104.437V18.937H101.331V36.766ZM84.2072 36.584C84.8822 36.8646 85.5687 37.005 86.2666 37.005C87.4195 37.005 88.4511 36.7243 89.3614 36.163C90.2715 35.6017 90.977 34.8281 91.4776 33.842C91.9782 32.8483 92.2285 31.7218 92.2285 30.4627C92.2285 29.2036 91.9706 28.0772 91.4549 27.0836C90.939 26.0899 90.2222 25.32 89.3044 24.7739C88.3866 24.2202 87.3436 23.9471 86.1755 23.9547C85.4322 23.9547 84.7192 24.0988 84.0365 24.387C83.3539 24.6753 82.785 25.0849 82.3299 25.6158C82.2947 25.6563 82.2606 25.6971 82.2275 25.7383V18.9485H79.11V36.7661H82.2047L82.1985 35.1016C82.2785 35.1997 82.3641 35.2956 82.455 35.3893C82.948 35.8976 83.5321 36.2957 84.2072 36.584ZM87.393 33.7055C86.8847 34.0165 86.3045 34.172 85.6521 34.172C85.0074 34.172 84.4157 34.0126 83.8772 33.6941C83.3386 33.3678 82.9101 32.9242 82.5915 32.3628C82.2805 31.8016 82.125 31.1643 82.125 30.4513C82.1175 29.7383 82.2691 29.1012 82.5801 28.5399C82.8987 27.971 83.3272 27.5311 83.8659 27.2201C84.4044 26.9015 84.9999 26.746 85.6521 26.7536C86.3045 26.746 86.8847 26.8977 87.393 27.2087C87.9087 27.5121 88.3031 27.9483 88.5762 28.5172C88.8569 29.0785 88.9972 29.7232 88.9972 30.4513C88.9972 31.1796 88.8569 31.8243 88.5762 32.3856C88.3031 32.947 87.9087 33.3868 87.393 33.7055ZM43.0681 20.0179H46.618L49.7935 31.6149L53.1716 20.0179H56.1299L59.7935 31.3822L62.8427 20.0179H66.0967L61.2954 36.7661H58.2347L54.5092 25.664L51.0895 36.7661H47.9947L43.0681 20.0179ZM71.3393 37.0618C70.1028 37.0694 68.9878 36.7963 67.9942 36.2427C67.0081 35.6813 66.2307 34.9038 65.6617 33.9102C65.1004 32.9165 64.8198 31.7825 64.8198 30.5082C64.8198 29.2718 65.1081 28.153 65.6846 27.1518C66.2609 26.1505 67.0422 25.3693 68.0283 24.808C69.0144 24.2467 70.1142 23.966 71.3278 23.966C72.6932 23.966 73.8878 24.2694 74.9118 24.8762C75.9435 25.483 76.7133 26.344 77.2216 27.459C77.7373 28.5664 77.9232 29.8369 77.7791 31.2705H68.0332C68.0605 31.8417 68.2029 32.3613 68.4607 32.8293C68.749 33.345 69.1509 33.747 69.6667 34.0353C70.1826 34.3235 70.7589 34.4677 71.3962 34.4677C71.8816 34.46 72.333 34.3767 72.7501 34.2174C73.1673 34.0505 73.5199 33.8268 73.8082 33.546C74.1041 33.2654 74.3127 32.9469 74.4341 32.5904H77.6881C77.4908 33.4627 77.0964 34.2402 76.5048 34.9228C75.9131 35.5979 75.1698 36.125 74.2747 36.5043C73.3797 36.8835 72.4012 37.0694 71.3393 37.0618ZM68.4721 28.1416C68.2903 28.4586 68.1643 28.7999 68.0942 29.1657H74.5546C74.5077 28.7037 74.3651 28.2827 74.1268 27.9027C73.8537 27.4552 73.4821 27.1101 73.0118 26.8673C72.5416 26.617 72.0106 26.4919 71.419 26.4919C70.7893 26.4919 70.2167 26.636 69.7008 26.9242C69.1851 27.2125 68.7755 27.6183 68.4721 28.1416ZM94.5158 24.2277C94.5158 23.2113 94.747 22.3087 95.2098 21.5198C95.6724 20.7234 96.3211 20.1052 97.1554 19.6652C97.9973 19.2177 98.9797 18.9864 100.102 18.9712V21.736C99.5788 21.7436 99.1313 21.8536 98.7597 22.0659C98.3956 22.2707 98.1149 22.5704 97.9177 22.9648C97.7362 23.3279 97.6382 23.7489 97.6238 24.2277H100.034V26.856H97.6219V36.7661H94.5158V26.856H92.5133V24.2277H94.5158ZM112.333 37.039C111.066 37.039 109.932 36.7621 108.931 36.2085C107.937 35.6471 107.156 34.8735 106.587 33.8873C106.026 32.8937 105.745 31.7673 105.745 30.5081C105.745 29.2415 106.026 28.1112 106.587 27.1176C107.156 26.1163 107.937 25.3389 108.931 24.7851C109.932 24.2314 111.066 23.9546 112.333 23.9546C113.607 23.9546 114.745 24.2314 115.746 24.7851C116.755 25.3389 117.54 26.1125 118.101 27.1062C118.663 28.0999 118.947 29.2338 118.955 30.5081C118.947 31.7673 118.663 32.8937 118.101 33.8873C117.548 34.8735 116.766 35.6471 115.757 36.2085C114.749 36.7621 113.607 37.039 112.333 37.039ZM112.333 34.1832C113 34.1832 113.592 34.0315 114.108 33.7281C114.624 33.4171 115.022 32.9847 115.302 32.431C115.583 31.8697 115.723 31.2287 115.723 30.5081C115.723 29.78 115.583 29.1352 115.302 28.5739C115.022 28.0126 114.624 27.5803 114.108 27.2769C113.592 26.9659 113 26.8104 112.333 26.8104C111.673 26.8104 111.085 26.9659 110.569 27.2769C110.061 27.5803 109.667 28.0126 109.386 28.5739C109.105 29.1352 108.969 29.78 108.976 30.5081C108.976 31.2287 109.117 31.8697 109.397 32.431C109.686 32.9847 110.08 33.4171 110.581 33.7281C111.089 34.0315 111.673 34.1832 112.333 34.1832ZM122.311 24.2277H118.852L122.596 36.766H125.622L128.084 28.7578L130.742 36.766H133.723L137.478 24.2277H134.349L132.219 32.032L129.865 24.2277H126.84L124.497 32.2039L122.311 24.2277Z" fill="black"/>
<path fill-rule="evenodd" clip-rule="evenodd" d="M38.5683 16.7495L27.0588 39.2495H16.248L21.0648 29.9245H20.8487C16.8749 35.083 10.9459 38.4789 2.49805 39.2495V30.0536C2.49805 30.0536 7.90236 29.7344 11.0794 26.3942H2.49805V16.7497H12.1426V24.6822L12.359 24.6813L16.3002 16.7497H23.594V24.6319L23.8104 24.6315L27.8994 16.7495H38.5683ZM101.331 36.766H104.437V18.937H101.331V36.766ZM84.2072 36.584C84.8822 36.8646 85.5687 37.005 86.2666 37.005C87.4195 37.005 88.4511 36.7243 89.3614 36.163C90.2715 35.6017 90.977 34.8281 91.4776 33.842C91.9782 32.8483 92.2285 31.7218 92.2285 30.4627C92.2285 29.2036 91.9706 28.0772 91.4549 27.0836C90.939 26.0899 90.2222 25.32 89.3044 24.7739C88.3866 24.2202 87.3436 23.9471 86.1755 23.9547C85.4322 23.9547 84.7192 24.0988 84.0365 24.387C83.3539 24.6753 82.785 25.0849 82.3299 25.6158C82.2947 25.6563 82.2606 25.6971 82.2275 25.7383V18.9485H79.11V36.7661H82.2047L82.1985 35.1016C82.2785 35.1997 82.3641 35.2956 82.455 35.3893C82.948 35.8976 83.5321 36.2957 84.2072 36.584ZM87.393 33.7055C86.8847 34.0165 86.3045 34.172 85.6521 34.172C85.0074 34.172 84.4157 34.0126 83.8772 33.6941C83.3386 33.3678 82.9101 32.9242 82.5915 32.3628C82.2805 31.8016 82.125 31.1643 82.125 30.4513C82.1175 29.7383 82.2691 29.1012 82.5801 28.5399C82.8987 27.971 83.3272 27.5311 83.8659 27.2201C84.4044 26.9015 84.9999 26.746 85.6521 26.7536C86.3045 26.746 86.8847 26.8977 87.393 27.2087C87.9087 27.5121 88.3031 27.9483 88.5762 28.5172C88.8569 29.0785 88.9972 29.7232 88.9972 30.4513C88.9972 31.1796 88.8569 31.8243 88.5762 32.3856C88.3031 32.947 87.9087 33.3868 87.393 33.7055ZM43.0681 20.0179H46.618L49.7935 31.6149L53.1716 20.0179H56.1299L59.7935 31.3822L62.8427 20.0179H66.0967L61.2954 36.7661H58.2347L54.5092 25.664L51.0895 36.7661H47.9947L43.0681 20.0179ZM71.3393 37.0618C70.1028 37.0694 68.9878 36.7963 67.9942 36.2427C67.0081 35.6813 66.2307 34.9038 65.6617 33.9102C65.1004 32.9165 64.8198 31.7825 64.8198 30.5082C64.8198 29.2718 65.1081 28.153 65.6846 27.1518C66.2609 26.1505 67.0422 25.3693 68.0283 24.808C69.0144 24.2467 70.1142 23.966 71.3278 23.966C72.6932 23.966 73.8878 24.2694 74.9118 24.8762C75.9435 25.483 76.7133 26.344 77.2216 27.459C77.7373 28.5664 77.9232 29.8369 77.7791 31.2705H68.0332C68.0605 31.8417 68.2029 32.3613 68.4607 32.8293C68.749 33.345 69.1509 33.747 69.6667 34.0353C70.1826 34.3235 70.7589 34.4677 71.3962 34.4677C71.8816 34.46 72.333 34.3767 72.7501 34.2174C73.1673 34.0505 73.5199 33.8268 73.8082 33.546C74.1041 33.2654 74.3127 32.9469 74.4341 32.5904H77.6881C77.4908 33.4627 77.0964 34.2402 76.5048 34.9228C75.9131 35.5979 75.1698 36.125 74.2747 36.5043C73.3797 36.8835 72.4012 37.0694 71.3393 37.0618ZM68.4721 28.1416C68.2903 28.4586 68.1643 28.7999 68.0942 29.1657H74.5546C74.5077 28.7037 74.3651 28.2827 74.1268 27.9027C73.8537 27.4552 73.4821 27.1101 73.0118 26.8673C72.5416 26.617 72.0106 26.4919 71.419 26.4919C70.7893 26.4919 70.2167 26.636 69.7008 26.9242C69.1851 27.2125 68.7755 27.6183 68.4721 28.1416ZM94.5158 24.2277C94.5158 23.2113 94.747 22.3087 95.2098 21.5198C95.6724 20.7234 96.3211 20.1052 97.1554 19.6652C97.9973 19.2177 98.9797 18.9864 100.102 18.9712V21.736C99.5788 21.7436 99.1313 21.8536 98.7597 22.0659C98.3956 22.2707 98.1149 22.5704 97.9177 22.9648C97.7362 23.3279 97.6382 23.7489 97.6238 24.2277H100.034V26.856H97.6219V36.7661H94.5158V26.856H92.5133V24.2277H94.5158ZM112.333 37.039C111.066 37.039 109.932 36.7621 108.931 36.2085C107.937 35.6471 107.156 34.8735 106.587 33.8873C106.026 32.8937 105.745 31.7673 105.745 30.5081C105.745 29.2415 106.026 28.1112 106.587 27.1176C107.156 26.1163 107.937 25.3389 108.931 24.7851C109.932 24.2314 111.066 23.9546 112.333 23.9546C113.607 23.9546 114.745 24.2314 115.746 24.7851C116.755 25.3389 117.54 26.1125 118.101 27.1062C118.663 28.0999 118.947 29.2338 118.955 30.5081C118.947 31.7673 118.663 32.8937 118.101 33.8873C117.548 34.8735 116.766 35.6471 115.757 36.2085C114.749 36.7621 113.607 37.039 112.333 37.039ZM112.333 34.1832C113 34.1832 113.592 34.0315 114.108 33.7281C114.624 33.4171 115.022 32.9847 115.302 32.431C115.583 31.8697 115.723 31.2287 115.723 30.5081C115.723 29.78 115.583 29.1352 115.302 28.5739C115.022 28.0126 114.624 27.5803 114.108 27.2769C113.592 26.9659 113 26.8104 112.333 26.8104C111.673 26.8104 111.085 26.9659 110.569 27.2769C110.061 27.5803 109.667 28.0126 109.386 28.5739C109.105 29.1352 108.969 29.78 108.976 30.5081C108.976 31.2287 109.117 31.8697 109.397 32.431C109.686 32.9847 110.08 33.4171 110.581 33.7281C111.089 34.0315 111.673 34.1832 112.333 34.1832ZM122.311 24.2277H118.852L122.596 36.766H125.622L128.084 28.7578L130.742 36.766H133.723L137.478 24.2277H134.349L132.219 32.032L129.865 24.2277H126.84L124.497 32.2039L122.311 24.2277Z" fill="black"/>
<path d="M38.5683 16.7495L27.0588 39.2495H16.248L21.0648 29.9245H20.8487C16.8749 35.083 10.9459 38.4789 2.49805 39.2495V30.0536C2.49805 30.0536 7.90236 29.7344 11.0794 26.3942H2.49805V16.7497H12.1426V24.6822L12.359 24.6813L16.3002 16.7497H23.594V24.6319L23.8104 24.6315L27.8994 16.7495H38.5683ZM101.331 36.766H104.437V18.937H101.331V36.766ZM84.2072 36.584C84.8822 36.8646 85.5687 37.005 86.2666 37.005C87.4195 37.005 88.4511 36.7243 89.3614 36.163C90.2715 35.6017 90.977 34.8281 91.4776 33.842C91.9782 32.8483 92.2285 31.7218 92.2285 30.4627C92.2285 29.2036 91.9706 28.0772 91.4549 27.0836C90.939 26.0899 90.2222 25.32 89.3044 24.7739C88.3866 24.2202 87.3436 23.9471 86.1755 23.9547C85.4322 23.9547 84.7192 24.0988 84.0365 24.387C83.3539 24.6753 82.785 25.0849 82.3299 25.6158C82.2947 25.6563 82.2606 25.6971 82.2275 25.7383V18.9485H79.11V36.7661H82.2047L82.1985 35.1016C82.2785 35.1997 82.3641 35.2956 82.455 35.3893C82.948 35.8976 83.5321 36.2957 84.2072 36.584ZM87.393 33.7055C86.8847 34.0165 86.3045 34.172 85.6521 34.172C85.0074 34.172 84.4157 34.0126 83.8772 33.6941C83.3386 33.3678 82.9101 32.9242 82.5915 32.3628C82.2805 31.8016 82.125 31.1643 82.125 30.4513C82.1175 29.7383 82.2691 29.1012 82.5801 28.5399C82.8987 27.971 83.3272 27.5311 83.8659 27.2201C84.4044 26.9015 84.9999 26.746 85.6521 26.7536C86.3045 26.746 86.8847 26.8977 87.393 27.2087C87.9087 27.5121 88.3031 27.9483 88.5762 28.5172C88.8569 29.0785 88.9972 29.7232 88.9972 30.4513C88.9972 31.1796 88.8569 31.8243 88.5762 32.3856C88.3031 32.947 87.9087 33.3868 87.393 33.7055ZM43.0681 20.0179H46.618L49.7935 31.6149L53.1716 20.0179H56.1299L59.7935 31.3822L62.8427 20.0179H66.0967L61.2954 36.7661H58.2347L54.5092 25.664L51.0895 36.7661H47.9947L43.0681 20.0179ZM71.3393 37.0618C70.1028 37.0694 68.9878 36.7963 67.9942 36.2427C67.0081 35.6813 66.2307 34.9038 65.6617 33.9102C65.1004 32.9165 64.8198 31.7825 64.8198 30.5082C64.8198 29.2718 65.1081 28.153 65.6846 27.1518C66.2609 26.1505 67.0422 25.3693 68.0283 24.808C69.0144 24.2467 70.1142 23.966 71.3278 23.966C72.6932 23.966 73.8878 24.2694 74.9118 24.8762C75.9435 25.483 76.7133 26.344 77.2216 27.459C77.7373 28.5664 77.9232 29.8369 77.7791 31.2705H68.0332C68.0605 31.8417 68.2029 32.3613 68.4607 32.8293C68.749 33.345 69.1509 33.747 69.6667 34.0353C70.1826 34.3235 70.7589 34.4677 71.3962 34.4677C71.8816 34.46 72.333 34.3767 72.7501 34.2174C73.1673 34.0505 73.5199 33.8268 73.8082 33.546C74.1041 33.2654 74.3127 32.9469 74.4341 32.5904H77.6881C77.4908 33.4627 77.0964 34.2402 76.5048 34.9228C75.9131 35.5979 75.1698 36.125 74.2747 36.5043C73.3797 36.8835 72.4012 37.0694 71.3393 37.0618ZM68.4721 28.1416C68.2903 28.4586 68.1643 28.7999 68.0942 29.1657H74.5546C74.5077 28.7037 74.3651 28.2827 74.1268 27.9027C73.8537 27.4552 73.4821 27.1101 73.0118 26.8673C72.5416 26.617 72.0106 26.4919 71.419 26.4919C70.7893 26.4919 70.2167 26.636 69.7008 26.9242C69.1851 27.2125 68.7755 27.6183 68.4721 28.1416ZM94.5158 24.2277C94.5158 23.2113 94.747 22.3087 95.2098 21.5198C95.6724 20.7234 96.3211 20.1052 97.1554 19.6652C97.9973 19.2177 98.9797 18.9864 100.102 18.9712V21.736C99.5788 21.7436 99.1313 21.8536 98.7597 22.0659C98.3956 22.2707 98.1149 22.5704 97.9177 22.9648C97.7362 23.3279 97.6382 23.7489 97.6238 24.2277H100.034V26.856H97.6219V36.7661H94.5158V26.856H92.5133V24.2277H94.5158ZM112.333 37.039C111.066 37.039 109.932 36.7621 108.931 36.2085C107.937 35.6471 107.156 34.8735 106.587 33.8873C106.026 32.8937 105.745 31.7673 105.745 30.5081C105.745 29.2415 106.026 28.1112 106.587 27.1176C107.156 26.1163 107.937 25.3389 108.931 24.7851C109.932 24.2314 111.066 23.9546 112.333 23.9546C113.607 23.9546 114.745 24.2314 115.746 24.7851C116.755 25.3389 117.54 26.1125 118.101 27.1062C118.663 28.0999 118.947 29.2338 118.955 30.5081C118.947 31.7673 118.663 32.8937 118.101 33.8873C117.548 34.8735 116.766 35.6471 115.757 36.2085C114.749 36.7621 113.607 37.039 112.333 37.039ZM112.333 34.1832C113 34.1832 113.592 34.0315 114.108 33.7281C114.624 33.4171 115.022 32.9847 115.302 32.431C115.583 31.8697 115.723 31.2287 115.723 30.5081C115.723 29.78 115.583 29.1352 115.302 28.5739C115.022 28.0126 114.624 27.5803 114.108 27.2769C113.592 26.9659 113 26.8104 112.333 26.8104C111.673 26.8104 111.085 26.9659 110.569 27.2769C110.061 27.5803 109.667 28.0126 109.386 28.5739C109.105 29.1352 108.969 29.78 108.976 30.5081C108.976 31.2287 109.117 31.8697 109.397 32.431C109.686 32.9847 110.08 33.4171 110.581 33.7281C111.089 34.0315 111.673 34.1832 112.333 34.1832ZM122.311 24.2277H118.852L122.596 36.766H125.622L128.084 28.7578L130.742 36.766H133.723L137.478 24.2277H134.349L132.219 32.032L129.865 24.2277H126.84L124.497 32.2039L122.311 24.2277Z" fill="black"/>
<path fill-rule="evenodd" clip-rule="evenodd" d="M38.5683 16.7495L27.0588 39.2495H16.248L21.0648 29.9245H20.8487C16.8749 35.083 10.9459 38.4789 2.49805 39.2495V30.0536C2.49805 30.0536 7.90236 29.7344 11.0794 26.3942H2.49805V16.7497H12.1426V24.6822L12.359 24.6813L16.3002 16.7497H23.594V24.6319L23.8104 24.6315L27.8994 16.7495H38.5683ZM101.331 36.766H104.437V18.937H101.331V36.766ZM84.2072 36.584C84.8822 36.8646 85.5687 37.005 86.2666 37.005C87.4195 37.005 88.4511 36.7243 89.3614 36.163C90.2715 35.6017 90.977 34.8281 91.4776 33.842C91.9782 32.8483 92.2285 31.7218 92.2285 30.4627C92.2285 29.2036 91.9706 28.0772 91.4549 27.0836C90.939 26.0899 90.2222 25.32 89.3044 24.7739C88.3866 24.2202 87.3436 23.9471 86.1755 23.9547C85.4322 23.9547 84.7192 24.0988 84.0365 24.387C83.3539 24.6753 82.785 25.0849 82.3299 25.6158C82.2947 25.6563 82.2606 25.6971 82.2275 25.7383V18.9485H79.11V36.7661H82.2047L82.1985 35.1016C82.2785 35.1997 82.3641 35.2956 82.455 35.3893C82.948 35.8976 83.5321 36.2957 84.2072 36.584ZM87.393 33.7055C86.8847 34.0165 86.3045 34.172 85.6521 34.172C85.0074 34.172 84.4157 34.0126 83.8772 33.6941C83.3386 33.3678 82.9101 32.9242 82.5915 32.3628C82.2805 31.8016 82.125 31.1643 82.125 30.4513C82.1175 29.7383 82.2691 29.1012 82.5801 28.5399C82.8987 27.971 83.3272 27.5311 83.8659 27.2201C84.4044 26.9015 84.9999 26.746 85.6521 26.7536C86.3045 26.746 86.8847 26.8977 87.393 27.2087C87.9087 27.5121 88.3031 27.9483 88.5762 28.5172C88.8569 29.0785 88.9972 29.7232 88.9972 30.4513C88.9972 31.1796 88.8569 31.8243 88.5762 32.3856C88.3031 32.947 87.9087 33.3868 87.393 33.7055ZM43.0681 20.0179H46.618L49.7935 31.6149L53.1716 20.0179H56.1299L59.7935 31.3822L62.8427 20.0179H66.0967L61.2954 36.7661H58.2347L54.5092 25.664L51.0895 36.7661H47.9947L43.0681 20.0179ZM71.3393 37.0618C70.1028 37.0694 68.9878 36.7963 67.9942 36.2427C67.0081 35.6813 66.2307 34.9038 65.6617 33.9102C65.1004 32.9165 64.8198 31.7825 64.8198 30.5082C64.8198 29.2718 65.1081 28.153 65.6846 27.1518C66.2609 26.1505 67.0422 25.3693 68.0283 24.808C69.0144 24.2467 70.1142 23.966 71.3278 23.966C72.6932 23.966 73.8878 24.2694 74.9118 24.8762C75.9435 25.483 76.7133 26.344 77.2216 27.459C77.7373 28.5664 77.9232 29.8369 77.7791 31.2705H68.0332C68.0605 31.8417 68.2029 32.3613 68.4607 32.8293C68.749 33.345 69.1509 33.747 69.6667 34.0353C70.1826 34.3235 70.7589 34.4677 71.3962 34.4677C71.8816 34.46 72.333 34.3767 72.7501 34.2174C73.1673 34.0505 73.5199 33.8268 73.8082 33.546C74.1041 33.2654 74.3127 32.9469 74.4341 32.5904H77.6881C77.4908 33.4627 77.0964 34.2402 76.5048 34.9228C75.9131 35.5979 75.1698 36.125 74.2747 36.5043C73.3797 36.8835 72.4012 37.0694 71.3393 37.0618ZM68.4721 28.1416C68.2903 28.4586 68.1643 28.7999 68.0942 29.1657H74.5546C74.5077 28.7037 74.3651 28.2827 74.1268 27.9027C73.8537 27.4552 73.4821 27.1101 73.0118 26.8673C72.5416 26.617 72.0106 26.4919 71.419 26.4919C70.7893 26.4919 70.2167 26.636 69.7008 26.9242C69.1851 27.2125 68.7755 27.6183 68.4721 28.1416ZM94.5158 24.2277C94.5158 23.2113 94.747 22.3087 95.2098 21.5198C95.6724 20.7234 96.3211 20.1052 97.1554 19.6652C97.9973 19.2177 98.9797 18.9864 100.102 18.9712V21.736C99.5788 21.7436 99.1313 21.8536 98.7597 22.0659C98.3956 22.2707 98.1149 22.5704 97.9177 22.9648C97.7362 23.3279 97.6382 23.7489 97.6238 24.2277H100.034V26.856H97.6219V36.7661H94.5158V26.856H92.5133V24.2277H94.5158ZM112.333 37.039C111.066 37.039 109.932 36.7621 108.931 36.2085C107.937 35.6471 107.156 34.8735 106.587 33.8873C106.026 32.8937 105.745 31.7673 105.745 30.5081C105.745 29.2415 106.026 28.1112 106.587 27.1176C107.156 26.1163 107.937 25.3389 108.931 24.7851C109.932 24.2314 111.066 23.9546 112.333 23.9546C113.607 23.9546 114.745 24.2314 115.746 24.7851C116.755 25.3389 117.54 26.1125 118.101 27.1062C118.663 28.0999 118.947 29.2338 118.955 30.5081C118.947 31.7673 118.663 32.8937 118.101 33.8873C117.548 34.8735 116.766 35.6471 115.757 36.2085C114.749 36.7621 113.607 37.039 112.333 37.039ZM112.333 34.1832C113 34.1832 113.592 34.0315 114.108 33.7281C114.624 33.4171 115.022 32.9847 115.302 32.431C115.583 31.8697 115.723 31.2287 115.723 30.5081C115.723 29.78 115.583 29.1352 115.302 28.5739C115.022 28.0126 114.624 27.5803 114.108 27.2769C113.592 26.9659 113 26.8104 112.333 26.8104C111.673 26.8104 111.085 26.9659 110.569 27.2769C110.061 27.5803 109.667 28.0126 109.386 28.5739C109.105 29.1352 108.969 29.78 108.976 30.5081C108.976 31.2287 109.117 31.8697 109.397 32.431C109.686 32.9847 110.08 33.4171 110.581 33.7281C111.089 34.0315 111.673 34.1832 112.333 34.1832ZM122.311 24.2277H118.852L122.596 36.766H125.622L128.084 28.7578L130.742 36.766H133.723L137.478 24.2277H134.349L132.219 32.032L129.865 24.2277H126.84L124.497 32.2039L122.311 24.2277Z" fill="black"/>
<path d="M38.5683 16.7495L27.0588 39.2495H16.248L21.0648 29.9245H20.8487C16.8749 35.083 10.9459 38.4789 2.49805 39.2495V30.0536C2.49805 30.0536 7.90236 29.7344 11.0794 26.3942H2.49805V16.7497H12.1426V24.6822L12.359 24.6813L16.3002 16.7497H23.594V24.6319L23.8104 24.6315L27.8994 16.7495H38.5683ZM101.331 36.766H104.437V18.937H101.331V36.766ZM84.2072 36.584C84.8822 36.8646 85.5687 37.005 86.2666 37.005C87.4195 37.005 88.4511 36.7243 89.3614 36.163C90.2715 35.6017 90.977 34.8281 91.4776 33.842C91.9782 32.8483 92.2285 31.7218 92.2285 30.4627C92.2285 29.2036 91.9706 28.0772 91.4549 27.0836C90.939 26.0899 90.2222 25.32 89.3044 24.7739C88.3866 24.2202 87.3436 23.9471 86.1755 23.9547C85.4322 23.9547 84.7192 24.0988 84.0365 24.387C83.3539 24.6753 82.785 25.0849 82.3299 25.6158C82.2947 25.6563 82.2606 25.6971 82.2275 25.7383V18.9485H79.11V36.7661H82.2047L82.1985 35.1016C82.2785 35.1997 82.3641 35.2956 82.455 35.3893C82.948 35.8976 83.5321 36.2957 84.2072 36.584ZM87.393 33.7055C86.8847 34.0165 86.3045 34.172 85.6521 34.172C85.0074 34.172 84.4157 34.0126 83.8772 33.6941C83.3386 33.3678 82.9101 32.9242 82.5915 32.3628C82.2805 31.8016 82.125 31.1643 82.125 30.4513C82.1175 29.7383 82.2691 29.1012 82.5801 28.5399C82.8987 27.971 83.3272 27.5311 83.8659 27.2201C84.4044 26.9015 84.9999 26.746 85.6521 26.7536C86.3045 26.746 86.8847 26.8977 87.393 27.2087C87.9087 27.5121 88.3031 27.9483 88.5762 28.5172C88.8569 29.0785 88.9972 29.7232 88.9972 30.4513C88.9972 31.1796 88.8569 31.8243 88.5762 32.3856C88.3031 32.947 87.9087 33.3868 87.393 33.7055ZM43.0681 20.0179H46.618L49.7935 31.6149L53.1716 20.0179H56.1299L59.7935 31.3822L62.8427 20.0179H66.0967L61.2954 36.7661H58.2347L54.5092 25.664L51.0895 36.7661H47.9947L43.0681 20.0179ZM71.3393 37.0618C70.1028 37.0694 68.9878 36.7963 67.9942 36.2427C67.0081 35.6813 66.2307 34.9038 65.6617 33.9102C65.1004 32.9165 64.8198 31.7825 64.8198 30.5082C64.8198 29.2718 65.1081 28.153 65.6846 27.1518C66.2609 26.1505 67.0422 25.3693 68.0283 24.808C69.0144 24.2467 70.1142 23.966 71.3278 23.966C72.6932 23.966 73.8878 24.2694 74.9118 24.8762C75.9435 25.483 76.7133 26.344 77.2216 27.459C77.7373 28.5664 77.9232 29.8369 77.7791 31.2705H68.0332C68.0605 31.8417 68.2029 32.3613 68.4607 32.8293C68.749 33.345 69.1509 33.747 69.6667 34.0353C70.1826 34.3235 70.7589 34.4677 71.3962 34.4677C71.8816 34.46 72.333 34.3767 72.7501 34.2174C73.1673 34.0505 73.5199 33.8268 73.8082 33.546C74.1041 33.2654 74.3127 32.9469 74.4341 32.5904H77.6881C77.4908 33.4627 77.0964 34.2402 76.5048 34.9228C75.9131 35.5979 75.1698 36.125 74.2747 36.5043C73.3797 36.8835 72.4012 37.0694 71.3393 37.0618ZM68.4721 28.1416C68.2903 28.4586 68.1643 28.7999 68.0942 29.1657H74.5546C74.5077 28.7037 74.3651 28.2827 74.1268 27.9027C73.8537 27.4552 73.4821 27.1101 73.0118 26.8673C72.5416 26.617 72.0106 26.4919 71.419 26.4919C70.7893 26.4919 70.2167 26.636 69.7008 26.9242C69.1851 27.2125 68.7755 27.6183 68.4721 28.1416ZM94.5158 24.2277C94.5158 23.2113 94.747 22.3087 95.2098 21.5198C95.6724 20.7234 96.3211 20.1052 97.1554 19.6652C97.9973 19.2177 98.9797 18.9864 100.102 18.9712V21.736C99.5788 21.7436 99.1313 21.8536 98.7597 22.0659C98.3956 22.2707 98.1149 22.5704 97.9177 22.9648C97.7362 23.3279 97.6382 23.7489 97.6238 24.2277H100.034V26.856H97.6219V36.7661H94.5158V26.856H92.5133V24.2277H94.5158ZM112.333 37.039C111.066 37.039 109.932 36.7621 108.931 36.2085C107.937 35.6471 107.156 34.8735 106.587 33.8873C106.026 32.8937 105.745 31.7673 105.745 30.5081C105.745 29.2415 106.026 28.1112 106.587 27.1176C107.156 26.1163 107.937 25.3389 108.931 24.7851C109.932 24.2314 111.066 23.9546 112.333 23.9546C113.607 23.9546 114.745 24.2314 115.746 24.7851C116.755 25.3389 117.54 26.1125 118.101 27.1062C118.663 28.0999 118.947 29.2338 118.955 30.5081C118.947 31.7673 118.663 32.8937 118.101 33.8873C117.548 34.8735 116.766 35.6471 115.757 36.2085C114.749 36.7621 113.607 37.039 112.333 37.039ZM112.333 34.1832C113 34.1832 113.592 34.0315 114.108 33.7281C114.624 33.4171 115.022 32.9847 115.302 32.431C115.583 31.8697 115.723 31.2287 115.723 30.5081C115.723 29.78 115.583 29.1352 115.302 28.5739C115.022 28.0126 114.624 27.5803 114.108 27.2769C113.592 26.9659 113 26.8104 112.333 26.8104C111.673 26.8104 111.085 26.9659 110.569 27.2769C110.061 27.5803 109.667 28.0126 109.386 28.5739C109.105 29.1352 108.969 29.78 108.976 30.5081C108.976 31.2287 109.117 31.8697 109.397 32.431C109.686 32.9847 110.08 33.4171 110.581 33.7281C111.089 34.0315 111.673 34.1832 112.333 34.1832ZM122.311 24.2277H118.852L122.596 36.766H125.622L128.084 28.7578L130.742 36.766H133.723L137.478 24.2277H134.349L132.219 32.032L129.865 24.2277H126.84L124.497 32.2039L122.311 24.2277Z" fill="black"/>
</svg>
